<svg width="996" height="983" viewBox="0 0 996 983" fill="none" xmlns="http://www.w3.org/2000/svg">
<path d="M637.98 353.571C790.304 434.379 790.304 652.621 637.98 733.429L424.507 846.676C281.31 922.642 108.75 818.846 108.75 656.747L108.75 430.253C108.75 268.154 281.31 164.358 424.507 240.324L637.98 353.571Z" fill="#BC5959" fill-opacity="0.66"/>
<path d="M176.734 559.517C176.095 559.483 175.531 559.229 175.043 558.755C174.623 558.22 174.429 557.633 174.463 556.994L176.9 510.498C176.933 509.859 177.153 509.326 177.56 508.898C178.034 508.411 178.559 508.182 179.134 508.212L205.977 509.619C206.68 509.656 207.244 509.909 207.668 510.38C208.092 510.851 208.285 511.438 208.249 512.141C208.215 512.78 207.961 513.344 207.487 513.831C207.016 514.255 206.429 514.449 205.726 514.412L181.567 513.146L180.693 529.827L200.73 530.877C201.433 530.914 201.996 531.168 202.42 531.639C202.844 532.11 203.038 532.696 203.001 533.399C202.967 534.039 202.713 534.602 202.239 535.09C201.768 535.514 201.181 535.707 200.478 535.671L180.442 534.621L179.382 554.849L203.732 556.125C204.435 556.162 204.999 556.416 205.423 556.886C205.847 557.357 206.04 557.944 206.004 558.647C205.97 559.286 205.716 559.85 205.242 560.338C204.771 560.762 204.184 560.955 203.481 560.918L176.734 559.517ZM239.698 563.778C238.74 563.727 237.973 563.078 237.397 561.831C236.707 560.32 235.765 558.124 234.57 555.242C233.379 552.295 232.044 549.021 230.567 545.419C229.157 541.756 227.716 538.059 226.245 534.329C224.838 530.603 223.546 527.138 222.368 523.936C221.257 520.673 220.402 518.033 219.803 516.015C219.584 515.299 219.396 514.616 219.237 513.967C219.079 513.317 219.007 512.865 219.02 512.609C219.05 512.034 219.27 511.501 219.681 511.01C220.091 510.519 220.711 510.295 221.542 510.338C222.054 510.365 222.525 510.55 222.955 510.893C223.389 511.172 223.657 511.571 223.758 512.089C224.29 514.167 225.054 516.707 226.05 519.707C227.05 522.643 228.167 525.778 229.403 529.111C230.638 532.445 231.903 535.811 233.199 539.212C234.498 542.548 235.744 545.69 236.935 548.636C238.13 551.519 239.185 554.009 240.1 556.108C241.516 553.555 243.182 550.502 245.099 546.949C247.018 543.333 248.947 539.557 250.883 535.621C252.884 531.688 254.752 527.844 256.487 524.09C258.285 520.339 259.741 517.019 260.854 514.129C261.294 513.062 262.122 512.561 263.336 512.625C263.975 512.658 264.505 512.942 264.926 513.477C265.349 513.948 265.543 514.535 265.506 515.238C265.496 515.43 265.38 515.808 265.158 516.373C265 516.942 264.666 517.821 264.155 519.012C263.21 521.142 261.985 523.737 260.478 526.799C259.036 529.863 257.422 533.143 255.637 536.639C253.915 540.137 252.165 543.57 250.386 546.938C248.608 550.306 246.974 553.36 245.484 556.102C243.995 558.844 242.791 561.024 241.873 562.642C241.446 563.453 240.721 563.831 239.698 563.778ZM341.616 523.168C338.571 521.342 334.652 520.304 329.859 520.052C326.024 519.851 322.428 520.592 319.072 522.275C315.779 523.961 313.055 526.414 310.899 529.633C308.747 532.789 307.556 536.572 307.325 540.982C307.114 545.008 307.786 548.696 309.34 552.046C310.899 555.332 313.257 558.02 316.416 560.108C319.642 562.135 323.556 563.27 328.158 563.511C330.459 563.632 332.612 563.52 334.616 563.177C336.685 562.836 338.54 562.293 340.181 561.546C340.511 561.371 340.868 561.293 341.251 561.313C341.954 561.35 342.518 561.604 342.942 562.075C343.365 562.546 343.559 563.132 343.522 563.836C343.469 564.858 342.984 565.538 342.07 565.874C340.099 566.796 337.917 567.451 335.526 567.838C333.131 568.29 330.591 568.445 327.907 568.304C322.283 568.01 317.518 566.606 313.612 564.094C309.77 561.586 306.898 558.295 304.997 554.222C303.095 550.149 302.273 545.652 302.531 540.731C302.813 535.362 304.273 530.728 306.913 526.829C309.552 522.93 312.912 519.965 316.992 517.936C321.072 515.907 325.445 515.014 330.11 515.259C335.862 515.56 340.538 516.831 344.138 519.07C344.942 519.625 345.321 520.35 345.274 521.245C345.243 521.82 344.991 522.352 344.517 522.839C344.043 523.327 343.454 523.553 342.751 523.516C342.368 523.496 341.989 523.38 341.616 523.168ZM387.717 570.574C387.078 570.54 386.515 570.286 386.027 569.812C385.606 569.277 385.413 568.691 385.446 568.051L386.451 548.878C386.659 544.915 386.041 542.031 384.597 540.225C383.221 538.358 381.255 537.358 378.698 537.224C376.014 537.083 373.419 537.684 370.913 539.027C368.411 540.306 366.083 541.914 363.931 543.852L362.725 566.861C362.692 567.5 362.438 568.063 361.964 568.551C361.493 568.975 360.906 569.169 360.203 569.132C359.564 569.098 359 568.844 358.512 568.37C358.092 567.836 357.898 567.249 357.932 566.609L360.499 517.621C360.536 516.918 360.79 516.354 361.261 515.93C361.795 515.51 362.382 515.316 363.021 515.35C363.725 515.386 364.288 515.64 364.712 516.111C365.136 516.582 365.329 517.169 365.293 517.872L364.263 537.525C366.523 535.977 368.864 534.722 371.285 533.759C373.71 532.733 376.265 532.29 378.949 532.431C381.378 532.558 383.558 533.153 385.489 534.215C387.42 535.278 388.899 537.022 389.925 539.447C391.019 541.811 391.459 545.039 391.244 549.129L390.239 568.303C390.206 568.942 389.952 569.505 389.478 569.993C389.007 570.417 388.42 570.611 387.717 570.574ZM432.636 572.063C431.306 570.519 430.317 568.609 429.667 566.331C427.387 568.263 424.907 569.735 422.226 570.748C419.613 571.701 416.804 572.098 413.8 571.941C410.86 571.787 408.556 571.121 406.887 569.944C405.218 568.767 404.074 567.361 403.455 565.727C402.836 564.092 402.563 562.572 402.637 561.166C402.717 559.632 403.05 558.175 403.635 556.796C404.287 555.356 405.217 554.123 406.424 553.097C408.099 551.711 410.305 550.577 413.043 549.695C415.781 548.813 419.099 548.474 422.998 548.678C425.043 548.785 427.211 548.995 429.502 549.307C429.397 546.418 428.557 544.099 426.983 542.35C425.412 540.537 422.964 539.544 419.641 539.37C418.362 539.303 417.046 539.362 415.69 539.547C414.338 539.669 413.303 539.839 412.587 540.057C411.739 540.334 411.124 540.461 410.74 540.441C410.101 540.408 409.538 540.154 409.05 539.68C408.565 539.142 408.338 538.585 408.368 538.01C408.432 536.796 409.017 536.025 410.124 535.699C411.227 535.436 412.684 535.16 414.493 534.87C416.367 534.584 418.166 534.486 419.892 534.576C425.133 534.851 428.892 536.49 431.17 539.493C433.512 542.5 434.562 546.304 434.321 550.906L433.864 559.63C433.75 561.803 433.878 563.636 434.249 565.13C434.686 566.562 435.356 567.847 436.258 568.984C436.682 569.455 436.877 570.01 436.843 570.649C436.81 571.288 436.524 571.85 435.986 572.334C435.515 572.758 434.96 572.953 434.321 572.92C433.682 572.887 433.12 572.601 432.636 572.063ZM414.051 567.147C416.8 567.291 419.452 566.821 422.008 565.738C424.568 564.59 426.905 562.79 429.02 560.337L429.347 554.106C426.992 553.79 424.792 553.579 422.747 553.472C416.675 553.153 412.328 554.175 409.705 556.537C408.897 557.264 408.312 558.034 407.949 558.849C407.65 559.666 407.477 560.522 407.43 561.417C407.363 562.695 407.843 563.938 408.869 565.145C409.959 566.356 411.687 567.023 414.051 567.147ZM451.016 573.891C450.377 573.858 449.813 573.604 449.325 573.13C448.905 572.595 448.711 572.008 448.745 571.369L450.463 538.582C450.5 537.879 450.754 537.315 451.224 536.891C451.759 536.471 452.346 536.277 452.985 536.311C453.688 536.347 454.252 536.601 454.676 537.072C455.1 537.543 455.293 538.13 455.256 538.833L454.96 544.489C457.59 541.999 460.346 540.157 463.229 538.962C466.111 537.768 468.862 537.239 471.483 537.376C472.186 537.413 472.717 537.665 473.077 538.133C473.505 538.54 473.702 539.063 473.668 539.702C473.591 541.172 472.845 541.966 471.428 542.084C467.698 542.337 464.504 543.355 461.847 545.139C459.19 546.922 456.759 549.294 454.553 552.255L453.538 571.62C453.505 572.259 453.251 572.823 452.777 573.31C452.306 573.734 451.719 573.928 451.016 573.891ZM486.829 593.168C486.19 593.134 485.628 592.849 485.144 592.31C484.72 591.84 484.525 591.285 484.558 590.646C484.592 590.006 484.845 589.443 485.32 588.955C485.854 588.534 486.441 588.341 487.08 588.374C493.919 588.733 498.998 587.205 502.317 583.79C505.697 580.442 507.539 575.86 507.844 570.044L507.864 569.66C505.651 571.531 503.272 572.913 500.726 573.805C498.179 574.697 495.596 575.074 492.976 574.937C490.355 574.799 487.829 574.09 485.397 572.809C483.028 571.531 481.111 569.604 479.643 567.028C478.24 564.455 477.641 561.219 477.845 557.32C478.056 553.294 479.165 549.859 481.173 547.017C483.18 544.174 485.696 542.03 488.72 540.587C491.807 539.146 494.949 538.51 498.145 538.677C500.381 538.795 502.353 539.09 504.058 539.564C505.828 540.041 507.589 540.678 509.341 541.475C509.506 540.779 509.822 540.251 510.29 539.891C510.757 539.531 511.279 539.366 511.854 539.396C512.557 539.433 513.12 539.686 513.544 540.157C513.968 540.628 514.162 541.215 514.125 541.918L512.638 570.295C512.256 577.581 510 583.327 505.87 587.533C501.74 591.738 495.393 593.617 486.829 593.168ZM493.227 570.143C495.975 570.287 498.664 569.723 501.295 568.451C503.928 567.115 506.244 565.121 508.241 562.47L509.065 546.748C507.131 545.749 505.344 544.983 503.706 544.448C502.068 543.914 500.13 543.588 497.893 543.471C495.465 543.343 493.1 543.828 490.799 544.925C488.499 546.023 486.587 547.653 485.064 549.816C483.604 551.983 482.796 554.568 482.638 557.572C482.494 560.32 482.919 562.617 483.911 564.464C484.904 566.31 486.242 567.694 487.924 568.615C489.606 569.537 491.374 570.046 493.227 570.143ZM545.541 578.845C539.405 578.523 534.535 576.666 530.932 573.273C527.393 569.883 525.775 565.28 526.08 559.464C526.285 555.565 527.293 552.221 529.105 549.432C530.918 546.643 533.24 544.522 536.072 543.068C538.968 541.618 542.109 540.981 545.497 541.159C548.884 541.336 551.693 542.157 553.924 543.619C556.154 545.082 557.793 546.834 558.839 548.876C559.95 550.921 560.455 552.902 560.354 554.819C560.234 557.12 559.395 559.063 557.838 560.648C556.345 562.236 553.617 562.926 549.654 562.718L530.864 561.733C531.174 565.595 532.685 568.558 535.397 570.623C538.173 572.691 541.637 573.834 545.792 574.051C547.39 574.135 548.834 574.083 550.126 573.894C551.481 573.709 552.517 573.507 553.234 573.288C553.95 573.069 554.406 572.933 554.601 572.879C554.86 572.828 555.054 572.807 555.181 572.813C555.821 572.847 556.35 573.131 556.771 573.666C557.259 574.14 557.486 574.696 557.453 575.336C557.396 576.422 556.846 577.13 555.803 577.46C554.434 577.901 552.845 578.266 551.035 578.556C549.226 578.846 547.394 578.942 545.541 578.845ZM545.246 545.952C541.858 545.775 538.861 546.707 536.255 548.75C533.652 550.728 531.97 553.46 531.211 556.945L550.001 557.93C553.644 558.121 555.529 557.002 555.657 554.573C555.761 552.592 554.865 550.718 552.971 548.953C551.08 547.123 548.505 546.123 545.246 545.952ZM575.064 580.392C574.425 580.359 573.862 580.105 573.374 579.631C572.953 579.096 572.76 578.509 572.793 577.87L574.511 545.083C574.548 544.38 574.802 543.816 575.273 543.392C575.808 542.972 576.395 542.778 577.034 542.812C577.737 542.849 578.3 543.102 578.724 543.573C579.148 544.044 579.342 544.631 579.305 545.334L579.008 550.99C581.638 548.501 584.395 546.658 587.277 545.463C590.16 544.269 592.911 543.74 595.531 543.877C596.234 543.914 596.766 544.166 597.126 544.634C597.553 545.041 597.75 545.564 597.717 546.203C597.64 547.673 596.893 548.467 595.477 548.585C591.747 548.838 588.553 549.856 585.896 551.64C583.239 553.423 580.807 555.795 578.601 558.756L577.587 578.121C577.553 578.76 577.299 579.324 576.825 579.812C576.354 580.235 575.767 580.429 575.064 580.392ZM629.537 551.139C628.908 550.914 627.802 550.631 626.217 550.292C624.697 549.956 623.01 549.739 621.156 549.642C618.025 549.478 615.567 549.894 613.785 550.89C612.002 551.886 611.069 553.183 610.985 554.781C610.912 556.187 611.554 557.374 612.914 558.343C614.34 559.251 616.707 559.952 620.013 560.445L623.828 561.03C627.071 561.52 629.589 562.389 631.382 563.637C633.175 564.884 634.413 566.327 635.096 567.965C635.783 569.539 636.081 571.189 635.991 572.915C635.9 574.64 635.362 576.342 634.377 578.021C633.395 579.636 631.756 580.96 629.459 581.993C627.229 582.966 624.068 583.345 619.978 583.131C617.613 583.007 615.196 582.656 612.727 582.078C610.261 581.436 607.935 580.577 605.748 579.501C604.813 579.003 604.374 578.211 604.431 577.125C604.461 576.549 604.744 576.052 605.278 575.631C605.816 575.146 606.405 574.921 607.044 574.954C607.172 574.961 607.392 575.037 607.705 575.181C608.018 575.326 608.582 575.58 609.396 575.943C610.587 576.454 612.163 576.953 614.124 577.44C616.085 577.928 618.12 578.227 620.229 578.337C623.68 578.518 626.331 578.08 628.181 577.023C630.098 575.906 631.103 574.453 631.197 572.663C631.284 571.002 630.719 569.562 629.501 568.345C628.286 567.063 626.184 566.216 623.193 565.803L619.379 565.219C615.628 564.638 612.789 563.784 610.861 562.657C608.937 561.467 607.66 560.15 607.03 558.707C606.401 557.265 606.123 555.84 606.197 554.434C606.281 552.836 606.778 551.292 607.689 549.802C608.668 548.251 610.24 546.987 612.406 546.011C614.636 545.039 617.637 544.651 621.407 544.849C623.58 544.963 625.585 545.228 627.422 545.645C629.326 546.001 631.001 546.441 632.448 546.966C632.956 547.056 633.356 547.366 633.649 547.894C633.945 548.358 634.08 548.846 634.053 549.357C634.016 550.06 633.73 550.622 633.195 551.042C632.725 551.466 632.17 551.661 631.531 551.628C631.147 551.608 630.483 551.445 629.537 551.139Z" fill="#F4F1EB"/>
</svg>
