<svg width="448" height="64" viewBox="0 0 448 64" fill="none" xmlns="http://www.w3.org/2000/svg">
<path d="M447.166 55.8073C447.55 55.41 447.539 54.7769 447.142 54.3933L440.668 48.1413C440.27 47.7577 439.637 47.7687 439.254 48.166C438.87 48.5633 438.881 49.1964 439.278 49.58L445.033 55.1373L439.476 60.892C439.092 61.2893 439.103 61.9224 439.5 62.306C439.898 62.6897 440.531 62.6786 440.914 62.2813L447.166 55.8073ZM1.53112 63.8788L446.464 56.1125L446.43 54.1128L1.49622 61.8791L1.53112 63.8788Z" fill="#BC5959"/>
<path d="M89.0899 43.3476C88.7699 43.3531 88.48 43.2462 88.2201 43.0267C87.9917 42.7746 87.8747 42.4886 87.8691 42.1687L87.4628 18.8922C87.4572 18.5723 87.5485 18.2986 87.7365 18.0713C87.956 17.8115 88.2097 17.679 88.4977 17.674L101.936 17.4394C102.288 17.4333 102.578 17.5402 102.805 17.7603C103.033 17.9803 103.15 18.2663 103.156 18.6183C103.162 18.9382 103.055 19.2282 102.836 19.488C102.615 19.7159 102.329 19.8329 101.978 19.8391L89.8834 20.0502L90.0291 28.4009L100.06 28.2258C100.412 28.2197 100.701 28.3266 100.929 28.5467C101.157 28.7667 101.274 29.0527 101.28 29.4047C101.286 29.7246 101.179 30.0145 100.96 30.2744C100.739 30.5023 100.453 30.6193 100.102 30.6254L90.071 30.8005L90.2478 40.927L102.438 40.7142C102.79 40.7081 103.08 40.815 103.308 41.0351C103.536 41.2551 103.653 41.5411 103.659 41.8931C103.664 42.213 103.557 42.5029 103.338 42.7628C103.118 42.9907 102.832 43.1077 102.48 43.1138L89.0899 43.3476ZM120.644 43.2768C120.164 43.2852 119.759 42.9883 119.428 42.3859C119.032 41.6567 118.485 40.5941 117.788 39.1981C117.091 37.77 116.312 36.1834 115.449 34.4382C114.618 32.6604 113.77 30.8669 112.907 29.0577C112.075 27.248 111.31 25.5651 110.61 24.009C109.942 22.4204 109.424 21.1333 109.055 20.1476C108.921 19.7979 108.803 19.4639 108.701 19.1456C108.6 18.8273 108.548 18.6042 108.545 18.4762C108.54 18.1883 108.632 17.9146 108.819 17.6553C109.007 17.396 109.308 17.2627 109.724 17.2555C109.98 17.251 110.222 17.3268 110.448 17.4829C110.675 17.6069 110.822 17.7964 110.89 18.0512C111.228 19.0695 111.698 20.3095 112.299 21.7712C112.901 23.2009 113.567 24.7255 114.3 26.345C115.032 27.9645 115.781 29.5996 116.546 31.2505C117.31 32.8695 118.041 34.3929 118.738 35.821C119.434 37.217 120.047 38.4225 120.577 39.4374C121.194 38.1145 121.919 36.5336 122.751 34.6948C123.582 32.824 124.412 30.8732 125.241 28.8424C126.102 26.8111 126.899 24.8289 127.633 22.8958C128.4 20.9621 129.01 19.2552 129.464 17.775C129.647 17.2278 130.042 16.9488 130.65 16.9382C130.97 16.9326 131.244 17.0559 131.472 17.3079C131.7 17.528 131.817 17.814 131.824 18.1659C131.825 18.2619 131.781 18.4547 131.69 18.7443C131.631 19.0334 131.494 19.4839 131.281 20.0957C130.884 21.1908 130.363 22.5281 129.719 24.1076C129.106 25.6865 128.416 27.3788 127.647 29.1845C126.911 30.9896 126.157 32.763 125.388 34.5047C124.618 36.2464 123.909 37.827 123.262 39.2465C122.615 40.6661 122.09 41.7954 121.689 42.6345C121.504 43.0538 121.156 43.2679 120.644 43.2768ZM170.062 19.4668C168.48 18.6622 166.489 18.2809 164.089 18.3228C162.17 18.3563 160.402 18.8513 158.787 19.8076C157.203 20.7634 155.93 22.0818 154.967 23.7629C154.004 25.4119 153.541 27.3403 153.58 29.548C153.615 31.5636 154.079 33.3798 154.971 34.9965C155.863 36.5812 157.133 37.8392 158.781 38.7706C160.461 39.6694 162.453 40.0987 164.757 40.0585C165.909 40.0384 166.979 39.9077 167.967 39.6664C168.986 39.4246 169.893 39.0887 170.685 38.6588C170.844 38.56 171.019 38.509 171.211 38.5056C171.563 38.4995 171.853 38.6064 172.08 38.8265C172.308 39.0465 172.425 39.3325 172.431 39.6845C172.44 40.1964 172.223 40.5523 171.778 40.7521C170.827 41.2807 169.762 41.6834 168.583 41.96C167.404 42.2686 166.143 42.4347 164.799 42.4581C161.983 42.5073 159.557 41.9735 157.522 40.8569C155.518 39.7397 153.971 38.1984 152.88 36.2332C151.79 34.2679 151.223 32.0535 151.18 29.5898C151.133 26.9022 151.7 24.54 152.881 22.5031C154.061 20.4662 155.634 18.8705 157.598 17.716C159.562 16.5616 161.712 15.964 164.048 15.9232C166.927 15.8729 169.304 16.3435 171.177 17.335C171.598 17.5837 171.812 17.932 171.82 18.3799C171.825 18.6679 171.717 18.9418 171.498 19.2017C171.278 19.4615 170.993 19.5945 170.641 19.6007C170.449 19.604 170.256 19.5594 170.062 19.4668ZM200.037 41.411C199.717 41.4165 199.427 41.3096 199.168 41.0901C198.939 40.838 198.822 40.552 198.817 40.2321L198.62 28.9538L182.542 29.2344L182.739 40.5127C182.745 40.8327 182.638 41.1226 182.418 41.3825C182.198 41.6103 181.912 41.7273 181.56 41.7335C181.24 41.7391 180.95 41.6321 180.69 41.4126C180.462 41.1606 180.345 40.8746 180.339 40.5546L179.933 17.2782C179.927 16.9262 180.034 16.6363 180.254 16.4084C180.506 16.18 180.792 16.063 181.112 16.0574C181.464 16.0512 181.754 16.1582 181.982 16.3783C182.21 16.5983 182.327 16.8843 182.333 17.2363L182.5 26.8348L198.578 26.5542L198.41 16.9556C198.404 16.6037 198.511 16.3138 198.731 16.0859C198.983 15.8575 199.269 15.7405 199.589 15.7349C199.941 15.7287 200.231 15.8357 200.459 16.0557C200.687 16.2758 200.804 16.5618 200.81 16.9137L201.216 40.1902C201.222 40.5102 201.115 40.8001 200.895 41.0599C200.675 41.2878 200.389 41.4048 200.037 41.411ZM230.17 40.885C229.626 40.8945 229.254 40.6449 229.053 40.1364C228.718 39.2781 228.317 38.3249 227.851 37.2769C227.384 36.2289 226.885 35.1334 226.353 33.9906L212.819 34.2268C212.391 35.3864 211.979 36.4978 211.581 37.5609C211.215 38.5915 210.88 39.5415 210.575 40.4109C210.483 40.6685 210.327 40.8793 210.106 41.0432C209.884 41.1751 209.645 41.2433 209.389 41.2477C209.101 41.2528 208.827 41.1455 208.567 40.926C208.339 40.674 208.222 40.372 208.216 40.02C208.214 39.924 208.228 39.7958 208.257 39.6352C208.317 39.4422 208.455 39.0717 208.67 38.5239C209.188 37.0746 209.799 35.4157 210.503 33.5471C211.238 31.678 212.021 29.728 212.849 27.6973C213.678 25.6665 214.522 23.6195 215.382 21.5561C216.243 19.4928 217.073 17.542 217.873 15.7038C218.088 15.2199 218.468 14.9733 219.012 14.9638L219.204 14.9604C219.78 14.9504 220.168 15.1676 220.367 15.6122C221.264 17.4529 222.21 19.4366 223.208 21.5636C224.237 23.6899 225.234 25.8008 226.199 27.8963C227.163 29.9598 228.045 31.8967 228.845 33.707C229.644 35.4854 230.294 36.9622 230.794 38.1377C231.06 38.7091 231.211 39.0906 231.246 39.282C231.314 39.4728 231.348 39.6002 231.349 39.6642C231.354 39.9842 231.231 40.2744 230.98 40.5348C230.76 40.7627 230.49 40.8794 230.17 40.885ZM225.303 31.6085C224.338 29.481 223.324 27.3064 222.261 25.0846C221.198 22.8628 220.169 20.7525 219.174 18.7535C218.314 20.8169 217.408 22.977 216.455 25.234C215.533 27.4584 214.644 29.6503 213.785 31.8096L225.303 31.6085ZM256.042 40.4334C255.69 40.4395 255.383 40.3009 255.122 40.0174L247.14 31.0353L240.709 31.1476L240.855 39.4983C240.861 39.8183 240.754 40.1082 240.534 40.368C240.314 40.5959 240.028 40.7129 239.676 40.7191C239.356 40.7246 239.066 40.6177 238.807 40.3982C238.578 40.1461 238.461 39.8601 238.456 39.5402L238.049 16.2637C238.043 15.9118 238.15 15.6219 238.37 15.394C238.622 15.1656 238.908 15.0486 239.228 15.043L246.283 14.9198C248.171 14.8869 249.793 15.2106 251.149 15.8911C252.537 16.5709 253.609 17.5124 254.367 18.7153C255.155 19.8857 255.563 21.2548 255.59 22.8226C255.621 24.5503 255.168 26.1265 254.233 27.551C253.329 28.975 251.891 29.9763 249.916 30.5548L256.919 38.4498C257.115 38.6384 257.215 38.8927 257.221 39.2126C257.226 39.5006 257.118 39.7745 256.899 40.0344C256.679 40.2942 256.394 40.4273 256.042 40.4334ZM240.47 17.4217L240.668 28.7479L246.523 28.6457C248.73 28.6072 250.401 28.034 251.533 26.926C252.666 25.7861 253.218 24.4322 253.191 22.8645C253.161 21.1687 252.498 19.8201 251.2 18.8186C249.934 17.7846 248.309 17.2848 246.325 17.3195L240.47 17.4217ZM285.084 37.8142C283.913 38.5707 282.579 39.2021 281.084 39.7082C279.621 40.2139 277.897 40.484 275.913 40.5186C273.162 40.5666 270.8 40.0318 268.828 38.914C266.888 37.7637 265.389 36.2056 264.33 34.2398C263.272 32.274 262.721 30.0753 262.679 27.6436C262.632 24.956 263.151 22.5946 264.235 20.5594C265.352 18.5236 266.892 16.9284 268.857 15.774C270.821 14.6195 273.067 14.0203 275.594 13.9761C277.002 13.9516 278.316 14.0726 279.537 14.3394C280.789 14.5736 281.963 14.8731 283.057 15.2381C283.573 15.4211 283.835 15.7846 283.844 16.3285C283.85 16.6485 283.743 16.9384 283.524 17.1982C283.336 17.4256 283.05 17.5426 282.666 17.5493C282.57 17.5509 282.425 17.5215 282.232 17.4608C281.298 17.1251 280.285 16.8547 279.193 16.6497C278.102 16.4447 276.916 16.3534 275.636 16.3758C273.556 16.4121 271.709 16.9084 270.093 17.8647C268.51 18.8205 267.268 20.1384 266.37 21.8183C265.47 23.4663 265.04 25.3941 265.078 27.6017C265.113 29.5854 265.56 31.3859 266.421 33.0031C267.281 34.5884 268.503 35.8472 270.087 36.7797C271.704 37.7116 273.632 38.1581 275.872 38.119C277.439 38.0916 278.812 37.9076 279.991 37.567C281.2 37.1938 282.296 36.7266 283.279 36.1654L283.157 29.2065L276.486 29.3229C276.166 29.3285 275.876 29.2215 275.616 29.002C275.388 28.75 275.271 28.464 275.265 28.144C275.259 27.7921 275.366 27.5022 275.586 27.2743C275.838 27.0459 276.124 26.9289 276.444 26.9233L283.787 26.7951C284.395 26.7845 284.829 26.8729 285.088 27.0604C285.379 27.2154 285.528 27.5168 285.536 27.9648L285.687 36.6034C285.696 37.1474 285.495 37.5509 285.084 37.8142ZM295.543 39.7439C295.223 39.7495 294.933 39.6425 294.673 39.423C294.445 39.171 294.328 38.885 294.322 38.565L293.916 15.2886C293.91 14.9686 294.001 14.695 294.189 14.4677C294.409 14.2078 294.663 14.0754 294.951 14.0703L308.389 13.8358C308.741 13.8296 309.03 13.9366 309.258 14.1566C309.486 14.3767 309.603 14.6627 309.609 15.0146C309.615 15.3346 309.508 15.6245 309.288 15.8844C309.068 16.1123 308.782 16.2293 308.43 16.2354L296.336 16.4465L296.482 24.7972L306.513 24.6222C306.864 24.616 307.154 24.723 307.382 24.943C307.61 25.1631 307.727 25.4491 307.733 25.801C307.739 26.121 307.632 26.4109 307.412 26.6708C307.192 26.8986 306.906 27.0156 306.554 27.0218L296.524 27.1969L296.701 37.3233L308.891 37.1106C309.243 37.1044 309.533 37.2114 309.761 37.4314C309.988 37.6515 310.105 37.9375 310.112 38.2894C310.117 38.6094 310.01 38.8993 309.791 39.1592C309.571 39.387 309.285 39.504 308.933 39.5102L295.543 39.7439ZM335.295 39.05C334.943 39.0562 334.637 38.9175 334.376 38.634L326.394 29.6519L319.963 29.7642L320.109 38.1149C320.114 38.4349 320.007 38.7248 319.788 38.9847C319.568 39.2125 319.282 39.3295 318.93 39.3357C318.61 39.3413 318.32 39.2343 318.06 39.0148C317.832 38.7628 317.715 38.4768 317.709 38.1568L317.303 14.8804C317.297 14.5284 317.404 14.2385 317.624 14.0106C317.876 13.7822 318.162 13.6652 318.482 13.6596L325.537 13.5365C327.424 13.5035 329.046 13.8272 330.402 14.5077C331.79 15.1876 332.863 16.129 333.62 17.332C334.409 18.5024 334.817 19.8715 334.844 21.4392C334.874 23.167 334.422 24.7431 333.486 26.1676C332.583 27.5916 331.144 28.5929 329.17 29.1714L336.173 37.0664C336.368 37.255 336.469 37.5093 336.474 37.8293C336.479 38.1172 336.372 38.3911 336.153 38.651C335.933 38.9109 335.647 39.0439 335.295 39.05ZM319.723 16.0383L319.921 27.3646L325.776 27.2624C327.984 27.2238 329.654 26.6506 330.787 25.5426C331.919 24.4027 332.472 23.0489 332.444 21.4811C332.415 19.7854 331.751 18.4367 330.453 17.4352C329.187 16.4012 327.562 15.9015 325.578 15.9361L319.723 16.0383ZM356.59 16.1629C355.817 15.8563 354.964 15.6152 354.033 15.4394C353.134 15.2631 351.949 15.1877 350.477 15.2134C348.845 15.2419 347.556 15.6805 346.611 16.5291C345.665 17.3457 345.201 18.266 345.219 19.2898C345.237 20.3137 345.701 21.2337 346.612 22.0499C347.522 22.8662 349.278 23.5556 351.88 24.1183C354.193 24.59 355.98 25.2149 357.242 25.993C358.536 26.7706 359.447 27.6668 359.977 28.6817C360.507 29.6646 360.782 30.764 360.803 31.9798C360.824 33.1636 360.54 34.3047 359.951 35.4032C359.393 36.4691 358.449 37.3657 357.117 38.093C355.817 38.7878 354.063 39.1545 351.855 39.193C348.72 39.2478 345.812 38.5624 343.13 37.137C342.71 36.8883 342.496 36.54 342.488 36.092C342.483 35.8041 342.59 35.5302 342.81 35.2703C343.029 35.0104 343.315 34.8774 343.667 34.8713C343.859 34.8679 344.052 34.9126 344.245 35.0052C346.539 36.2454 349.062 36.8414 351.814 36.7934C353.989 36.7554 355.629 36.2787 356.733 35.3633C357.869 34.4154 358.426 33.3015 358.403 32.0217C358.38 30.6779 357.816 29.5675 356.713 28.6907C355.641 27.8132 353.885 27.0918 351.442 26.5263C349.161 25.9901 347.389 25.3649 346.129 24.6508C344.9 23.9361 344.038 23.119 343.542 22.1995C343.078 21.2795 342.836 20.2596 342.816 19.1397C342.798 18.1159 343.069 17.135 343.629 16.1971C344.22 15.2266 345.086 14.4274 346.227 13.7994C347.369 13.1714 348.771 12.8428 350.435 12.8138C352.195 12.7831 353.605 12.9025 354.666 13.172C355.758 13.409 356.9 13.7571 358.093 14.2164C358.608 14.3994 358.87 14.7629 358.88 15.3068C358.885 15.6268 358.762 15.9169 358.511 16.1774C358.291 16.4052 358.021 16.522 357.701 16.5276C357.637 16.5287 357.541 16.5144 357.412 16.4846C357.283 16.4228 357.009 16.3156 356.59 16.1629Z" fill="black" fill-opacity="0.6"/>
</svg>
