<svg width="996" height="983" viewBox="0 0 996 983" fill="none" xmlns="http://www.w3.org/2000/svg">
<path d="M637.98 353.571C790.304 434.379 790.304 652.621 637.98 733.429L424.507 846.676C281.31 922.642 108.75 818.846 108.75 656.747L108.75 430.253C108.75 268.154 281.31 164.358 424.507 240.324L637.98 353.571Z" fill="#2C713E" fill-opacity="0.66"/>
<path d="M195.398 557.313C192.956 558.659 190.208 559.733 187.154 560.534C184.164 561.339 180.688 561.637 176.725 561.429C171.229 561.141 166.591 559.745 162.813 557.24C159.103 554.674 156.328 551.356 154.491 547.286C152.653 543.217 151.862 538.753 152.116 533.896C152.398 528.527 153.762 523.888 156.21 519.979C158.722 516.073 162.018 513.106 166.098 511.076C170.178 509.047 174.742 508.165 179.791 508.429C182.603 508.577 185.209 509.002 187.607 509.704C190.073 510.346 192.372 511.107 194.505 511.988C195.508 512.425 195.98 513.187 195.923 514.274C195.89 514.913 195.636 515.476 195.162 515.964C194.755 516.391 194.168 516.585 193.401 516.545C193.209 516.535 192.925 516.456 192.548 516.308C190.732 515.508 188.749 514.827 186.599 514.266C184.45 513.704 182.096 513.357 179.54 513.223C175.386 513.005 171.63 513.737 168.274 515.42C164.981 517.106 162.321 519.562 160.293 522.789C158.269 525.951 157.141 529.737 156.91 534.147C156.702 538.11 157.344 541.764 158.835 545.111C160.329 548.393 162.592 551.076 165.623 553.157C168.718 555.242 172.503 556.402 176.976 556.636C180.108 556.8 182.873 556.625 185.271 556.109C187.737 555.534 189.989 554.754 192.027 553.772L192.755 539.871L179.43 539.172C178.791 539.139 178.227 538.885 177.739 538.411C177.319 537.876 177.125 537.289 177.159 536.65C177.195 535.947 177.449 535.384 177.92 534.96C178.455 534.539 179.042 534.346 179.681 534.379L194.349 535.148C195.563 535.211 196.416 535.448 196.907 535.859C197.466 536.208 197.721 536.831 197.674 537.725L196.77 554.982C196.713 556.068 196.256 556.845 195.398 557.313ZM214.75 562.557C214.111 562.524 213.547 562.27 213.06 561.796C212.639 561.261 212.445 560.674 212.479 560.035L214.197 527.248C214.234 526.545 214.488 525.981 214.959 525.557C215.493 525.137 216.08 524.943 216.72 524.977C217.423 525.013 217.986 525.267 218.41 525.738C218.834 526.209 219.027 526.796 218.991 527.499L218.694 533.155C221.324 530.665 224.08 528.823 226.963 527.628C229.845 526.434 232.597 525.905 235.217 526.042C235.92 526.079 236.452 526.331 236.812 526.799C237.239 527.206 237.436 527.729 237.402 528.368C237.325 529.838 236.579 530.632 235.163 530.75C231.432 531.003 228.239 532.021 225.582 533.805C222.925 535.588 220.493 537.96 218.287 540.921L217.272 560.286C217.239 560.925 216.985 561.489 216.511 561.976C216.04 562.4 215.453 562.594 214.75 562.557ZM261.06 564.984C254.924 564.663 250.055 562.805 246.451 559.412C242.912 556.022 241.295 551.419 241.599 545.603C241.804 541.704 242.812 538.361 244.625 535.572C246.437 532.783 248.759 530.661 251.591 529.207C254.487 527.757 257.629 527.121 261.016 527.298C264.403 527.476 267.212 528.296 269.443 529.759C271.673 531.221 273.312 532.973 274.358 535.015C275.469 537.06 275.974 539.041 275.873 540.958C275.753 543.259 274.914 545.202 273.357 546.787C271.864 548.375 269.136 549.065 265.173 548.857L246.383 547.872C246.693 551.734 248.204 554.697 250.916 556.762C253.692 558.83 257.157 559.973 261.311 560.191C262.909 560.274 264.353 560.222 265.645 560.033C267.001 559.848 268.037 559.646 268.753 559.427C269.47 559.208 269.925 559.072 270.12 559.018C270.379 558.968 270.573 558.946 270.701 558.952C271.34 558.986 271.87 559.27 272.29 559.805C272.778 560.279 273.005 560.836 272.972 561.475C272.915 562.561 272.365 563.269 271.322 563.599C269.953 564.04 268.364 564.406 266.554 564.695C264.745 564.985 262.913 565.081 261.06 564.984ZM260.765 532.092C257.377 531.914 254.381 532.846 251.774 534.889C249.171 536.867 247.49 539.599 246.73 543.084L265.52 544.069C269.163 544.26 271.049 543.141 271.176 540.712C271.28 538.731 270.385 536.858 268.49 535.092C266.6 533.263 264.024 532.262 260.765 532.092ZM305.624 567.32C299.488 566.998 294.619 565.141 291.015 561.747C287.476 558.357 285.858 553.755 286.163 547.939C286.368 544.04 287.376 540.696 289.188 537.907C291.001 535.118 293.323 532.997 296.155 531.543C299.051 530.093 302.192 529.456 305.58 529.634C308.967 529.811 311.776 530.631 314.007 532.094C316.237 533.557 317.876 535.309 318.922 537.35C320.033 539.395 320.538 541.377 320.437 543.294C320.317 545.595 319.478 547.538 317.921 549.122C316.428 550.71 313.7 551.4 309.737 551.193L290.947 550.208C291.257 554.07 292.768 557.033 295.48 559.097C298.256 561.166 301.72 562.308 305.875 562.526C307.473 562.61 308.917 562.557 310.209 562.369C311.565 562.183 312.601 561.981 313.317 561.763C314.033 561.544 314.489 561.407 314.684 561.354C314.943 561.303 315.137 561.281 315.264 561.288C315.904 561.321 316.433 561.605 316.854 562.14C317.342 562.614 317.569 563.171 317.536 563.81C317.479 564.897 316.929 565.605 315.886 565.935C314.517 566.376 312.928 566.741 311.118 567.031C309.309 567.32 307.477 567.417 305.624 567.32ZM305.329 534.427C301.941 534.25 298.944 535.182 296.338 537.224C293.735 539.203 292.054 541.935 291.294 545.42L310.084 546.404C313.727 546.595 315.612 545.476 315.74 543.048C315.844 541.066 314.948 539.193 313.054 537.427C311.163 535.598 308.588 534.598 305.329 534.427ZM362.662 570.309C362.022 570.275 361.459 570.021 360.971 569.547C360.551 569.013 360.357 568.426 360.39 567.786L361.395 548.613C361.603 544.65 360.985 541.766 359.542 539.96C358.165 538.093 356.199 537.093 353.643 536.959C350.958 536.818 348.363 537.419 345.858 538.762C343.355 540.041 341.028 541.649 338.875 543.587L337.67 566.596C337.636 567.235 337.382 567.798 336.908 568.286C336.437 568.71 335.85 568.904 335.147 568.867C334.508 568.833 333.945 568.579 333.457 568.105C333.036 567.571 332.843 566.984 332.876 566.345L334.594 533.557C334.631 532.854 334.885 532.291 335.356 531.867C335.891 531.446 336.478 531.253 337.117 531.286C337.82 531.323 338.383 531.577 338.807 532.048C339.231 532.519 339.425 533.106 339.388 533.809L339.207 537.26C341.471 535.648 343.813 534.361 346.235 533.398C348.656 532.436 351.209 532.025 353.894 532.166C356.322 532.293 358.502 532.888 360.433 533.95C362.364 535.013 363.843 536.757 364.87 539.182C365.963 541.546 366.403 544.774 366.189 548.864L365.184 568.038C365.15 568.677 364.897 569.24 364.422 569.728C363.952 570.152 363.365 570.346 362.662 570.309ZM411.665 572.877C411.026 572.843 410.463 572.59 409.975 572.115C409.554 571.581 409.361 570.994 409.394 570.355L411.831 523.858C411.864 523.219 412.085 522.686 412.492 522.259C412.966 521.771 413.49 521.542 414.066 521.572L440.909 522.979C441.612 523.016 442.175 523.27 442.599 523.741C443.023 524.211 443.217 524.798 443.18 525.501C443.146 526.141 442.893 526.704 442.418 527.192C441.948 527.616 441.361 527.809 440.658 527.772L416.499 526.506L415.625 543.187L435.661 544.238C436.364 544.274 436.928 544.528 437.352 544.999C437.775 545.47 437.969 546.057 437.932 546.76C437.899 547.399 437.645 547.962 437.171 548.45C436.7 548.874 436.113 549.068 435.41 549.031L415.373 547.981L414.313 568.209L438.664 569.485C439.367 569.522 439.93 569.776 440.354 570.247C440.778 570.718 440.972 571.305 440.935 572.008C440.901 572.647 440.648 573.21 440.173 573.698C439.703 574.122 439.116 574.316 438.413 574.279L411.665 572.877ZM484.65 576.702C484.011 576.668 483.448 576.415 482.96 575.94C482.539 575.406 482.346 574.819 482.379 574.18L483.384 555.006C483.592 551.043 482.974 548.159 481.53 546.353C480.154 544.486 478.188 543.486 475.631 543.352C472.947 543.212 470.352 543.813 467.846 545.155C465.344 546.434 463.017 548.042 460.864 549.98L459.658 572.989C459.625 573.628 459.371 574.191 458.897 574.679C458.426 575.103 457.839 575.297 457.136 575.26C456.497 575.226 455.934 574.973 455.446 574.498C455.025 573.964 454.832 573.377 454.865 572.738L456.583 539.951C456.62 539.248 456.874 538.684 457.345 538.26C457.88 537.84 458.467 537.646 459.106 537.68C459.809 537.716 460.372 537.97 460.796 538.441C461.22 538.912 461.414 539.499 461.377 540.202L461.196 543.653C463.459 542.041 465.802 540.754 468.224 539.792C470.645 538.829 473.198 538.418 475.883 538.559C478.311 538.686 480.491 539.281 482.422 540.344C484.353 541.406 485.832 543.15 486.858 545.575C487.952 547.939 488.392 551.167 488.178 555.257L487.173 574.431C487.139 575.07 486.885 575.633 486.411 576.121C485.94 576.545 485.353 576.739 484.65 576.702ZM519.362 578.521C513.226 578.2 508.356 576.342 504.753 572.949C501.214 569.559 499.596 564.956 499.901 559.14C500.105 555.241 501.114 551.898 502.926 549.109C504.739 546.32 507.061 544.198 509.893 542.744C512.789 541.294 515.93 540.658 519.318 540.835C522.705 541.013 525.514 541.833 527.745 543.296C529.975 544.758 531.614 546.51 532.66 548.552C533.771 550.597 534.276 552.578 534.175 554.495C534.055 556.796 533.216 558.739 531.659 560.324C530.166 561.912 527.438 562.602 523.475 562.394L504.685 561.41C504.995 565.271 506.506 568.234 509.218 570.299C511.993 572.367 515.458 573.51 519.613 573.728C521.211 573.811 522.655 573.759 523.947 573.57C525.302 573.385 526.338 573.183 527.055 572.964C527.771 572.745 528.227 572.609 528.422 572.555C528.681 572.505 528.875 572.483 529.002 572.489C529.642 572.523 530.171 572.807 530.592 573.342C531.08 573.816 531.307 574.373 531.274 575.012C531.217 576.098 530.667 576.806 529.624 577.136C528.255 577.577 526.666 577.943 524.856 578.232C523.047 578.522 521.215 578.618 519.362 578.521ZM519.067 545.629C515.679 545.451 512.682 546.383 510.076 548.426C507.473 550.404 505.791 553.136 505.032 556.621L523.822 557.606C527.465 557.797 529.35 556.678 529.478 554.249C529.581 552.268 528.686 550.395 526.792 548.629C524.901 546.8 522.326 545.799 519.067 545.629ZM548.885 580.068C548.246 580.035 547.683 579.781 547.195 579.307C546.774 578.772 546.581 578.185 546.614 577.546L548.332 544.759C548.369 544.056 548.623 543.493 549.094 543.069C549.629 542.648 550.216 542.454 550.855 542.488C551.558 542.525 552.121 542.779 552.545 543.249C552.969 543.72 553.163 544.307 553.126 545.01L552.829 550.666C555.459 548.177 558.216 546.334 561.098 545.14C563.98 543.945 566.732 543.416 569.352 543.553C570.055 543.59 570.587 543.842 570.947 544.31C571.374 544.717 571.571 545.24 571.538 545.879C571.461 547.349 570.714 548.143 569.298 548.261C565.568 548.514 562.374 549.532 559.717 551.316C557.06 553.099 554.628 555.471 552.422 558.432L551.408 577.797C551.374 578.436 551.12 579 550.646 579.488C550.175 579.912 549.588 580.105 548.885 580.068ZM584.699 599.345C584.06 599.312 583.498 599.026 583.013 598.488C582.589 598.017 582.394 597.462 582.428 596.823C582.461 596.184 582.715 595.62 583.189 595.132C583.724 594.712 584.311 594.518 584.95 594.552C591.789 594.91 596.867 593.382 600.187 589.967C603.567 586.619 605.409 582.037 605.714 576.221L605.734 575.838C603.521 577.709 601.141 579.09 598.595 579.982C596.049 580.874 593.466 581.251 590.845 581.114C588.225 580.976 585.699 580.267 583.266 578.986C580.898 577.709 578.98 575.782 577.513 573.205C576.11 570.632 575.51 567.396 575.715 563.498C575.926 559.471 577.035 556.037 579.042 553.194C581.05 550.351 583.565 548.208 586.589 546.764C589.677 545.324 592.818 544.687 596.014 544.855C598.251 544.972 600.222 545.267 601.928 545.741C603.697 546.219 605.458 546.856 607.211 547.652C607.376 546.956 607.692 546.428 608.159 546.068C608.627 545.708 609.148 545.543 609.723 545.573C610.426 545.61 610.99 545.864 611.414 546.335C611.838 546.805 612.031 547.392 611.994 548.095L610.507 576.472C610.125 583.758 607.869 589.504 603.74 593.71C599.61 597.916 593.263 599.794 584.699 599.345ZM591.096 576.32C593.845 576.464 596.534 575.9 599.164 574.628C601.798 573.292 604.113 571.299 606.111 568.648L606.935 552.925C605 551.927 603.214 551.16 601.576 550.626C599.937 550.091 598 549.765 595.763 549.648C593.334 549.521 590.97 550.006 588.669 551.103C586.368 552.2 584.456 553.83 582.933 555.993C581.474 558.16 580.665 560.745 580.508 563.749C580.364 566.497 580.788 568.795 581.781 570.641C582.774 572.488 584.111 573.871 585.793 574.793C587.475 575.714 589.243 576.223 591.096 576.32ZM623.554 600.708C622.979 600.678 622.415 600.425 621.863 599.947C621.376 599.473 621.148 598.916 621.182 598.277C621.232 597.318 621.686 596.605 622.544 596.137C625.308 594.744 627.994 593.026 630.6 590.984C633.204 589.005 635.788 586.161 638.354 582.45C636.126 578.488 633.77 573.91 631.287 568.717C628.867 563.528 626.777 558.163 625.016 552.623C624.582 551.126 624.281 550.149 624.113 549.692C624.012 549.174 623.968 548.787 623.981 548.531C624.008 548.02 624.258 547.52 624.733 547.033C625.207 546.545 625.763 546.318 626.403 546.351C626.914 546.378 627.385 546.563 627.816 546.906C628.25 547.185 628.549 547.585 628.714 548.106C630.626 554.423 632.703 560.044 634.944 564.968C637.185 569.892 639.299 574.2 641.284 577.893C642.962 575.225 644.622 572.3 646.262 569.118C647.967 565.939 649.547 562.689 651.003 559.368C652.526 555.987 653.817 552.755 654.876 549.67C655.256 548.536 656.053 548.001 657.267 548.065C657.97 548.102 658.532 548.387 658.953 548.922C659.377 549.393 659.572 549.948 659.538 550.587C659.528 550.779 659.375 551.251 659.079 552.005C658.848 552.762 658.621 553.423 658.399 553.988C657.357 556.753 656.005 559.919 654.344 563.485C652.687 566.987 650.898 570.546 648.978 574.163C647.125 577.719 645.259 580.921 643.379 583.771C640.316 588.417 637.247 591.941 634.174 594.344C631.1 596.746 627.916 598.79 624.623 600.476C624.358 600.654 624.001 600.732 623.554 600.708Z" fill="#F4F1EB"/>
</svg>
