<svg width="448" height="69" viewBox="0 0 448 69" fill="none" xmlns="http://www.w3.org/2000/svg">
<path d="M447.21 60.807C447.594 60.4097 447.583 59.7767 447.186 59.393L440.712 53.1411C440.314 52.7575 439.681 52.7685 439.298 53.1658C438.914 53.5631 438.925 54.1961 439.322 54.5798L445.077 60.137L439.52 65.8918C439.136 66.289 439.147 66.9221 439.544 67.3058C439.942 67.6894 440.575 67.6784 440.958 67.2811L447.21 60.807ZM1.57507 68.8786L446.508 61.1122L446.473 59.1125L1.54016 66.8789L1.57507 68.8786Z" fill="#2C713E"/>
<path d="M119.253 40.7085C118.082 41.4651 116.749 42.0964 115.254 42.6026C113.79 43.1082 112.067 43.3784 110.083 43.413C107.331 43.461 104.97 42.9261 102.998 41.8084C101.057 40.6581 99.5581 39.1 98.4996 37.1342C97.4411 35.1684 96.8907 32.9696 96.8482 30.538C96.8013 27.8504 97.3202 25.489 98.4048 23.4537C99.5215 21.418 101.062 19.8228 103.026 18.6684C104.99 17.5139 107.236 16.9146 109.764 16.8705C111.171 16.8459 112.486 16.967 113.707 17.2337C114.959 17.4679 116.132 17.7675 117.227 18.1324C117.742 18.3155 118.004 18.679 118.014 19.2229C118.02 19.5428 117.913 19.8327 117.693 20.0926C117.505 20.3199 117.219 20.4369 116.835 20.4436C116.739 20.4453 116.595 20.4158 116.401 20.3552C115.467 20.0194 114.455 19.7491 113.363 19.5441C112.271 19.3391 111.085 19.2478 109.806 19.2701C107.726 19.3064 105.878 19.8028 104.263 20.7591C102.679 21.7149 101.438 23.0328 100.539 24.7127C99.6398 26.3606 99.2093 28.2884 99.2479 30.4961C99.2825 32.4798 99.73 34.2803 100.59 35.8975C101.45 37.4827 102.672 38.7416 104.257 39.6741C105.873 40.606 107.801 41.0524 110.041 41.0133C111.609 40.986 112.982 40.802 114.16 40.4614C115.37 40.0882 116.466 39.621 117.448 39.0598L117.327 32.1008L110.656 32.2173C110.336 32.2229 110.046 32.1159 109.786 31.8964C109.557 31.6444 109.44 31.3584 109.435 31.0384C109.429 30.6865 109.536 30.3965 109.756 30.1687C110.008 29.9402 110.294 29.8232 110.614 29.8176L117.957 29.6895C118.565 29.6789 118.998 29.7673 119.257 29.9548C119.548 30.1098 119.697 30.4112 119.705 30.8591L119.856 39.4978C119.866 40.0417 119.665 40.4453 119.253 40.7085ZM129.088 42.6492C128.768 42.6548 128.479 42.5478 128.219 42.3283C127.99 42.0763 127.873 41.7902 127.868 41.4703L127.581 25.0568C127.575 24.7049 127.682 24.4149 127.902 24.1871C128.154 23.9586 128.44 23.8416 128.76 23.836C129.112 23.8299 129.402 23.9368 129.63 24.1569C129.858 24.377 129.975 24.663 129.981 25.0149L130.03 27.8465C131.255 26.5129 132.566 25.4979 133.962 24.8014C135.358 24.1049 136.712 23.7452 138.023 23.7223C138.375 23.7162 138.649 23.8234 138.845 24.0441C139.072 24.2321 139.189 24.4861 139.195 24.8061C139.207 25.542 138.863 25.964 138.16 26.0723C136.309 26.3287 134.751 26.9479 133.488 27.9301C132.225 28.9123 131.095 30.1803 130.098 31.7339L130.267 41.4284C130.273 41.7484 130.166 42.0383 129.946 42.2981C129.726 42.526 129.44 42.643 129.088 42.6492ZM152.271 42.2445C149.2 42.2981 146.706 41.5415 144.791 39.9747C142.907 38.4074 141.94 36.1679 141.889 33.2563C141.855 31.3046 142.241 29.6016 143.048 28.1473C143.855 26.693 144.939 25.5539 146.301 24.73C147.695 23.9056 149.24 23.4786 150.935 23.449C152.631 23.4194 154.061 23.7305 155.224 24.3823C156.388 25.034 157.266 25.8508 157.859 26.8326C158.485 27.8139 158.806 28.7844 158.822 29.7443C158.842 30.8961 158.492 31.8944 157.77 32.7391C157.081 33.5833 155.745 34.0226 153.761 34.0573L144.354 34.2215C144.644 36.1367 145.501 37.562 146.925 38.4972C148.382 39.432 150.15 39.8812 152.23 39.8449C153.029 39.8309 153.748 39.7544 154.386 39.6152C155.056 39.4755 155.565 39.3386 155.915 39.2045C156.265 39.0703 156.487 38.9864 156.583 38.9528C156.71 38.9185 156.806 38.9009 156.87 38.8997C157.19 38.8942 157.464 39.0174 157.692 39.2694C157.952 39.4889 158.085 39.7587 158.091 40.0786C158.1 40.6225 157.851 40.995 157.342 41.1959C156.675 41.4635 155.895 41.7012 155.002 41.9088C154.11 42.1164 153.199 42.2283 152.271 42.2445ZM150.977 25.8486C149.281 25.8782 147.819 26.4478 146.59 27.5574C145.361 28.635 144.618 30.0562 144.36 31.821L153.767 31.6568C155.591 31.625 156.492 31.0011 156.471 29.7853C156.453 28.7935 155.942 27.8903 154.935 27.0757C153.928 26.2292 152.609 25.8201 150.977 25.8486ZM174.581 41.8551C171.509 41.9087 169.015 41.1521 167.1 39.5853C165.216 38.0179 164.249 35.7785 164.198 32.8669C164.164 30.9152 164.55 29.2122 165.357 27.7579C166.164 26.3036 167.248 25.1645 168.61 24.3406C170.004 23.5162 171.549 23.0892 173.244 23.0596C174.94 23.03 176.37 23.3411 177.533 23.9928C178.697 24.6446 179.575 25.4614 180.168 26.4432C180.794 27.4245 181.115 28.395 181.131 29.3549C181.152 30.5067 180.801 31.505 180.08 32.3497C179.39 33.1938 178.054 33.6332 176.07 33.6679L166.663 33.8321C166.953 35.7473 167.81 37.1726 169.234 38.1078C170.691 39.0426 172.459 39.4918 174.539 39.4555C175.339 39.4415 176.057 39.365 176.695 39.2258C177.365 39.0861 177.874 38.9492 178.224 38.8151C178.574 38.6809 178.796 38.597 178.892 38.5634C179.019 38.5291 179.115 38.5115 179.179 38.5103C179.499 38.5048 179.773 38.628 180.001 38.88C180.261 39.0995 180.394 39.3693 180.4 39.6892C180.409 40.2331 180.16 40.6055 179.651 40.8065C178.984 41.0741 178.204 41.3118 177.311 41.5194C176.419 41.727 175.508 41.8389 174.581 41.8551ZM173.286 25.4592C171.59 25.4888 170.128 26.0584 168.899 27.168C167.67 28.2456 166.927 29.6668 166.669 31.4316L176.076 31.2674C177.9 31.2356 178.801 30.6117 178.78 29.3959C178.762 28.4041 178.251 27.5009 177.244 26.6863C176.237 25.8397 174.918 25.4307 173.286 25.4592ZM203.134 41.3567C202.814 41.3623 202.524 41.2553 202.265 41.0358C202.036 40.7838 201.919 40.4978 201.914 40.1778L201.746 30.5793C201.711 28.5956 201.303 27.1785 200.52 26.328C199.768 25.445 198.752 25.0147 197.473 25.037C196.129 25.0605 194.855 25.4508 193.653 26.2079C192.449 26.933 191.344 27.8164 190.338 28.8581L190.539 40.3764C190.545 40.6963 190.438 40.9862 190.218 41.2461C189.998 41.474 189.712 41.591 189.36 41.5971C189.041 41.6027 188.751 41.4957 188.491 41.2762C188.262 41.0242 188.145 40.7382 188.14 40.4182L187.853 24.0047C187.847 23.6528 187.954 23.3629 188.174 23.135C188.426 22.9066 188.712 22.7896 189.032 22.784C189.384 22.7778 189.674 22.8848 189.902 23.1049C190.13 23.3249 190.247 23.6109 190.253 23.9629L190.283 25.6906C191.356 24.8077 192.479 24.084 193.654 23.5194C194.828 22.9549 196.087 22.6608 197.431 22.6374C198.647 22.6162 199.755 22.8369 200.755 23.2995C201.755 23.7621 202.553 24.5803 203.15 25.754C203.778 26.8953 204.11 28.4897 204.146 30.5374L204.313 40.1359C204.319 40.4559 204.212 40.7458 203.992 41.0057C203.772 41.2335 203.486 41.3506 203.134 41.3567ZM227.666 40.9285C227.346 40.9341 227.056 40.8271 226.796 40.6076C226.568 40.3556 226.451 40.0696 226.445 39.7496L226.039 16.4732C226.033 16.1532 226.125 15.8796 226.313 15.6523C226.532 15.3924 226.786 15.2599 227.074 15.2549L240.512 15.0204C240.864 15.0142 241.154 15.1212 241.382 15.3412C241.61 15.5613 241.727 15.8473 241.733 16.1992C241.738 16.5192 241.631 16.8091 241.412 17.069C241.192 17.2968 240.906 17.4138 240.554 17.42L228.46 17.6311L228.605 25.9818L238.636 25.8067C238.988 25.8006 239.278 25.9076 239.506 26.1276C239.733 26.3477 239.85 26.6337 239.857 26.9856C239.862 27.3056 239.755 27.5955 239.536 27.8553C239.316 28.0832 239.03 28.2002 238.678 28.2064L228.647 28.3815L228.824 38.5079L241.014 38.2951C241.366 38.289 241.656 38.3959 241.884 38.616C242.112 38.8361 242.229 39.1221 242.235 39.474C242.241 39.794 242.134 40.0839 241.914 40.3437C241.694 40.5716 241.408 40.6886 241.056 40.6948L227.666 40.9285ZM264.203 40.2907C263.883 40.2963 263.593 40.1894 263.333 39.9699C263.105 39.7178 262.988 39.4318 262.982 39.1119L262.815 29.5133C262.78 27.5296 262.371 26.1125 261.588 25.2621C260.837 24.3791 259.821 23.9487 258.542 23.9711C257.198 23.9945 255.924 24.3848 254.721 25.1419C253.518 25.867 252.413 26.7504 251.407 27.7922L251.608 39.3104C251.614 39.6303 251.507 39.9203 251.287 40.1801C251.067 40.408 250.781 40.525 250.429 40.5312C250.109 40.5367 249.819 40.4298 249.56 40.2103C249.331 39.9582 249.214 39.6722 249.209 39.3523L248.922 22.9388C248.916 22.5868 249.023 22.2969 249.243 22.0691C249.495 21.8406 249.781 21.7236 250.101 21.718C250.453 21.7119 250.743 21.8188 250.971 22.0389C251.199 22.2589 251.316 22.545 251.322 22.8969L251.352 24.6246C252.425 23.7418 253.548 23.0181 254.722 22.4535C255.897 21.8889 257.156 21.5949 258.5 21.5714C259.715 21.5502 260.823 21.7709 261.824 22.2335C262.824 22.6961 263.622 23.5143 264.219 24.6881C264.847 25.8293 265.179 27.4237 265.215 29.4714L265.382 39.07C265.388 39.3899 265.281 39.6798 265.061 39.9397C264.841 40.1676 264.555 40.2846 264.203 40.2907ZM281.58 39.9874C278.508 40.041 276.015 39.2844 274.099 37.7176C272.216 36.1503 271.248 33.9108 271.197 30.9993C271.163 29.0475 271.55 27.3445 272.356 25.8902C273.163 24.4359 274.248 23.2968 275.609 22.473C277.003 21.6485 278.548 21.2215 280.244 21.1919C281.939 21.1623 283.369 21.4734 284.533 22.1252C285.696 22.777 286.575 23.5938 287.168 24.5756C287.793 25.5568 288.114 26.5273 288.131 27.4872C288.151 28.639 287.8 29.6373 287.079 30.482C286.389 31.3262 285.053 31.7656 283.069 31.8002L273.663 31.9644C273.952 33.8796 274.809 35.3049 276.234 36.2402C277.69 37.1749 279.458 37.6241 281.538 37.5878C282.338 37.5738 283.057 37.4973 283.694 37.3581C284.364 37.2184 284.874 37.0815 285.223 36.9474C285.573 36.8132 285.796 36.7294 285.891 36.6957C286.019 36.6615 286.114 36.6438 286.178 36.6427C286.498 36.6371 286.772 36.7603 287.001 37.0124C287.261 37.2319 287.393 37.5016 287.399 37.8215C287.408 38.3655 287.159 38.7379 286.65 38.9388C285.983 39.2065 285.203 39.4441 284.31 39.6517C283.418 39.8593 282.508 39.9712 281.58 39.9874ZM280.286 23.5915C278.59 23.6211 277.128 24.1907 275.899 25.3003C274.669 26.378 273.926 27.7991 273.669 29.5639L283.075 29.3997C284.899 29.3679 285.8 28.7441 285.779 27.5282C285.762 26.5364 285.25 25.6332 284.244 24.8186C283.237 23.9721 281.917 23.563 280.286 23.5915ZM296.36 39.7294C296.04 39.735 295.75 39.6281 295.49 39.4086C295.262 39.1565 295.145 38.8705 295.139 38.5506L294.853 22.1371C294.846 21.7851 294.953 21.4952 295.173 21.2673C295.425 21.0389 295.711 20.9219 296.031 20.9163C296.383 20.9102 296.673 21.0171 296.901 21.2372C297.129 21.4572 297.246 21.7432 297.252 22.0952L297.302 24.9267C298.526 23.5932 299.837 22.5781 301.233 21.8817C302.629 21.1852 303.983 20.8255 305.295 20.8026C305.647 20.7965 305.921 20.9037 306.117 21.1243C306.344 21.3124 306.46 21.5664 306.466 21.8863C306.479 22.6222 306.134 23.0443 305.432 23.1526C303.58 23.4089 302.023 24.0282 300.76 25.0104C299.497 25.9926 298.366 27.2605 297.369 28.8142L297.539 38.5087C297.544 38.8286 297.437 39.1185 297.218 39.3784C296.998 39.6063 296.712 39.7233 296.36 39.7294ZM314.895 48.0952C314.575 48.1008 314.285 47.9779 314.025 47.7264C313.797 47.5063 313.68 47.2363 313.674 46.9164C313.669 46.5964 313.776 46.3065 313.995 46.0466C314.247 45.8182 314.533 45.7012 314.853 45.6956C318.277 45.6358 320.757 44.6964 322.293 42.8773C323.862 41.0897 324.621 38.7401 324.571 35.8285L324.567 35.6365C323.529 36.6468 322.39 37.4188 321.151 37.9525C319.912 38.4862 318.637 38.7645 317.325 38.7874C316.013 38.8103 314.729 38.5447 313.471 37.9905C312.245 37.4359 311.221 36.5416 310.399 35.3077C309.61 34.0733 309.198 32.4803 309.164 30.5286C309.129 28.5129 309.562 26.7611 310.464 25.2731C311.366 23.7851 312.546 22.6283 314.004 21.8028C315.494 20.9766 317.039 20.5496 318.639 20.5217C319.758 20.5021 320.752 20.5808 321.619 20.7577C322.518 20.934 323.419 21.1904 324.321 21.5267C324.379 21.1736 324.518 20.8991 324.739 20.7033C324.959 20.5074 325.214 20.4069 325.502 20.4019C325.853 20.3958 326.143 20.5027 326.371 20.7228C326.599 20.9428 326.716 21.2288 326.722 21.5808L326.97 35.7866C327.034 39.4341 326.109 42.3786 324.196 44.6204C322.283 46.8621 319.183 48.0204 314.895 48.0952ZM317.283 36.3878C318.659 36.3637 319.981 35.9886 321.248 35.2624C322.515 34.5042 323.601 33.4291 324.504 32.0371L324.367 24.1663C323.367 23.7357 322.45 23.4156 321.614 23.2062C320.778 22.9967 319.8 22.9018 318.68 22.9213C317.465 22.9426 316.302 23.2669 315.193 23.8943C314.084 24.5218 313.187 25.4016 312.503 26.5337C311.85 27.6653 311.537 28.9829 311.563 30.4867C311.587 31.8625 311.879 32.9936 312.439 33.8799C312.998 34.7663 313.714 35.4099 314.585 35.8108C315.456 36.2116 316.355 36.404 317.283 36.3878ZM334.323 47.4201C334.035 47.4251 333.745 47.3181 333.453 47.0992C333.193 46.8797 333.061 46.61 333.055 46.29C333.047 45.8101 333.248 45.4385 333.66 45.1753C334.99 44.384 336.27 43.4335 337.499 42.3239C338.728 41.2462 339.918 39.7372 341.068 37.7969C339.819 35.8984 338.484 33.6973 337.064 31.1937C335.676 28.6896 334.447 26.0867 333.375 23.3849C333.107 22.6535 332.922 22.1767 332.822 21.9544C332.754 21.6995 332.719 21.5081 332.716 21.3801C332.712 21.1242 332.819 20.8663 333.039 20.6064C333.258 20.3465 333.528 20.2138 333.848 20.2082C334.104 20.2037 334.345 20.2795 334.572 20.4356C334.798 20.5597 334.962 20.7489 335.062 21.0031C336.236 24.0871 337.468 26.818 338.758 29.1959C340.047 31.5737 341.252 33.649 342.371 35.4218C343.115 34.0326 343.84 32.5157 344.548 30.8711C345.287 29.2259 345.962 27.5499 346.572 25.843C347.214 24.1035 347.745 22.446 348.166 20.8704C348.316 20.2917 348.695 19.9971 349.303 19.9865C349.654 19.9803 349.945 20.1033 350.173 20.3553C350.401 20.5754 350.518 20.8454 350.523 21.1653C350.525 21.2613 350.465 21.5024 350.344 21.8886C350.255 22.2742 350.164 22.6118 350.074 22.9014C349.65 24.317 349.086 25.9431 348.382 27.7797C347.678 29.5843 346.91 31.422 346.078 33.2928C345.278 35.131 344.459 36.7935 343.621 38.2804C342.255 40.7046 340.847 42.5695 339.398 43.875C337.949 45.1804 336.432 46.3111 334.848 47.2669C334.722 47.3651 334.547 47.4162 334.323 47.4201Z" fill="black" fill-opacity="0.6"/>
</svg>
