<svg width="996" height="983" viewBox="0 0 996 983" fill="none" xmlns="http://www.w3.org/2000/svg">
<path d="M637.98 353.571C790.304 434.379 790.304 652.621 637.98 733.429L424.507 846.676C281.31 922.642 108.75 818.846 108.75 656.747L108.75 430.253C108.75 268.154 281.31 164.358 424.507 240.324L637.98 353.571Z" fill="#2C6A71" fill-opacity="0.66"/>
<path d="M230.425 561.23C229.722 561.193 229.13 560.874 228.649 560.272L213.977 541.238L201.13 540.564L200.256 557.245C200.223 557.885 199.969 558.448 199.495 558.936C199.024 559.36 198.437 559.553 197.734 559.517C197.095 559.483 196.531 559.229 196.043 558.755C195.623 558.22 195.429 557.633 195.463 556.994L197.9 510.498C197.936 509.795 198.19 509.232 198.661 508.808C199.196 508.387 199.783 508.193 200.422 508.227L214.515 508.966C218.285 509.163 221.476 510.035 224.087 511.582C226.761 513.132 228.77 515.16 230.113 517.666C231.523 520.111 232.145 522.899 231.981 526.031C231.8 529.482 230.678 532.564 228.613 535.275C226.612 537.99 223.602 539.787 219.582 540.666L232.453 557.395C232.816 557.798 232.981 558.32 232.947 558.959C232.917 559.534 232.665 560.065 232.191 560.553C231.717 561.041 231.128 561.267 230.425 561.23ZM202.567 513.146L201.382 535.771L213.078 536.384C217.488 536.615 220.9 535.704 223.315 533.652C225.733 531.536 227.024 528.912 227.188 525.78C227.365 522.392 226.23 519.609 223.78 517.43C221.398 515.19 218.226 513.967 214.263 513.759L202.567 513.146ZM263.394 562.958C257.258 562.636 252.389 560.779 248.786 557.385C245.246 553.996 243.629 549.393 243.934 543.577C244.138 539.678 245.146 536.334 246.959 533.545C248.771 530.756 251.094 528.635 253.925 527.181C256.821 525.731 259.963 525.094 263.35 525.272C266.738 525.449 269.547 526.269 271.777 527.732C274.008 529.195 275.646 530.947 276.693 532.989C277.803 535.034 278.308 537.015 278.208 538.932C278.087 541.233 277.248 543.176 275.691 544.76C274.198 546.348 271.47 547.039 267.508 546.831L248.717 545.846C249.028 549.708 250.539 552.671 253.25 554.736C256.026 556.804 259.491 557.947 263.645 558.164C265.243 558.248 266.688 558.196 267.979 558.007C269.335 557.822 270.371 557.62 271.087 557.401C271.804 557.182 272.26 557.046 272.455 556.992C272.714 556.941 272.907 556.919 273.035 556.926C273.674 556.959 274.204 557.244 274.625 557.778C275.112 558.253 275.34 558.809 275.306 559.448C275.249 560.535 274.699 561.243 273.657 561.573C272.288 562.014 270.698 562.379 268.889 562.669C267.079 562.959 265.248 563.055 263.394 562.958ZM263.099 530.065C259.712 529.888 256.715 530.82 254.108 532.862C251.505 534.841 249.824 537.573 249.065 541.058L267.855 542.042C271.498 542.233 273.383 541.115 273.51 538.686C273.614 536.705 272.719 534.831 270.825 533.066C268.934 531.236 266.359 530.236 263.099 530.065ZM320.708 565.961C320.069 565.928 319.506 565.674 319.018 565.2C318.597 564.665 318.404 564.078 318.437 563.439L318.648 559.413C316.691 561.297 314.5 562.752 312.075 563.779C309.714 564.808 307.127 565.25 304.315 565.102C301.183 564.938 298.378 564.054 295.898 562.45C293.483 560.849 291.578 558.667 290.185 555.902C288.859 553.077 288.292 549.843 288.482 546.2C288.683 542.365 289.66 539.02 291.412 536.163C293.228 533.31 295.585 531.127 298.484 529.612C301.447 528.101 304.719 527.44 308.298 527.627C310.598 527.748 312.691 528.178 314.575 528.918C316.526 529.597 318.368 530.526 320.1 531.707L321.005 514.45C321.042 513.747 321.295 513.184 321.766 512.76C322.301 512.339 322.888 512.146 323.527 512.179C324.23 512.216 324.794 512.47 325.217 512.941C325.641 513.412 325.835 513.998 325.798 514.702L323.231 563.69C323.197 564.329 322.943 564.893 322.469 565.381C321.998 565.805 321.411 565.998 320.708 565.961ZM304.566 560.309C307.762 560.476 310.522 559.788 312.846 558.243C315.233 556.702 317.295 554.663 319.03 552.127L319.799 537.459C318.083 535.959 316.286 534.775 314.409 533.908C312.596 533.044 310.475 532.548 308.046 532.421C305.362 532.28 302.932 532.794 300.756 533.961C298.58 535.129 296.826 536.8 295.494 538.973C294.166 541.082 293.427 543.575 293.276 546.451C293.072 550.35 294.023 553.604 296.129 556.214C298.302 558.763 301.115 560.128 304.566 560.309ZM368.344 568.458C367.705 568.424 367.141 568.171 366.653 567.696C366.233 567.162 366.039 566.575 366.073 565.936L366.299 561.621C364.086 563.492 361.7 565.001 359.14 566.149C356.584 567.233 354.059 567.709 351.567 567.579C349.202 567.455 347.022 566.86 345.027 565.794C343.096 564.731 341.584 563.018 340.49 560.653C339.464 558.228 339.057 554.971 339.272 550.88L340.277 531.707C340.314 531.004 340.567 530.44 341.038 530.016C341.573 529.596 342.16 529.402 342.799 529.435C343.502 529.472 344.066 529.726 344.489 530.197C344.913 530.668 345.107 531.255 345.07 531.958L344.065 551.131C343.861 555.03 344.447 557.913 345.823 559.779C347.263 561.649 349.262 562.651 351.818 562.785C354.438 562.923 357.07 562.227 359.714 560.7C362.421 559.175 364.734 557.246 366.65 554.911L367.791 533.149C367.828 532.445 368.082 531.882 368.552 531.458C369.087 531.037 369.674 530.844 370.313 530.877C371.016 530.914 371.58 531.168 372.004 531.639C372.428 532.11 372.621 532.697 372.584 533.4L370.866 566.187C370.833 566.826 370.579 567.389 370.105 567.877C369.634 568.301 369.047 568.495 368.344 568.458ZM412.196 538.936C409.932 538.113 407.713 537.644 405.54 537.53C400.683 537.276 396.806 538.482 393.911 541.151C391.082 543.758 389.554 547.235 389.327 551.581C389.129 555.352 390.307 558.554 392.861 561.187C395.414 563.82 399.12 565.264 403.977 565.519C405.767 565.613 407.339 565.567 408.695 565.381C410.054 565.132 411.123 564.9 411.904 564.684C412.62 564.466 413.076 564.329 413.271 564.275C413.53 564.225 413.723 564.203 413.851 564.21C414.49 564.243 415.02 564.527 415.441 565.062C415.929 565.536 416.156 566.093 416.122 566.732C416.065 567.819 415.516 568.527 414.473 568.857C413.037 569.358 411.414 569.754 409.604 570.043C407.858 570.336 405.899 570.426 403.726 570.312C399.38 570.084 395.747 569.093 392.827 567.338C389.91 565.519 387.755 563.227 386.362 560.462C384.972 557.633 384.362 554.589 384.533 551.33C384.731 547.559 385.705 544.245 387.457 541.389C389.213 538.469 391.636 536.257 394.727 534.752C397.821 533.184 401.509 532.512 405.791 532.737C409.051 532.908 412.124 533.581 415.01 534.758C416.077 535.198 416.578 536.026 416.514 537.24C416.484 537.815 416.2 538.345 415.662 538.83C415.127 539.25 414.54 539.444 413.901 539.41C413.709 539.4 413.141 539.242 412.196 538.936ZM445.769 572.516C439.633 572.194 434.764 570.337 431.16 566.943C427.621 563.553 426.004 558.951 426.308 553.134C426.513 549.236 427.521 545.892 429.334 543.103C431.146 540.314 433.468 538.193 436.3 536.739C439.196 535.289 442.338 534.652 445.725 534.83C449.112 535.007 451.921 535.827 454.152 537.29C456.382 538.753 458.021 540.505 459.067 542.546C460.178 544.591 460.683 546.573 460.582 548.49C460.462 550.791 459.623 552.733 458.066 554.318C456.573 555.906 453.845 556.596 449.882 556.389L431.092 555.404C431.403 559.265 432.914 562.229 435.625 564.293C438.401 566.361 441.866 567.504 446.02 567.722C447.618 567.806 449.063 567.753 450.354 567.565C451.71 567.379 452.746 567.177 453.462 566.959C454.179 566.74 454.634 566.603 454.829 566.55C455.088 566.499 455.282 566.477 455.41 566.484C456.049 566.517 456.579 566.801 456.999 567.336C457.487 567.81 457.714 568.367 457.681 569.006C457.624 570.093 457.074 570.801 456.031 571.131C454.662 571.572 453.073 571.937 451.263 572.227C449.454 572.516 447.622 572.613 445.769 572.516ZM445.474 539.623C442.086 539.445 439.09 540.378 436.483 542.42C433.88 544.399 432.199 547.131 431.439 550.616L450.23 551.6C453.873 551.791 455.758 550.672 455.885 548.244C455.989 546.262 455.094 544.389 453.199 542.623C451.309 540.794 448.733 539.794 445.474 539.623ZM538.624 532.392C535.58 530.566 531.661 529.528 526.867 529.277C523.033 529.076 519.437 529.816 516.08 531.499C512.788 533.185 510.063 535.638 507.908 538.858C505.756 542.013 504.564 545.796 504.333 550.206C504.122 554.232 504.794 557.921 506.349 561.271C507.907 564.557 510.266 567.244 513.425 569.332C516.651 571.36 520.565 572.494 525.167 572.735C527.467 572.856 529.62 572.744 531.625 572.401C533.694 572.061 535.549 571.517 537.19 570.77C537.52 570.595 537.876 570.517 538.26 570.537C538.963 570.574 539.526 570.828 539.95 571.299C540.374 571.77 540.568 572.357 540.531 573.06C540.477 574.082 539.993 574.762 539.078 575.098C537.107 576.021 534.926 576.675 532.534 577.063C530.139 577.514 527.6 577.669 524.915 577.529C519.291 577.234 514.526 575.831 510.62 573.319C506.778 570.81 503.906 567.519 502.005 563.446C500.104 559.373 499.282 554.876 499.54 549.955C499.821 544.586 501.282 539.952 503.921 536.053C506.561 532.154 509.921 529.19 514 527.16C518.08 525.131 522.453 524.239 527.119 524.483C532.871 524.785 537.547 526.055 541.146 528.295C541.95 528.849 542.329 529.574 542.282 530.469C542.252 531.044 542 531.576 541.526 532.064C541.051 532.551 540.463 532.777 539.76 532.74C539.376 532.72 538.998 532.604 538.624 532.392ZM558.458 578.421C557.819 578.388 557.255 578.134 556.767 577.66C556.347 577.125 556.153 576.538 556.187 575.899L558.623 529.403C558.66 528.7 558.914 528.136 559.385 527.712C559.92 527.292 560.506 527.098 561.146 527.132L588.468 528.564C589.171 528.6 589.735 528.854 590.159 529.325C590.583 529.796 590.776 530.383 590.739 531.086C590.706 531.725 590.452 532.289 589.978 532.776C589.507 533.2 588.92 533.394 588.217 533.357L563.291 532.051L562.321 550.553L582.358 551.603C583.061 551.64 583.624 551.894 584.048 552.365C584.472 552.836 584.666 553.423 584.629 554.126C584.596 554.765 584.342 555.328 583.868 555.816C583.397 556.24 582.81 556.434 582.107 556.397L562.07 555.347L560.98 576.15C560.946 576.789 560.693 577.353 560.218 577.841C559.748 578.265 559.161 578.458 558.458 578.421ZM603.958 580.806C603.319 580.772 602.755 580.519 602.267 580.044C601.847 579.51 601.653 578.923 601.687 578.284L604.123 531.787C604.16 531.084 604.414 530.521 604.885 530.097C605.42 529.676 606.007 529.483 606.646 529.516L620.355 530.235C624.126 530.432 627.377 531.372 630.109 533.053C632.844 534.67 634.911 536.798 636.311 539.434C637.775 542.075 638.42 545.056 638.246 548.38C638.085 551.448 637.233 554.255 635.689 556.802C634.21 559.352 632.022 561.352 629.126 562.802C626.294 564.256 622.769 564.873 618.551 564.651L607.239 564.059L606.48 578.535C606.447 579.174 606.193 579.737 605.718 580.225C605.248 580.649 604.661 580.843 603.958 580.806ZM608.791 534.435L607.49 559.265L618.802 559.858C623.34 560.096 626.853 559.094 629.342 556.854C631.898 554.552 633.268 551.644 633.452 548.129C633.647 544.422 632.492 541.381 629.989 539.007C627.489 536.569 624.194 535.242 620.104 535.028L608.791 534.435Z" fill="#F4F1EB"/>
</svg>
