<svg width="448" height="61" viewBox="0 0 448 61" fill="none" xmlns="http://www.w3.org/2000/svg">
<path d="M447.14 52.8075C447.524 52.4102 447.513 51.7771 447.116 51.3935L440.642 45.1416C440.244 44.7579 439.611 44.769 439.228 45.1662C438.844 45.5635 438.855 46.1966 439.252 46.5802L445.007 52.1375L439.45 57.8922C439.066 58.2895 439.077 58.9226 439.475 59.3062C439.872 59.6899 440.505 59.6788 440.889 59.2815L447.14 52.8075ZM1.50525 60.879L446.439 53.1127L446.404 51.113L1.47034 58.8793L1.50525 60.879Z" fill="#2C6A71"/>
<path d="M130.478 42.6253C130.126 42.6315 129.82 42.4928 129.559 42.2093L121.577 33.2273L115.146 33.3395L115.292 41.6902C115.297 42.0102 115.19 42.3001 114.971 42.56C114.751 42.7879 114.465 42.9049 114.113 42.911C113.793 42.9166 113.503 42.8096 113.243 42.5901C113.015 42.3381 112.898 42.0521 112.892 41.7321L112.486 18.4557C112.48 18.1037 112.587 17.8138 112.807 17.5859C113.059 17.3575 113.345 17.2405 113.665 17.2349L120.72 17.1118C122.607 17.0788 124.229 17.4026 125.585 18.083C126.973 18.7629 128.046 19.7043 128.803 20.9073C129.592 22.0777 130 23.4468 130.027 25.0145C130.057 26.7423 129.604 28.3184 128.669 29.743C127.766 31.1669 126.327 32.1682 124.353 32.7467L131.356 40.6417C131.551 40.8303 131.652 41.0846 131.657 41.4046C131.662 41.6925 131.555 41.9665 131.335 42.2263C131.116 42.4862 130.83 42.6192 130.478 42.6253ZM114.906 19.6136L115.104 30.9399L120.959 30.8377C123.167 30.7991 124.837 30.2259 125.97 29.118C127.102 27.978 127.655 26.6242 127.627 25.0564C127.598 23.3607 126.934 22.0121 125.636 21.0106C124.37 19.9765 122.745 19.4768 120.761 19.5114L114.906 19.6136ZM146.983 42.3373C143.911 42.3909 141.418 41.6343 139.502 40.0675C137.619 38.5001 136.651 36.2606 136.6 33.3491C136.566 31.3974 136.953 29.6944 137.759 28.2401C138.566 26.7858 139.651 25.6467 141.012 24.8228C142.406 23.9983 143.951 23.5713 145.647 23.5417C147.342 23.5121 148.772 23.8232 149.936 24.475C151.099 25.1268 151.978 25.9436 152.571 26.9254C153.196 27.9066 153.517 28.8772 153.534 29.837C153.554 30.9888 153.203 31.9871 152.482 32.8318C151.792 33.676 150.456 34.1154 148.472 34.15L139.066 34.3142C139.355 36.2294 140.212 37.6547 141.637 38.59C143.093 39.5247 144.861 39.9739 146.941 39.9376C147.741 39.9237 148.46 39.8471 149.097 39.708C149.767 39.5682 150.277 39.4313 150.626 39.2972C150.976 39.1631 151.199 39.0792 151.294 39.0455C151.422 39.0113 151.517 38.9936 151.581 38.9925C151.901 38.9869 152.175 39.1101 152.404 39.3622C152.664 39.5817 152.796 39.8514 152.802 40.1714C152.812 40.7153 152.562 41.0877 152.053 41.2886C151.386 41.5563 150.606 41.7939 149.713 42.0015C148.821 42.2092 147.911 42.3211 146.983 42.3373ZM145.689 25.9413C143.993 25.9709 142.531 26.5406 141.302 27.6502C140.072 28.7278 139.329 30.149 139.072 31.9137L148.478 31.7495C150.302 31.7177 151.203 31.0939 151.182 29.8781C151.165 28.8862 150.653 27.983 149.647 27.1685C148.64 26.3219 147.32 25.9129 145.689 25.9413ZM175.675 41.8364C175.355 41.842 175.065 41.7351 174.805 41.5156C174.577 41.2635 174.46 40.9775 174.454 40.6576L174.419 38.6419C173.509 39.6499 172.466 40.4522 171.293 41.0488C170.151 41.6448 168.876 41.9551 167.468 41.9797C165.901 42.007 164.47 41.664 163.178 40.9504C161.917 40.2363 160.891 39.214 160.1 37.8837C159.34 36.5207 158.944 34.9274 158.912 33.1037C158.879 31.1839 159.249 29.4812 160.023 27.9955C160.829 26.5092 161.929 25.3378 163.322 24.4814C164.748 23.6244 166.356 23.1802 168.148 23.149C169.3 23.1288 170.358 23.2704 171.324 23.5736C172.321 23.8442 173.272 24.2437 174.177 24.772L174.026 16.1333C174.02 15.7813 174.127 15.4914 174.347 15.2636C174.599 15.0351 174.885 14.9181 175.205 14.9125C175.557 14.9064 175.847 15.0133 176.075 15.2334C176.303 15.4535 176.42 15.7395 176.426 16.0914L176.854 40.6157C176.86 40.9356 176.753 41.2255 176.533 41.4854C176.313 41.7133 176.027 41.8303 175.675 41.8364ZM167.426 39.58C169.026 39.5521 170.379 39.1124 171.484 38.261C172.621 37.4091 173.578 36.3202 174.355 34.9944L174.227 27.6515C173.319 26.9633 172.382 26.4356 171.415 26.0684C170.481 25.7006 169.405 25.5274 168.19 25.5486C166.846 25.572 165.652 25.9129 164.607 26.5713C163.562 27.2296 162.746 28.124 162.157 29.2544C161.568 30.3529 161.287 31.622 161.312 33.0618C161.346 35.0135 161.934 36.6035 163.075 37.8317C164.248 39.0274 165.699 39.6102 167.426 39.58ZM199.522 41.4202C199.202 41.4258 198.912 41.3188 198.652 41.0993C198.424 40.8473 198.307 40.5613 198.301 40.2413L198.263 38.0816C197.225 39.0919 196.087 39.9279 194.851 40.5896C193.613 41.2193 192.371 41.545 191.123 41.5668C189.939 41.5874 188.831 41.3668 187.799 40.9047C186.799 40.4421 185.985 39.6402 185.357 38.499C184.76 37.3252 184.444 35.7145 184.408 33.6668L184.241 24.0682C184.234 23.7163 184.341 23.4264 184.562 23.1985C184.814 22.9701 185.1 22.8531 185.42 22.8475C185.771 22.8413 186.061 22.9483 186.289 23.1683C186.517 23.3884 186.634 23.6744 186.64 24.0263L186.808 33.6249C186.842 35.5766 187.235 36.9939 187.986 37.877C188.77 38.7594 189.801 39.1895 191.081 39.1671C192.393 39.1443 193.682 38.7057 194.947 37.8515C196.244 36.9967 197.33 35.9536 198.205 34.7222L198.015 23.8278C198.008 23.4759 198.115 23.186 198.335 22.9581C198.587 22.7296 198.873 22.6126 199.193 22.607C199.545 22.6009 199.835 22.7079 200.063 22.9279C200.291 23.148 200.408 23.434 200.414 23.7859L200.701 40.1994C200.706 40.5194 200.599 40.8093 200.38 41.0692C200.16 41.297 199.874 41.414 199.522 41.4202ZM220.365 25.1659C219.207 24.8341 218.084 24.6777 216.996 24.6967C214.564 24.7391 212.673 25.4762 211.322 26.908C210.002 28.3073 209.361 30.0947 209.399 32.2704C209.432 34.1581 210.131 35.7142 211.497 36.9385C212.862 38.1629 214.761 38.7538 217.193 38.7114C218.088 38.6957 218.871 38.6181 219.541 38.4784C220.21 38.3067 220.735 38.1535 221.117 38.0188C221.467 37.8847 221.689 37.8008 221.785 37.7671C221.912 37.7329 222.008 37.7152 222.072 37.7141C222.392 37.7085 222.666 37.8317 222.895 38.0838C223.154 38.3033 223.287 38.573 223.293 38.8929C223.302 39.4369 223.053 39.8093 222.544 40.0102C221.845 40.3104 221.05 40.5643 220.157 40.772C219.296 40.979 218.322 41.092 217.234 41.111C215.059 41.149 213.212 40.7812 211.694 40.0075C210.176 39.2019 209.021 38.1339 208.23 36.8035C207.438 35.4411 207.028 33.944 206.999 32.3123C206.966 30.4246 207.337 28.7379 208.111 27.2521C208.885 25.7344 210.016 24.5465 211.506 23.6883C212.994 22.7982 214.81 22.3345 216.954 22.297C218.586 22.2686 220.142 22.4974 221.623 22.9837C222.17 23.1661 222.449 23.5613 222.46 24.1692C222.465 24.4572 222.341 24.7314 222.09 24.9918C221.838 25.2202 221.552 25.3373 221.232 25.3428C221.136 25.3445 220.847 25.2856 220.365 25.1659ZM238.282 40.7436C235.21 40.7972 232.716 40.0406 230.801 38.4738C228.917 36.9065 227.95 34.667 227.899 31.7555C227.865 29.8038 228.251 28.1008 229.058 26.6465C229.865 25.1922 230.949 24.0531 232.311 23.2292C233.705 22.4047 235.25 21.9777 236.945 21.9481C238.641 21.9185 240.071 22.2296 241.234 22.8814C242.398 23.5332 243.276 24.35 243.869 25.3318C244.495 26.313 244.816 27.2835 244.832 28.2434C244.852 29.3952 244.502 30.3935 243.78 31.2382C243.091 32.0824 241.755 32.5218 239.771 32.5564L230.364 32.7206C230.654 34.6358 231.511 36.0611 232.935 36.9964C234.392 37.9311 236.16 38.3803 238.24 38.344C239.04 38.33 239.758 38.2535 240.396 38.1143C241.066 37.9746 241.575 37.8377 241.925 37.7036C242.275 37.5695 242.497 37.4856 242.593 37.4519C242.72 37.4177 242.816 37.4 242.88 37.3989C243.2 37.3933 243.474 37.5165 243.702 37.7686C243.962 37.9881 244.095 38.2578 244.101 38.5777C244.11 39.1217 243.861 39.4941 243.352 39.695C242.685 39.9627 241.905 40.2003 241.012 40.4079C240.12 40.6155 239.209 40.7274 238.282 40.7436ZM236.987 24.3477C235.291 24.3773 233.829 24.9469 232.6 26.0565C231.371 27.1342 230.628 28.5554 230.37 30.3201L239.777 30.1559C241.601 30.1241 242.502 29.5003 242.481 28.2844C242.463 27.2926 241.952 26.3894 240.945 25.5748C239.938 24.7283 238.619 24.3192 236.987 24.3477ZM283.197 17.4922C281.615 16.6877 279.624 16.3064 277.224 16.3483C275.304 16.3818 273.537 16.8767 271.921 17.833C270.337 18.7888 269.064 20.1073 268.101 21.7883C267.138 23.4374 266.676 25.3657 266.714 27.5734C266.749 29.5891 267.213 31.4053 268.106 33.022C268.997 34.6066 270.267 35.8647 271.916 36.796C273.596 37.6948 275.588 38.1241 277.891 38.0839C279.043 38.0638 280.113 37.9331 281.101 37.6919C282.121 37.45 283.027 37.1142 283.82 36.6843C283.978 36.5855 284.153 36.5344 284.345 36.5311C284.697 36.5249 284.987 36.6319 285.215 36.8519C285.443 37.072 285.56 37.358 285.566 37.7099C285.575 38.2219 285.357 38.5777 284.913 38.7775C283.962 39.3062 282.897 39.7088 281.717 39.9855C280.538 40.2941 279.277 40.4601 277.933 40.4836C275.118 40.5327 272.692 39.999 270.656 38.8823C268.652 37.7651 267.105 36.2239 266.015 34.2586C264.924 32.2934 264.358 30.0789 264.315 27.6153C264.268 24.9277 264.835 22.5654 266.015 20.5285C267.196 18.4916 268.768 16.8959 270.732 15.7415C272.697 14.587 274.846 13.9894 277.182 13.9486C280.062 13.8984 282.438 14.369 284.312 15.3604C284.732 15.6091 284.946 15.9574 284.954 16.4054C284.959 16.6933 284.852 16.9672 284.632 17.2271C284.413 17.487 284.127 17.62 283.775 17.6261C283.583 17.6295 283.39 17.5848 283.197 17.4922ZM294.695 39.7589C294.375 39.7645 294.085 39.6576 293.825 39.4381C293.597 39.186 293.479 38.9 293.474 38.5801L293.068 15.3036C293.061 14.9517 293.168 14.6617 293.388 14.4339C293.641 14.2054 293.927 14.0884 294.246 14.0828L307.924 13.8441C308.276 13.838 308.566 13.9449 308.794 14.165C309.022 14.385 309.139 14.671 309.145 15.023C309.151 15.3429 309.044 15.6328 308.824 15.8927C308.604 16.1206 308.318 16.2376 307.966 16.2437L295.488 16.4615L295.65 25.7241L305.68 25.549C306.032 25.5429 306.322 25.6499 306.55 25.8699C306.778 26.09 306.895 26.376 306.901 26.7279C306.907 27.0479 306.8 27.3378 306.58 27.5977C306.36 27.8255 306.074 27.9425 305.722 27.9487L295.692 28.1238L295.874 38.5382C295.879 38.8581 295.772 39.148 295.553 39.4079C295.333 39.6358 295.047 39.7528 294.695 39.7589ZM317.472 39.3613C317.153 39.3669 316.863 39.26 316.603 39.0405C316.374 38.7884 316.257 38.5024 316.252 38.1825L315.845 14.906C315.839 14.5541 315.946 14.2642 316.166 14.0363C316.418 13.8079 316.704 13.6908 317.024 13.6853L323.887 13.5655C325.775 13.5325 327.429 13.8877 328.851 14.631C330.271 15.3423 331.377 16.3312 332.167 17.5976C332.989 18.8634 333.415 20.3282 333.444 21.992C333.471 23.5277 333.143 24.9577 332.462 26.2817C331.813 27.6053 330.792 28.6793 329.398 29.5037C328.036 30.3276 326.3 30.758 324.188 30.7948L318.525 30.8937L318.651 38.1406C318.657 38.4605 318.55 38.7504 318.33 39.0103C318.11 39.2382 317.824 39.3552 317.472 39.3613ZM318.266 16.0639L318.483 28.4941L324.146 28.3952C326.418 28.3556 328.135 27.7335 329.298 26.529C330.493 25.292 331.075 23.7936 331.044 22.0338C331.012 20.1781 330.33 18.7018 328.999 17.6049C327.667 16.4759 325.977 15.9294 323.929 15.9651L318.266 16.0639Z" fill="black" fill-opacity="0.6"/>
</svg>
