<svg width="996" height="983" viewBox="0 0 996 983" fill="none" xmlns="http://www.w3.org/2000/svg">
<path d="M637.98 353.571C790.304 434.379 790.304 652.621 637.98 733.429L424.507 846.676C281.31 922.642 108.75 818.846 108.75 656.747L108.75 430.253C108.75 268.154 281.31 164.358 424.507 240.324L637.98 353.571Z" fill="#3D2C71" fill-opacity="0.66"/>
<path d="M198.77 515.795C197.269 515.076 195.602 514.476 193.769 513.995C192 513.518 189.645 513.202 186.705 513.048C183.445 512.877 180.814 513.572 178.809 515.134C176.808 516.631 175.754 518.402 175.647 520.447C175.539 522.493 176.337 524.393 178.04 526.149C179.742 527.904 183.15 529.525 188.263 531.01C192.811 532.274 196.29 533.77 198.698 535.499C201.171 537.23 202.865 539.146 203.781 541.244C204.7 543.279 205.095 545.511 204.968 547.94C204.844 550.304 204.118 552.542 202.79 554.651C201.529 556.7 199.519 558.357 196.761 559.622C194.071 560.827 190.52 561.314 186.11 561.083C179.847 560.755 174.14 558.981 168.989 555.763C168.185 555.209 167.807 554.484 167.853 553.589C167.884 553.014 168.136 552.482 168.61 551.994C169.084 551.507 169.673 551.281 170.376 551.318C170.759 551.338 171.138 551.454 171.511 551.666C175.915 554.46 180.865 556.001 186.361 556.289C190.708 556.517 194.046 555.795 196.377 554.123C198.775 552.39 200.041 550.245 200.175 547.688C200.315 545.004 199.346 542.71 197.267 540.807C195.251 538.907 191.847 537.222 187.053 535.753C182.576 534.365 179.129 532.871 176.714 531.27C174.362 529.673 172.755 527.922 171.894 526.019C171.096 524.118 170.756 522.05 170.873 519.813C170.98 517.768 171.658 515.848 172.905 514.055C174.22 512.202 176.06 510.728 178.424 509.634C180.789 508.54 183.633 508.08 186.956 508.255C190.471 508.439 193.268 508.874 195.347 509.56C197.494 510.185 199.724 511.039 202.039 512.121C203.041 512.558 203.514 513.32 203.457 514.407C203.423 515.046 203.138 515.608 202.599 516.092C202.129 516.516 201.574 516.711 200.935 516.678C200.807 516.671 200.617 516.629 200.364 516.552C200.115 516.411 199.584 516.158 198.77 515.795ZM272.88 564.765C272.241 564.732 271.678 564.478 271.19 564.004C270.769 563.469 270.576 562.882 270.609 562.243L271.664 542.11C271.862 538.34 271.234 535.647 269.781 534.033C268.391 532.422 266.514 531.554 264.149 531.43C261.784 531.306 259.448 531.857 257.141 533.082C254.834 534.307 252.7 535.893 250.739 537.841L249.518 561.137C249.485 561.777 249.231 562.34 248.757 562.828C248.286 563.252 247.699 563.445 246.996 563.408C246.357 563.375 245.793 563.121 245.306 562.647C244.885 562.112 244.691 561.525 244.725 560.886L245.78 540.754C245.978 536.983 245.35 534.29 243.896 532.676C242.507 531.065 240.629 530.198 238.265 530.074C235.9 529.95 233.529 530.563 231.151 531.912C228.776 533.198 226.609 534.814 224.648 536.762L223.442 559.771C223.409 560.41 223.155 560.973 222.681 561.461C222.21 561.885 221.623 562.079 220.92 562.042C220.281 562.008 219.717 561.755 219.229 561.28C218.809 560.746 218.615 560.159 218.649 559.52L220.367 526.733C220.404 526.03 220.658 525.466 221.128 525.042C221.663 524.622 222.25 524.428 222.889 524.461C223.592 524.498 224.156 524.752 224.58 525.223C225.004 525.694 225.197 526.281 225.16 526.984L224.99 530.243C227.122 528.689 229.333 527.459 231.624 526.553C233.918 525.584 236.215 525.16 238.516 525.28C241.008 525.411 243.254 525.977 245.252 526.979C247.25 527.981 248.724 529.821 249.673 532.498C251.95 530.631 254.335 529.154 256.827 528.067C259.383 526.983 261.908 526.506 264.4 526.637C266.765 526.761 268.884 527.289 270.758 528.22C272.632 529.151 274.087 530.734 275.124 532.967C276.228 535.14 276.672 538.271 276.458 542.362L275.403 562.494C275.369 563.133 275.115 563.697 274.641 564.184C274.17 564.608 273.584 564.802 272.88 564.765ZM317.788 566.253C316.459 564.71 315.469 562.799 314.82 560.522C312.539 562.453 310.059 563.926 307.378 564.939C304.765 565.891 301.956 566.289 298.952 566.131C296.012 565.977 293.708 565.312 292.039 564.135C290.371 562.958 289.227 561.552 288.607 559.917C287.988 558.283 287.715 556.762 287.789 555.356C287.869 553.822 288.202 552.366 288.787 550.987C289.439 549.547 290.369 548.314 291.576 547.288C293.251 545.901 295.458 544.767 298.195 543.885C300.933 543.003 304.252 542.665 308.15 542.869C310.195 542.976 312.363 543.186 314.654 543.498C314.549 540.609 313.71 538.29 312.135 536.541C310.564 534.728 308.116 533.735 304.793 533.56C303.515 533.493 302.198 533.553 300.842 533.738C299.49 533.859 298.456 534.029 297.739 534.248C296.892 534.524 296.276 534.652 295.893 534.632C295.253 534.599 294.69 534.345 294.202 533.871C293.718 533.332 293.49 532.776 293.521 532.201C293.584 530.986 294.169 530.216 295.276 529.889C296.379 529.627 297.836 529.351 299.645 529.061C301.519 528.775 303.318 528.677 305.044 528.767C310.285 529.042 314.044 530.681 316.322 533.684C318.664 536.691 319.714 540.495 319.473 545.097L319.016 553.821C318.902 555.994 319.03 557.827 319.401 559.32C319.838 560.753 320.508 562.038 321.41 563.175C321.834 563.646 322.029 564.2 321.995 564.84C321.962 565.479 321.676 566.041 321.138 566.525C320.667 566.949 320.112 567.144 319.473 567.111C318.834 567.077 318.272 566.791 317.788 566.253ZM299.203 561.338C301.952 561.482 304.604 561.012 307.16 559.928C309.72 558.781 312.057 556.981 314.172 554.528L314.499 548.297C312.144 547.981 309.944 547.77 307.899 547.662C301.827 547.344 297.48 548.366 294.857 550.728C294.05 551.455 293.464 552.225 293.101 553.039C292.802 553.857 292.629 554.713 292.582 555.608C292.515 556.886 292.995 558.129 294.021 559.336C295.111 560.547 296.839 561.214 299.203 561.338ZM336.168 568.082C335.529 568.048 334.965 567.794 334.477 567.32C334.057 566.786 333.863 566.199 333.897 565.559L335.615 532.772C335.652 532.069 335.906 531.506 336.377 531.082C336.911 530.661 337.498 530.468 338.137 530.501C338.84 530.538 339.404 530.792 339.828 531.263C340.252 531.734 340.445 532.321 340.408 533.024L340.112 538.68C342.742 536.19 345.498 534.348 348.381 533.153C351.263 531.958 354.015 531.43 356.635 531.567C357.338 531.604 357.87 531.856 358.23 532.323C358.657 532.73 358.854 533.253 358.82 533.892C358.743 535.362 357.997 536.156 356.581 536.275C352.85 536.528 349.656 537.546 347 539.329C344.343 541.113 341.911 543.485 339.705 546.445L338.69 565.811C338.657 566.45 338.403 567.013 337.929 567.501C337.458 567.925 336.871 568.119 336.168 568.082ZM387.384 570.766C381.504 570.458 377.382 569.024 375.016 566.465C372.654 563.842 371.582 560.453 371.8 556.298L372.805 537.125L366.765 536.808C366.126 536.775 365.562 536.521 365.075 536.047C364.654 535.512 364.46 534.925 364.494 534.286C364.531 533.583 364.785 533.019 365.255 532.595C365.79 532.175 366.377 531.981 367.016 532.015L373.056 532.331L373.563 522.649C373.6 521.946 373.854 521.382 374.325 520.958C374.86 520.538 375.447 520.344 376.086 520.378C376.789 520.414 377.352 520.668 377.776 521.139C378.2 521.61 378.394 522.197 378.357 522.9L377.849 532.583L390.6 533.251C391.303 533.288 391.866 533.541 392.29 534.012C392.714 534.483 392.908 535.07 392.871 535.773C392.837 536.412 392.584 536.976 392.109 537.464C391.639 537.888 391.052 538.081 390.349 538.044L377.598 537.376L376.593 556.55C376.285 562.43 379.966 565.571 387.635 565.972C388.338 566.009 388.9 566.295 389.321 566.83C389.745 567.301 389.94 567.856 389.906 568.495C389.873 569.134 389.587 569.696 389.049 570.18C388.578 570.604 388.023 570.799 387.384 570.766ZM470.847 575.14C470.208 575.107 469.645 574.853 469.157 574.379C468.736 573.844 468.543 573.257 468.576 572.618L469.757 550.089L437.641 548.406L436.46 570.935C436.427 571.574 436.173 572.137 435.699 572.625C435.228 573.049 434.641 573.243 433.938 573.206C433.299 573.172 432.735 572.918 432.247 572.444C431.827 571.909 431.633 571.323 431.667 570.683L434.104 524.187C434.14 523.484 434.394 522.921 434.865 522.497C435.4 522.076 435.987 521.883 436.626 521.916C437.329 521.953 437.892 522.207 438.316 522.678C438.74 523.148 438.934 523.735 438.897 524.438L437.892 543.612L470.008 545.295L471.013 526.122C471.05 525.418 471.304 524.855 471.774 524.431C472.309 524.01 472.896 523.817 473.535 523.85C474.238 523.887 474.802 524.141 475.226 524.612C475.65 525.083 475.843 525.67 475.806 526.373L473.37 572.869C473.336 573.508 473.082 574.072 472.608 574.559C472.137 574.983 471.55 575.177 470.847 575.14ZM508.295 539.034C512.193 539.239 515.502 540.309 518.22 542.246C521.006 544.123 523.087 546.603 524.463 549.687C525.907 552.711 526.534 556.044 526.343 559.687C526.158 563.202 525.194 566.324 523.448 569.053C521.767 571.784 519.445 573.906 516.482 575.417C513.583 576.931 510.184 577.586 506.285 577.382C502.45 577.181 499.138 576.174 496.349 574.362C493.561 572.549 491.442 570.163 489.995 567.203C488.612 564.247 488.013 561.011 488.197 557.496C488.385 553.917 489.322 550.697 491.01 547.838C492.698 544.978 495.026 542.761 497.992 541.186C500.962 539.547 504.396 538.83 508.295 539.034ZM508.044 543.828C505.104 543.674 502.512 544.211 500.269 545.439C498.089 546.671 496.366 548.375 495.098 550.552C493.834 552.664 493.131 555.063 492.99 557.747C492.783 561.71 493.885 565.132 496.298 568.014C498.777 570.836 502.19 572.361 506.536 572.588C510.882 572.816 514.404 571.655 517.101 569.104C519.862 566.558 521.345 563.335 521.549 559.436C521.693 556.688 521.249 554.165 520.215 551.868C519.182 549.571 517.614 547.694 515.512 546.238C513.473 544.785 510.983 543.982 508.044 543.828ZM592.598 581.521C591.959 581.487 591.395 581.233 590.908 580.759C590.487 580.224 590.293 579.638 590.327 578.998L591.382 558.866C591.58 555.095 590.952 552.403 589.498 550.788C588.109 549.177 586.231 548.31 583.867 548.186C581.502 548.062 579.166 548.613 576.859 549.838C574.551 551.062 572.417 552.649 570.457 554.597L569.236 577.893C569.202 578.532 568.948 579.096 568.474 579.584C568.003 580.007 567.417 580.201 566.713 580.164C566.074 580.131 565.511 579.877 565.023 579.403C564.602 578.868 564.409 578.281 564.442 577.642L565.497 557.509C565.695 553.739 565.067 551.046 563.614 549.432C562.224 547.821 560.347 546.953 557.982 546.83C555.617 546.706 553.246 547.318 550.868 548.668C548.494 549.953 546.326 551.57 544.365 553.518L543.16 576.526C543.126 577.166 542.872 577.729 542.398 578.217C541.927 578.641 541.34 578.834 540.637 578.798C539.998 578.764 539.435 578.51 538.947 578.036C538.526 577.501 538.333 576.914 538.366 576.275L540.084 543.488C540.121 542.785 540.375 542.222 540.846 541.798C541.381 541.377 541.968 541.184 542.607 541.217C543.31 541.254 543.873 541.508 544.297 541.979C544.721 542.449 544.915 543.036 544.878 543.739L544.707 546.999C546.839 545.444 549.051 544.214 551.341 543.309C553.635 542.34 555.932 541.916 558.233 542.036C560.726 542.167 562.971 542.733 564.97 543.735C566.968 544.737 568.442 546.577 569.391 549.254C571.668 547.387 574.052 545.909 576.545 544.822C579.101 543.739 581.625 543.262 584.118 543.393C586.483 543.517 588.602 544.044 590.476 544.976C592.35 545.907 593.805 547.489 594.841 549.723C595.945 551.895 596.39 555.027 596.175 559.117L595.12 579.25C595.087 579.889 594.833 580.452 594.359 580.94C593.888 581.364 593.301 581.558 592.598 581.521ZM627.298 583.339C621.162 583.018 616.293 581.16 612.689 577.767C609.15 574.377 607.533 569.774 607.838 563.958C608.042 560.06 609.05 556.716 610.863 553.927C612.675 551.138 614.997 549.016 617.829 547.563C620.725 546.112 623.867 545.476 627.254 545.653C630.641 545.831 633.45 546.651 635.681 548.114C637.911 549.576 639.55 551.329 640.597 553.37C641.707 555.415 642.212 557.396 642.112 559.314C641.991 561.614 641.152 563.557 639.595 565.142C638.102 566.73 635.374 567.42 631.411 567.212L612.621 566.228C612.932 570.089 614.443 573.052 617.154 575.117C619.93 577.185 623.395 578.328 627.549 578.546C629.147 578.63 630.592 578.577 631.883 578.388C633.239 578.203 634.275 578.001 634.991 577.782C635.708 577.563 636.163 577.427 636.358 577.373C636.617 577.323 636.811 577.301 636.939 577.308C637.578 577.341 638.108 577.625 638.528 578.16C639.016 578.634 639.243 579.191 639.21 579.83C639.153 580.916 638.603 581.625 637.56 581.954C636.191 582.395 634.602 582.761 632.792 583.05C630.983 583.34 629.151 583.436 627.298 583.339ZM627.003 550.447C623.616 550.269 620.619 551.202 618.012 553.244C615.409 555.223 613.728 557.954 612.968 561.439L631.759 562.424C635.402 562.615 637.287 561.496 637.414 559.067C637.518 557.086 636.623 555.213 634.728 553.447C632.838 551.618 630.262 550.618 627.003 550.447Z" fill="#F4F1EB"/>
</svg>
