<svg width="447" height="75" viewBox="0 0 447 75" fill="none" xmlns="http://www.w3.org/2000/svg">
<path d="M445.893 67.5404C446.294 67.1602 446.31 66.5272 445.93 66.1266L439.735 59.5983C439.355 59.1976 438.722 59.1811 438.321 59.5612C437.92 59.9414 437.904 60.5744 438.284 60.975L443.791 66.778L437.988 72.2848C437.587 72.665 437.571 73.2979 437.951 73.6985C438.331 74.0991 438.964 74.1157 439.365 73.7355L445.893 67.5404ZM0.32978 56.1659L445.178 67.8146L445.231 65.8153L0.382134 54.1666L0.32978 56.1659Z" fill="#3D2C71"/>
<path d="M120.136 17.7769C119.377 17.4369 118.536 17.1588 117.613 16.9425C116.722 16.7272 115.541 16.6002 114.07 16.5617C112.438 16.5189 111.132 16.9009 110.15 17.7075C109.17 18.482 108.666 19.3812 108.639 20.4048C108.612 21.4285 109.036 22.3679 109.91 23.223C110.784 24.0782 112.508 24.8436 115.083 25.5193C117.373 26.0914 119.132 26.7937 120.358 27.6261C121.617 28.4593 122.489 29.3944 122.974 30.4315C123.459 31.4366 123.686 32.5469 123.655 33.7625C123.624 34.9461 123.29 36.0737 122.654 37.1454C122.05 38.186 121.068 39.0405 119.706 39.7091C118.376 40.3466 116.608 40.6364 114.401 40.5786C111.266 40.4965 108.39 39.6849 105.774 38.1439C105.365 37.8771 105.166 37.5198 105.178 37.0719C105.185 36.784 105.304 36.515 105.535 36.265C105.766 36.0149 106.057 35.8945 106.409 35.9037C106.601 35.9088 106.791 35.9618 106.981 36.0628C109.218 37.4018 111.713 38.1073 114.464 38.1794C116.639 38.2363 118.298 37.8316 119.441 36.9653C120.617 36.0677 121.222 34.9792 121.255 33.6996C121.291 32.3561 120.776 31.2222 119.712 30.2981C118.68 29.3747 116.956 28.5773 114.541 27.9059C112.285 27.2706 110.542 26.5688 109.314 25.8003C108.118 25.0328 107.292 24.1788 106.836 23.2386C106.413 22.2992 106.216 21.2697 106.245 20.1501C106.272 19.1264 106.585 18.1583 107.185 17.2457C107.818 16.3019 108.719 15.5412 109.886 14.9636C111.054 14.386 112.469 14.1189 114.132 14.1625C115.892 14.2086 117.296 14.3894 118.344 14.7049C119.425 14.9893 120.551 15.3869 121.722 15.8977C122.228 16.1031 122.475 16.4776 122.46 17.0215C122.452 17.3414 122.317 17.6259 122.054 17.8751C121.824 18.0932 121.549 18.198 121.229 18.1896C121.165 18.188 121.07 18.1695 120.943 18.1341C120.817 18.0668 120.548 17.9477 120.136 17.7769ZM157.819 41.2834C157.5 41.275 157.215 41.1555 156.965 40.9249C156.747 40.6631 156.643 40.3723 156.651 40.0524L156.915 29.9758C156.965 28.0885 156.615 26.7509 155.868 25.963C155.152 25.176 154.203 24.767 153.019 24.736C151.835 24.705 150.675 25.0108 149.538 25.6532C148.401 26.2957 147.355 27.1166 146.4 28.1159L146.095 39.7759C146.087 40.0958 145.967 40.3808 145.736 40.6308C145.507 40.8489 145.216 40.9533 144.864 40.9441C144.544 40.9357 144.259 40.8162 144.009 40.5856C143.792 40.3238 143.687 40.033 143.696 39.7131L143.96 29.6366C144.009 27.7492 143.66 26.4116 142.912 25.6238C142.197 24.8368 141.247 24.4278 140.063 24.3968C138.88 24.3658 137.703 24.7031 136.532 25.4087C135.362 26.0823 134.299 26.9188 133.345 27.9181L133.043 39.4342C133.035 39.7541 132.916 40.039 132.685 40.2891C132.455 40.5071 132.164 40.6116 131.812 40.6023C131.493 40.594 131.208 40.4745 130.957 40.2438C130.74 39.9821 130.636 39.6912 130.644 39.3713L131.074 22.961C131.083 22.6091 131.203 22.3241 131.432 22.1061C131.694 21.8888 131.985 21.7844 132.305 21.7928C132.657 21.802 132.942 21.9215 133.16 22.1513C133.378 22.3811 133.482 22.6719 133.473 23.0238L133.43 24.6552C134.476 23.8503 135.565 23.2066 136.698 22.7241C137.832 22.2096 138.975 21.9674 140.126 21.9976C141.374 22.0303 142.504 22.2839 143.515 22.7586C144.527 23.2332 145.288 24.1335 145.798 25.4592C146.911 24.4961 148.084 23.7265 149.315 23.1505C150.579 22.5754 151.834 22.3042 153.082 22.3369C154.265 22.3679 155.332 22.6038 156.28 23.0448C157.229 23.4858 157.977 24.2577 158.525 25.3604C159.105 26.4319 159.368 27.9913 159.314 30.0386L159.05 40.1152C159.042 40.4351 158.923 40.7201 158.692 40.9701C158.462 41.1882 158.171 41.2926 157.819 41.2834ZM180.285 41.4395C179.6 40.6853 179.081 39.7434 178.726 38.6137C177.612 39.6089 176.391 40.3772 175.065 40.9187C173.771 41.429 172.372 41.6644 170.869 41.6251C169.397 41.5865 168.237 41.2841 167.387 40.7176C166.538 40.1512 165.948 39.4635 165.617 38.6546C165.286 37.8456 165.13 37.0893 165.148 36.3855C165.168 35.6178 165.315 34.8854 165.59 34.1883C165.897 33.4601 166.345 32.8317 166.935 32.3029C167.754 31.5881 168.842 30.9924 170.199 30.5157C171.556 30.0391 173.21 29.8263 175.162 29.8774C176.185 29.9042 177.272 29.9807 178.421 30.1068C178.331 28.664 177.88 27.5158 177.071 26.6623C176.261 25.7768 175.025 25.3123 173.362 25.2687C172.722 25.252 172.065 25.2988 171.389 25.4091C170.715 25.4875 170.2 25.5861 169.845 25.7048C169.425 25.8539 169.119 25.9259 168.927 25.9209C168.607 25.9125 168.322 25.793 168.072 25.5624C167.823 25.2998 167.702 25.0245 167.71 24.7366C167.726 24.1288 168.008 23.7361 168.557 23.5584C169.105 23.4127 169.829 23.2556 170.73 23.0871C171.663 22.9194 172.561 22.8469 173.425 22.8696C176.048 22.9382 177.948 23.7083 179.126 25.1796C180.336 26.6518 180.911 28.5395 180.85 30.8427L180.736 35.2092C180.708 36.2968 180.796 37.2114 181 37.953C181.238 38.6635 181.589 39.2969 182.055 39.8533C182.273 40.0831 182.378 40.3579 182.369 40.6778C182.361 40.9977 182.226 41.2822 181.963 41.5315C181.733 41.7495 181.458 41.8544 181.138 41.846C180.819 41.8376 180.534 41.7021 180.285 41.4395ZM170.932 39.2259C172.307 39.2619 173.627 38.9924 174.89 38.4172C176.154 37.8101 177.299 36.8798 178.324 35.6262L178.406 32.5073C177.225 32.3803 176.123 32.3034 175.099 32.2766C172.06 32.197 169.9 32.7647 168.62 33.9796C168.226 34.3534 167.944 34.7462 167.773 35.1578C167.634 35.5703 167.559 36.0005 167.547 36.4484C167.53 37.0881 167.786 37.703 168.315 38.2931C168.876 38.884 169.748 39.1949 170.932 39.2259ZM189.496 42.1128C189.176 42.1045 188.891 41.985 188.641 41.7543C188.424 41.4926 188.319 41.2017 188.328 40.8818L188.757 24.4715C188.767 24.1196 188.886 23.8346 189.116 23.6166C189.378 23.3993 189.668 23.2949 189.988 23.3033C190.34 23.3125 190.625 23.432 190.843 23.6618C191.061 23.8916 191.166 24.1824 191.156 24.5343L191.082 27.3653C192.364 26.0864 193.718 25.1295 195.143 24.4946C196.568 23.8597 197.936 23.5594 199.248 23.5938C199.6 23.603 199.869 23.7221 200.055 23.951C200.274 24.1488 200.379 24.4077 200.371 24.7276C200.351 25.4633 199.989 25.8699 199.282 25.9475C197.421 26.1228 195.838 26.6736 194.533 27.5997C193.229 28.5259 192.044 29.7433 190.981 31.252L190.727 40.9447C190.718 41.2646 190.599 41.5495 190.368 41.7996C190.138 42.0176 189.848 42.1221 189.496 42.1128ZM215.13 42.7841C212.187 42.707 210.108 42.0444 208.892 40.7961C207.677 39.5159 207.097 37.8361 207.151 35.7568L207.403 26.1601L204.38 26.081C204.06 26.0726 203.775 25.9531 203.525 25.7225C203.308 25.4607 203.203 25.1699 203.212 24.85C203.221 24.4981 203.34 24.2131 203.57 23.9951C203.832 23.7778 204.123 23.6734 204.443 23.6818L207.466 23.7609L207.592 18.9146C207.602 18.5627 207.721 18.2778 207.951 18.0597C208.213 17.8425 208.504 17.7381 208.823 17.7464C209.175 17.7556 209.46 17.8751 209.678 18.1049C209.896 18.3347 210.001 18.6256 209.992 18.9774L209.865 23.8238L216.247 23.9909C216.598 24.0001 216.883 24.1196 217.101 24.3494C217.32 24.5792 217.424 24.87 217.415 25.2219C217.406 25.5418 217.287 25.8267 217.056 26.0768C216.826 26.2949 216.536 26.3993 216.184 26.3901L209.802 26.2229L209.551 35.8197C209.474 38.7627 211.354 40.2844 215.193 40.3849C215.545 40.3941 215.829 40.5296 216.047 40.7914C216.265 41.0212 216.37 41.296 216.361 41.6159C216.353 41.9358 216.217 42.2204 215.955 42.4696C215.725 42.6876 215.45 42.7925 215.13 42.7841ZM256.905 43.878C256.585 43.8696 256.3 43.7501 256.05 43.5195C255.833 43.2577 255.728 42.9669 255.737 42.647L256.032 31.3709L239.957 30.9499L239.662 42.2261C239.654 42.546 239.534 42.8309 239.304 43.081C239.074 43.299 238.783 43.4035 238.431 43.3943C238.111 43.3859 237.826 43.2664 237.576 43.0358C237.359 42.774 237.255 42.4831 237.263 42.1633L237.872 18.8912C237.882 18.5394 238.001 18.2544 238.231 18.0363C238.493 17.8191 238.783 17.7147 239.103 17.7231C239.455 17.7323 239.74 17.8518 239.958 18.0816C240.176 18.3113 240.281 18.6022 240.271 18.9541L240.02 28.5508L256.095 28.9717L256.346 19.375C256.355 19.0231 256.475 18.7381 256.704 18.5201C256.966 18.3029 257.257 18.1984 257.577 18.2068C257.929 18.216 258.214 18.3355 258.432 18.5653C258.65 18.7951 258.754 19.0859 258.745 19.4378L258.136 42.7098C258.127 43.0297 258.008 43.3147 257.777 43.5647C257.547 43.7828 257.257 43.8872 256.905 43.878ZM275.15 25.3412C277.101 25.3923 278.769 25.8842 280.153 26.8167C281.569 27.7181 282.642 28.9306 283.37 30.4542C284.132 31.9466 284.488 33.6045 284.441 35.4279C284.395 37.1873 283.953 38.7603 283.117 40.1469C282.312 41.5343 281.179 42.625 279.718 43.419C278.289 44.2139 276.598 44.5858 274.647 44.5347C272.728 44.4844 271.059 44.0246 269.641 43.1552C268.224 42.2858 267.134 41.1208 266.372 39.6604C265.642 38.2008 265.3 36.5913 265.346 34.8319C265.393 33.0405 265.819 31.4191 266.625 29.9677C267.432 28.5163 268.566 27.3776 270.028 26.5516C271.491 25.6936 273.198 25.2901 275.15 25.3412ZM275.087 27.7404C273.615 27.7019 272.327 28.0043 271.222 28.6476C270.148 29.2917 269.309 30.166 268.704 31.2706C268.1 32.3431 267.78 33.5512 267.745 34.8947C267.693 36.878 268.289 38.5742 269.532 39.9832C270.809 41.3611 272.534 42.0785 274.71 42.1355C276.885 42.1925 278.63 41.5659 279.945 40.2559C281.291 38.9467 281.99 37.3164 282.041 35.3651C282.077 33.9896 281.822 32.7345 281.276 31.5998C280.729 30.4651 279.921 29.5476 278.851 28.8473C277.813 28.1479 276.558 27.779 275.087 27.7404ZM317.843 45.4737C317.523 45.4653 317.238 45.3458 316.988 45.1152C316.771 44.8534 316.666 44.5626 316.675 44.2427L316.938 34.1662C316.988 32.2788 316.639 30.9412 315.891 30.1534C315.175 29.3664 314.226 28.9574 313.042 28.9264C311.859 28.8954 310.698 29.2011 309.561 29.8436C308.424 30.486 307.378 31.3069 306.424 32.3063L306.118 43.9663C306.11 44.2862 305.99 44.5712 305.76 44.8212C305.53 45.0393 305.239 45.1437 304.887 45.1345C304.567 45.1261 304.282 45.0066 304.032 44.776C303.815 44.5142 303.711 44.2234 303.719 43.9035L303.983 33.8269C304.032 31.9396 303.683 30.602 302.936 29.8141C302.22 29.0271 301.27 28.6181 300.087 28.5871C298.903 28.5561 297.726 28.8934 296.555 29.599C295.385 30.2726 294.323 31.1091 293.368 32.1085L293.067 43.6245C293.058 43.9444 292.939 44.2294 292.708 44.4794C292.478 44.6975 292.188 44.8019 291.836 44.7927C291.516 44.7843 291.231 44.6648 290.981 44.4342C290.764 44.1724 290.659 43.8816 290.667 43.5617L291.097 27.1513C291.106 26.7994 291.226 26.5145 291.456 26.2964C291.717 26.0792 292.008 25.9748 292.328 25.9832C292.68 25.9924 292.965 26.1119 293.183 26.3417C293.401 26.5714 293.506 26.8623 293.496 27.2142L293.454 28.8456C294.499 28.0407 295.588 27.397 296.721 26.9145C297.855 26.4 298.998 26.1578 300.15 26.188C301.397 26.2206 302.527 26.4743 303.539 26.9489C304.551 27.4236 305.311 28.3238 305.821 29.6496C306.934 28.6864 308.107 27.9169 309.338 27.3409C310.602 26.7658 311.858 26.4945 313.105 26.5272C314.289 26.5582 315.355 26.7942 316.304 27.2352C317.252 27.6762 318 28.448 318.548 29.5507C319.128 30.6223 319.391 32.1817 319.338 34.229L319.074 44.3055C319.065 44.6254 318.946 44.9104 318.715 45.1605C318.485 45.3785 318.195 45.4829 317.843 45.4737ZM335.211 45.9285C332.14 45.8481 329.681 44.9835 327.836 43.3346C326.022 41.6865 325.154 39.407 325.23 36.496C325.281 34.5447 325.741 32.8602 326.611 31.4424C327.48 30.0247 328.613 28.934 330.01 28.1703C331.438 27.4074 333 27.0482 334.695 27.0926C336.391 27.137 337.806 27.5101 338.94 28.2121C340.074 28.914 340.916 29.7683 341.465 30.7751C342.047 31.7826 342.326 32.7663 342.3 33.7259C342.27 34.8775 341.876 35.8596 341.119 36.672C340.393 37.4853 339.039 37.866 337.056 37.814L327.651 37.5678C327.856 39.4938 328.65 40.9551 330.033 41.9516C331.447 42.949 333.194 43.4749 335.273 43.5293C336.073 43.5503 336.795 43.5052 337.438 43.3939C338.113 43.2836 338.628 43.169 338.983 43.0503C339.338 42.9315 339.564 42.8574 339.661 42.828C339.79 42.7993 339.886 42.7858 339.95 42.7875C340.27 42.7959 340.539 42.931 340.756 43.1927C341.006 43.4234 341.127 43.6986 341.119 44.0185C341.104 44.5623 340.839 44.9235 340.322 45.102C339.643 45.3404 338.854 45.5438 337.953 45.7122C337.052 45.8807 336.138 45.9528 335.211 45.9285ZM334.633 29.4918C332.937 29.4474 331.451 29.9526 330.175 31.0076C328.9 32.0306 328.096 33.418 327.762 35.1698L337.166 35.4161C338.99 35.4639 339.917 34.8799 339.949 33.6644C339.975 32.6727 339.503 31.748 338.533 30.8903C337.564 30.0007 336.264 29.5345 334.633 29.4918Z" fill="black" fill-opacity="0.6"/>
</svg>
