<svg width="937" height="144" viewBox="0 0 937 144" fill="none" xmlns="http://www.w3.org/2000/svg">
<path d="M1.78 24.9962C2.02097 11.1912 13.4075 0.195343 27.2125 0.43631L911.078 15.8642C924.883 16.1052 935.879 27.4917 935.638 41.2967L934.294 118.285C934.053 132.09 922.666 143.086 908.861 142.845L24.996 127.417C11.191 127.176 0.195196 115.789 0.436163 101.984L1.78 24.9962Z" fill="#664E6D"/>
<path d="M81.3789 79.3937C81.059 79.3881 80.773 79.2711 80.5209 79.0426C80.3014 78.7828 80.1945 78.4929 80.2 78.1729L80.3408 70.1101C79.8092 69.3968 79.1066 68.3923 78.2331 67.0969C77.3595 65.8015 76.4397 64.4092 75.4735 62.9201C74.5394 61.4316 73.6361 60.0076 72.7637 58.6482C71.9233 57.2893 71.2703 56.1897 70.8049 55.3495C70.7123 55.1558 70.6679 54.947 70.6719 54.723C70.6769 54.4351 70.7773 54.1808 70.9732 53.9602C71.1697 53.7076 71.4598 53.5846 71.8438 53.5913C72.3237 53.5997 72.6566 53.7815 72.8424 54.1368C73.2775 54.8805 73.8527 55.8507 74.5679 57.0474C75.3157 58.2126 76.11 59.4587 76.951 60.7856C77.824 62.113 78.6658 63.3919 79.4764 64.6222C80.3191 65.8531 81.0368 66.9058 81.6296 67.7803C82.3177 66.8641 83.0723 65.8052 83.8934 64.6033C84.7471 63.37 85.601 62.1207 86.4552 60.8554C87.31 59.5582 88.0991 58.3557 88.8225 57.2482C89.5785 56.1092 90.1709 55.1754 90.5997 54.4468C90.7978 54.0982 91.1368 53.9281 91.6168 53.9365C92.3847 53.9499 92.7619 54.3405 92.7485 55.1084C92.7446 55.3324 92.693 55.5395 92.5936 55.7298C92.0997 56.5213 91.4254 57.5657 90.5706 58.863C89.7484 60.1288 88.8445 61.4892 87.859 62.9443C86.874 64.3673 85.9221 65.7269 85.0034 67.023C84.1166 68.3198 83.3617 69.3948 82.7387 70.248L82.5997 78.2148C82.5941 78.5347 82.4771 78.8208 82.2487 79.0728C82.0208 79.2929 81.7309 79.3998 81.3789 79.3937ZM104.262 60.7822C106.213 60.8163 107.885 61.2935 109.277 62.2139C110.702 63.1029 111.785 64.306 112.527 65.8232C113.301 67.3089 113.672 68.9637 113.64 70.7874C113.61 72.5471 113.182 74.1239 112.358 75.5177C111.565 76.9121 110.442 78.0127 108.988 78.8194C107.565 79.6267 105.878 80.0133 103.927 79.9793C102.007 79.9458 100.334 79.5005 98.9091 78.6435C97.4838 77.7865 96.3838 76.6311 95.609 75.1774C94.8663 73.7242 94.5103 72.1177 94.541 70.358C94.5723 68.5663 94.9847 66.9412 95.7783 65.4829C96.5718 64.0245 97.6961 62.8759 99.1509 62.0372C100.606 61.1665 102.31 60.7481 104.262 60.7822ZM104.22 63.1818C102.748 63.1561 101.462 63.4697 100.363 64.1227C99.2951 64.7761 98.4636 65.6577 97.8682 66.7675C97.2733 67.8453 96.9641 69.0561 96.9406 70.3999C96.906 72.3836 97.5166 74.0745 98.7724 75.4726C100.061 76.8393 101.793 77.5417 103.968 77.5796C106.144 77.6176 107.884 76.9759 109.187 75.6544C110.522 74.3335 111.207 72.6972 111.241 70.7455C111.265 69.3697 110.999 68.1169 110.442 66.987C109.886 65.8571 109.07 64.9467 107.994 64.2559C106.949 63.5655 105.691 63.2075 104.22 63.1818ZM134.411 80.3193C134.091 80.3138 133.805 80.1968 133.553 79.9683C133.333 79.7084 133.226 79.4185 133.232 79.0986L133.27 76.9389C132.197 77.9123 131.03 78.7081 129.771 79.3262C128.513 79.9124 127.26 80.1945 126.012 80.1727C124.828 80.1521 123.729 79.8929 122.713 79.3951C121.73 78.8978 120.944 78.068 120.356 76.9055C119.801 75.7117 119.541 74.0909 119.577 72.0432L119.745 62.4447C119.751 62.0927 119.868 61.8067 120.096 61.5867C120.355 61.3672 120.645 61.2602 120.965 61.2658C121.317 61.2719 121.603 61.3889 121.823 61.6168C122.043 61.8447 122.15 62.1346 122.144 62.4865L121.977 72.0851C121.943 74.0368 122.286 75.467 123.006 76.3757C123.758 77.285 124.774 77.7508 126.054 77.7731C127.366 77.796 128.669 77.4027 129.963 76.5932C131.29 75.7842 132.411 74.7796 133.328 73.5794L133.518 62.6851C133.525 62.3331 133.642 62.0471 133.869 61.8271C134.129 61.6076 134.419 61.5006 134.739 61.5062C135.091 61.5124 135.377 61.6294 135.597 61.8572C135.817 62.0851 135.924 62.375 135.918 62.727L135.632 79.1405C135.626 79.4604 135.509 79.7464 135.281 79.9985C135.053 80.2185 134.763 80.3255 134.411 80.3193ZM144.973 80.5037C144.653 80.4981 144.367 80.3811 144.115 80.1527C143.895 79.8928 143.788 79.6029 143.794 79.2829L144.08 62.8694C144.086 62.5175 144.203 62.2315 144.431 62.0114C144.691 61.7919 144.981 61.685 145.301 61.6906C145.653 61.6967 145.939 61.8137 146.159 62.0416C146.379 62.2695 146.486 62.5594 146.48 62.9113L146.43 65.7429C147.701 64.4529 149.046 63.4842 150.466 62.8369C151.885 62.1896 153.251 61.8773 154.563 61.9002C154.915 61.9064 155.185 62.0231 155.373 62.2504C155.593 62.4463 155.701 62.7042 155.695 63.0242C155.682 63.7601 155.323 64.1699 154.618 64.2536C152.758 64.4451 151.18 65.0097 149.883 65.9472C148.587 66.8847 147.413 68.1124 146.363 69.6303L146.193 79.3248C146.188 79.6448 146.071 79.9308 145.842 80.1828C145.614 80.4029 145.325 80.5098 144.973 80.5037ZM195.296 79.2698C194.099 79.985 192.745 80.5694 191.232 81.0231C189.752 81.4774 188.02 81.6872 186.037 81.6525C183.285 81.6045 180.944 80.9876 179.012 79.8017C177.113 78.5843 175.669 76.9749 174.68 74.9733C173.69 72.9717 173.217 70.7551 173.259 68.3235C173.306 65.6359 173.907 63.2941 175.062 61.2979C176.249 59.3023 177.844 57.7619 179.848 56.6767C181.851 55.5915 184.116 55.071 186.644 55.1151C188.052 55.1397 189.361 55.3065 190.572 55.6157C191.815 55.8935 192.977 56.2338 194.058 56.6367C194.567 56.8376 194.817 57.2101 194.807 57.754C194.802 58.0739 194.685 58.3599 194.456 58.612C194.26 58.8326 193.97 58.9395 193.586 58.9328C193.49 58.9312 193.347 58.8967 193.156 58.8293C192.234 58.4612 191.232 58.1556 190.148 57.9127C189.064 57.6697 187.882 57.5371 186.602 57.5147C184.522 57.4784 182.659 57.91 181.011 58.8093C179.395 59.7093 178.108 60.983 177.151 62.6306C176.195 64.2461 175.698 66.1577 175.659 68.3654C175.624 70.3491 176.009 72.1641 176.812 73.8104C177.616 75.4246 178.794 76.7254 180.345 77.7126C181.928 78.7004 183.839 79.2138 186.079 79.2529C187.646 79.2803 189.025 79.1443 190.214 78.845C191.436 78.5143 192.548 78.0856 193.549 77.559L193.671 70.6001L187 70.4837C186.68 70.4781 186.394 70.3611 186.142 70.1326C185.922 69.8728 185.815 69.5828 185.821 69.2629C185.827 68.9109 185.944 68.6249 186.172 68.4049C186.432 68.1854 186.722 68.0784 187.042 68.084L194.385 68.2122C194.992 68.2228 195.423 68.3263 195.675 68.5228C195.96 68.6878 196.099 68.9942 196.091 69.4422L195.941 78.0808C195.931 78.6248 195.716 79.0211 195.296 79.2698ZM217.447 81.3367C216.756 80.5885 216.228 79.6512 215.864 78.5246C214.758 79.5295 213.544 80.3084 212.222 80.8614C210.933 81.383 209.537 81.6307 208.033 81.6044C206.561 81.5787 205.398 81.2864 204.544 80.7274C203.689 80.1684 203.093 79.4859 202.755 78.6799C202.417 77.8738 202.254 77.1189 202.266 76.415C202.28 75.6471 202.421 74.9135 202.689 74.214C202.99 73.4832 203.433 72.8508 204.018 72.3169C204.831 71.595 205.914 70.9898 207.266 70.5014C208.619 70.0129 210.271 69.7857 212.223 69.8198C213.247 69.8376 214.334 69.9046 215.484 70.0207C215.381 68.5787 214.921 67.4345 214.104 66.5881C213.287 65.7097 212.047 65.256 210.383 65.2269C209.743 65.2158 209.086 65.2683 208.412 65.3846C207.738 65.4688 207.224 65.5719 206.87 65.6937C206.452 65.8464 206.146 65.9211 205.954 65.9178C205.634 65.9122 205.348 65.7952 205.096 65.5667C204.845 65.3063 204.721 65.0321 204.727 64.7442C204.737 64.1362 205.016 63.7411 205.563 63.5586C206.11 63.4081 206.833 63.2447 207.732 63.0684C208.663 62.8926 209.561 62.8122 210.425 62.8273C213.048 62.8731 214.956 63.6265 216.146 65.0875C217.369 66.5491 217.96 68.4317 217.92 70.7353L217.844 75.1027C217.825 76.1905 217.921 77.1043 218.132 77.8441C218.376 78.5525 218.733 79.1828 219.203 79.7351C219.423 79.963 219.53 80.2369 219.525 80.5568C219.519 80.8768 219.386 81.1625 219.126 81.414C218.898 81.634 218.624 81.7413 218.304 81.7357C217.984 81.7301 217.698 81.5971 217.447 81.3367ZM208.075 79.2048C209.45 79.2288 210.768 78.9477 212.026 78.3616C213.285 77.7435 214.422 76.8032 215.436 75.5407L215.49 72.4212C214.308 72.3045 213.205 72.2373 212.181 72.2194C209.142 72.1663 206.987 72.7528 205.717 73.9789C205.327 74.3561 205.048 74.7513 204.881 75.1644C204.745 75.5781 204.674 76.0089 204.666 76.4569C204.655 77.0968 204.916 77.7094 205.45 78.2948C206.016 78.8808 206.891 79.1841 208.075 79.2048ZM234.774 82.0712C231.831 82.0198 229.745 81.3753 228.519 80.1377C227.293 78.8681 226.698 77.1935 226.734 75.1138L226.902 65.5153L223.878 65.4625C223.558 65.4569 223.272 65.3399 223.02 65.1115C222.801 64.8516 222.694 64.5617 222.699 64.2417C222.706 63.8898 222.823 63.6038 223.05 63.3837C223.31 63.1642 223.6 63.0573 223.92 63.0629L226.944 63.1156L227.028 58.2684C227.034 57.9164 227.151 57.6304 227.379 57.4104C227.639 57.1909 227.929 57.0839 228.249 57.0895C228.601 57.0957 228.887 57.2127 229.107 57.4405C229.327 57.6684 229.434 57.9583 229.428 58.3103L229.343 63.1575L235.726 63.2689C236.078 63.2751 236.364 63.3921 236.584 63.62C236.804 63.8479 236.911 64.1378 236.905 64.4897C236.9 64.8097 236.783 65.0957 236.554 65.3477C236.326 65.5678 236.036 65.6747 235.684 65.6686L229.301 65.5572L229.134 75.1557C229.083 78.0993 230.977 79.6045 234.816 79.6716C235.168 79.6777 235.454 79.8107 235.673 80.0706C235.893 80.2985 236 80.5724 235.995 80.8923C235.989 81.2123 235.856 81.498 235.596 81.7495C235.368 81.9695 235.094 82.0768 234.774 82.0712ZM250.456 82.3449C247.384 82.2913 244.918 81.4481 243.059 79.8154C241.231 78.1833 240.342 75.9114 240.393 72.9999C240.427 71.0482 240.873 69.3597 241.73 67.9344C242.587 66.5092 243.71 65.4086 245.1 64.6327C246.522 63.8574 248.08 63.4846 249.776 63.5142C251.472 63.5438 252.89 63.9046 254.03 64.5966C255.17 65.2886 256.019 66.1355 256.578 67.1375C257.169 68.1399 257.456 69.1211 257.439 70.0809C257.419 71.2327 257.033 72.2182 256.283 73.0372C255.565 73.8568 254.214 74.2493 252.23 74.2146L242.823 74.0504C243.046 75.9746 243.852 77.4289 245.243 78.4134C246.667 79.3983 248.418 79.909 250.498 79.9453C251.297 79.9592 252.018 79.9078 252.661 79.791C253.335 79.6748 253.849 79.5557 254.203 79.4339C254.557 79.312 254.783 79.236 254.879 79.2056C255.008 79.1759 255.104 79.1616 255.168 79.1627C255.488 79.1683 255.758 79.301 255.977 79.5609C256.229 79.7893 256.352 80.0635 256.347 80.3834C256.337 80.9273 256.075 81.2908 255.56 81.4739C254.883 81.7181 254.095 81.9284 253.196 82.1047C252.297 82.281 251.384 82.3611 250.456 82.3449ZM249.734 65.9138C248.039 65.8842 246.557 66.4025 245.291 67.4685C244.024 68.5026 243.232 69.8969 242.913 71.6517L252.32 71.8158C254.143 71.8477 255.066 71.2557 255.087 70.0399C255.104 69.048 254.624 68.1275 253.647 67.2783C252.67 66.3971 251.366 65.9423 249.734 65.9138ZM283.667 83.1167C283.187 83.1083 282.839 82.8942 282.622 82.4743C281.693 80.6658 280.721 78.6166 279.705 76.3265C278.721 74.0049 277.741 71.5075 276.763 68.834C276.16 70.3917 275.476 71.98 274.712 73.5989C273.947 75.2178 273.184 76.7727 272.422 78.2637C271.692 79.7231 271.03 81.0238 270.434 82.1656C270.202 82.6096 269.846 82.8274 269.366 82.819L269.27 82.8173C268.758 82.8084 268.394 82.578 268.178 82.1262C267.222 80.0292 266.363 77.9179 265.6 75.7922C264.837 73.6666 264.077 71.349 263.321 68.8394C262.958 67.6169 262.702 66.7003 262.553 66.0896C262.404 65.4789 262.33 65.1095 262.332 64.9815C262.338 64.6616 262.455 64.3916 262.682 64.1715C262.911 63.9195 263.201 63.7965 263.553 63.8027C264.161 63.8133 264.54 64.1079 264.69 64.6866C265.38 67.3231 266.136 69.8647 266.957 72.3114C267.81 74.7586 268.636 76.9654 269.434 78.9316C270.129 77.5995 270.843 76.1558 271.574 74.6003C272.337 73.0454 273.053 71.4736 273.72 69.885C274.42 68.297 275.007 66.787 275.48 65.3551C275.548 65.1002 275.696 64.8948 275.923 64.7387C276.181 64.5832 276.423 64.5074 276.647 64.5113L276.935 64.5163C277.191 64.5208 277.429 64.605 277.65 64.7689C277.872 64.9007 278.029 65.0955 278.12 65.3531C279.002 67.9929 279.919 70.4893 280.87 72.8423C281.853 75.1958 282.792 77.3245 283.687 79.2284C284.586 77.2278 285.521 74.9718 286.493 72.4604C287.465 69.9489 288.292 67.515 288.973 65.1585C289.143 64.5854 289.532 64.3041 290.14 64.3148C290.492 64.3209 290.778 64.4539 290.997 64.7138C291.217 64.9417 291.325 65.2156 291.319 65.5355C291.318 65.5995 291.283 65.7589 291.215 66.0138C291.147 66.2366 291.079 66.4755 291.01 66.7303C290.161 69.5319 289.168 72.331 288.031 75.1276C286.894 77.9242 285.844 80.3542 284.879 82.4177C284.647 82.8937 284.275 83.1273 283.763 83.1183L283.667 83.1167ZM310.011 82.9524C309.32 82.2042 308.792 81.2669 308.428 80.1403C307.322 81.1452 306.108 81.9241 304.786 82.4771C303.497 82.9987 302.101 83.2464 300.597 83.2201C299.125 83.1944 297.962 82.9021 297.108 82.3431C296.253 81.7841 295.657 81.1016 295.319 80.2956C294.981 79.4896 294.818 78.7346 294.83 78.0307C294.844 77.2628 294.985 76.5292 295.253 75.8297C295.554 75.0989 295.997 74.4665 296.582 73.9327C297.395 73.2107 298.478 72.6055 299.83 72.1171C301.183 71.6286 302.835 71.4014 304.787 71.4355C305.811 71.4533 306.898 71.5203 308.048 71.6364C307.945 70.1944 307.485 69.0502 306.668 68.2038C305.851 67.3254 304.611 66.8717 302.947 66.8427C302.307 66.8315 301.65 66.884 300.976 67.0003C300.302 67.0845 299.788 67.1876 299.434 67.3094C299.016 67.4621 298.71 67.5368 298.518 67.5335C298.198 67.5279 297.912 67.4109 297.66 67.1824C297.409 66.922 297.286 66.6478 297.291 66.3599C297.301 65.752 297.58 65.3568 298.127 65.1743C298.674 65.0238 299.397 64.8604 300.296 64.6841C301.227 64.5083 302.125 64.4279 302.989 64.443C305.612 64.4888 307.52 65.2422 308.71 66.7032C309.933 68.1648 310.524 70.0474 310.484 72.351L310.408 76.7184C310.389 77.8062 310.485 78.72 310.696 79.4598C310.94 80.1682 311.297 80.7985 311.767 81.3508C311.987 81.5787 312.094 81.8526 312.089 82.1725C312.083 82.4925 311.95 82.7782 311.69 83.0297C311.462 83.2498 311.188 83.357 310.868 83.3514C310.548 83.3458 310.262 83.2128 310.011 82.9524ZM300.639 80.8205C302.014 80.8445 303.332 80.5635 304.59 79.9773C305.849 79.3592 306.986 78.4189 308 77.1564L308.054 74.0369C306.872 73.9202 305.769 73.853 304.745 73.8351C301.706 73.782 299.551 74.3685 298.282 75.5946C297.891 75.9718 297.612 76.367 297.445 76.7801C297.309 77.1938 297.238 77.6247 297.23 78.0726C297.219 78.7125 297.48 79.3251 298.014 79.9106C298.58 80.4965 299.455 80.7998 300.639 80.8205ZM316.874 91.8575C316.586 91.8525 316.3 91.7355 316.016 91.5065C315.764 91.2781 315.641 91.0039 315.646 90.6839C315.655 90.204 315.869 89.8397 316.289 89.591C317.647 88.8466 318.959 87.9413 320.225 86.8753C321.492 85.8412 322.733 84.3746 323.951 82.4756C322.768 80.5347 321.511 78.2884 320.18 75.7368C318.88 73.1857 317.742 70.5414 316.766 67.804C316.523 67.0636 316.355 66.5806 316.263 66.355C316.203 66.0979 316.175 65.9054 316.177 65.7774C316.181 65.5214 316.298 65.2674 316.526 65.0154C316.755 64.7633 317.029 64.6401 317.349 64.6457C317.605 64.6501 317.843 64.7343 318.065 64.8982C318.286 65.0301 318.443 65.2249 318.534 65.4825C319.6 68.6056 320.736 71.3778 321.942 73.7992C323.148 76.2206 324.279 78.3367 325.336 80.1474C326.127 78.785 326.906 77.2944 327.67 75.6755C328.466 74.0571 329.199 72.4057 329.869 70.7211C330.571 69.0051 331.159 67.3671 331.635 65.8072C331.805 65.234 332.194 64.9528 332.802 64.9634C333.154 64.9695 333.439 65.1026 333.659 65.3624C333.879 65.5903 333.986 65.8642 333.981 66.1842C333.979 66.2802 333.911 66.519 333.776 66.9007C333.673 67.283 333.571 67.6172 333.47 67.9035C332.998 69.3035 332.378 70.9089 331.61 72.7198C330.843 74.4987 330.011 76.3084 329.115 78.1491C328.251 79.9583 327.375 81.5912 326.485 83.0479C325.035 85.423 323.564 87.2376 322.069 88.4917C320.575 89.7458 319.02 90.8228 317.404 91.7228C317.275 91.8165 317.098 91.8614 316.874 91.8575ZM362.77 84.3054C359.827 84.254 357.742 83.6095 356.515 82.3719C355.289 81.1023 354.694 79.4277 354.73 77.348L354.898 67.7495L351.874 67.6967C351.554 67.6911 351.268 67.5741 351.016 67.3457C350.797 67.0858 350.69 66.7959 350.696 66.4759C350.702 66.124 350.819 65.838 351.047 65.6179C351.306 65.3984 351.596 65.2915 351.916 65.2971L354.94 65.3498L355.024 60.5026C355.031 60.1506 355.148 59.8646 355.375 59.6446C355.635 59.4251 355.925 59.3181 356.245 59.3237C356.597 59.3298 356.883 59.4468 357.103 59.6747C357.323 59.9026 357.43 60.1925 357.424 60.5445L357.339 65.3917L363.722 65.5031C364.074 65.5093 364.36 65.6263 364.58 65.8542C364.801 66.082 364.907 66.3719 364.901 66.7239C364.896 67.0438 364.779 67.3298 364.55 67.5819C364.322 67.802 364.033 67.9089 363.681 67.9028L357.298 67.7913L357.13 77.3899C357.079 80.3334 358.973 81.8387 362.812 81.9057C363.164 81.9119 363.45 82.0449 363.669 82.3048C363.889 82.5326 363.997 82.8065 363.991 83.1265C363.985 83.4465 363.852 83.7322 363.592 83.9837C363.364 84.2037 363.09 84.311 362.77 84.3054ZM378.064 65.5614C380.015 65.5955 381.687 66.0727 383.079 66.9932C384.504 67.8822 385.587 69.0853 386.329 70.6024C387.103 72.0882 387.474 73.7429 387.442 75.5666C387.412 77.3264 386.984 78.9031 386.16 80.297C385.367 81.6913 384.244 82.7919 382.79 83.5987C381.367 84.406 379.68 84.7926 377.729 84.7585C375.809 84.725 374.136 84.2797 372.711 83.4227C371.286 82.5657 370.186 81.4104 369.411 79.9566C368.668 78.5034 368.312 76.897 368.343 75.1372C368.374 73.3455 368.787 71.7205 369.58 70.2621C370.374 68.8037 371.498 67.6552 372.953 66.8164C374.408 65.9457 376.112 65.5274 378.064 65.5614ZM378.022 67.9611C376.55 67.9354 375.264 68.249 374.165 68.9019C373.097 69.5554 372.266 70.437 371.67 71.5468C371.075 72.6245 370.766 73.8353 370.743 75.1791C370.708 77.1628 371.319 78.8537 372.574 80.2519C373.863 81.6186 375.595 82.3209 377.77 82.3589C379.946 82.3968 381.686 81.7551 382.989 80.4336C384.324 79.1128 385.009 77.4765 385.043 75.5247C385.067 74.149 384.801 72.8961 384.244 71.7662C383.688 70.6364 382.872 69.726 381.796 69.0351C380.751 68.3448 379.494 67.9868 378.022 67.9611ZM421.616 62.8171C420.854 62.4837 420.01 62.213 419.086 62.0048C418.193 61.7972 417.011 61.6806 415.539 61.6549C413.908 61.6264 412.604 62.0197 411.63 62.8348C410.656 63.6179 410.16 64.5214 410.143 65.5453C410.125 66.5691 410.556 67.5048 411.438 68.3523C412.319 69.1998 414.05 69.9501 416.631 70.6033C418.926 71.1554 420.69 71.8423 421.924 72.664C423.19 73.4862 424.07 74.4137 424.564 75.4465C425.059 76.4473 425.295 77.5556 425.274 78.7714C425.253 79.9552 424.93 81.0857 424.303 82.1629C423.708 83.2087 422.733 84.0718 421.377 84.7523C420.054 85.4013 418.288 85.7065 416.08 85.668C412.945 85.6132 410.062 84.8268 407.432 83.3087C407.021 83.0455 406.819 82.6899 406.827 82.242C406.832 81.954 406.948 81.684 407.177 81.4319C407.405 81.1799 407.695 81.0569 408.047 81.0631C408.239 81.0664 408.431 81.1178 408.621 81.2171C410.87 82.5366 413.371 83.2203 416.122 83.2683C418.298 83.3063 419.953 82.8871 421.089 82.0108C422.257 81.1031 422.852 80.0093 422.874 78.7295C422.898 77.3857 422.373 76.2564 421.301 75.3415C420.261 74.4272 418.53 73.6449 416.109 72.9945C413.848 72.379 412.1 71.6924 410.865 70.9347C409.662 70.1776 408.828 69.3309 408.365 68.3947C407.933 67.459 407.727 66.4313 407.746 65.3114C407.764 64.2876 408.069 63.3168 408.661 62.3989C409.286 61.4497 410.179 60.6812 411.342 60.0934C412.504 59.5056 413.917 59.2262 415.581 59.2552C417.341 59.286 418.746 59.4545 419.797 59.7609C420.88 60.0358 422.01 60.4236 423.185 60.9242C423.694 61.1251 423.943 61.4975 423.934 62.0414C423.928 62.3614 423.795 62.6471 423.535 62.8986C423.307 63.1187 423.033 63.2259 422.713 63.2203C422.649 63.2192 422.553 63.2015 422.426 63.1673C422.299 63.1011 422.029 62.9843 421.616 62.8171ZM459.503 85.9939C459.183 85.9883 458.897 85.8713 458.645 85.6428C458.426 85.383 458.319 85.093 458.324 84.7731L458.5 74.6946C458.533 72.8069 458.172 71.4724 457.418 70.6911C456.695 69.9104 455.742 69.5097 454.559 69.489C453.375 69.4684 452.217 69.7842 451.085 70.4366C449.954 71.0889 448.915 71.9189 447.97 72.9266L447.766 84.5888C447.76 84.9087 447.643 85.1948 447.415 85.4468C447.187 85.6669 446.897 85.7738 446.545 85.7677C446.225 85.7621 445.939 85.6451 445.687 85.4166C445.468 85.1568 445.361 84.8669 445.366 84.5469L445.542 74.4684C445.575 72.5807 445.214 71.2462 444.46 70.4649C443.737 69.6842 442.784 69.2835 441.6 69.2629C440.417 69.2422 439.242 69.5898 438.078 70.3055C436.914 70.9893 435.859 71.835 434.913 72.8427L434.712 84.3609C434.706 84.6809 434.589 84.9669 434.361 85.2189C434.133 85.439 433.843 85.546 433.491 85.5398C433.171 85.5342 432.885 85.4172 432.633 85.1888C432.414 84.9289 432.307 84.639 432.312 84.3191L432.599 67.9056C432.605 67.5536 432.722 67.2676 432.95 67.0475C433.21 66.828 433.5 66.7211 433.82 66.7267C434.171 66.7328 434.457 66.8498 434.678 67.0777C434.898 67.3056 435.005 67.5955 434.998 67.9474L434.97 69.5792C436.008 68.7652 437.092 68.112 438.221 67.6196C439.35 67.0953 440.491 66.8431 441.642 66.8632C442.89 66.885 444.022 67.1288 445.038 67.5946C446.054 68.0604 446.823 68.954 447.344 70.2752C448.449 69.3024 449.615 68.5226 450.841 67.9359C452.099 67.3498 453.353 67.0676 454.6 67.0894C455.784 67.1101 456.852 67.3367 457.805 67.7694C458.758 68.2021 459.512 68.9674 460.069 70.0653C460.659 71.1318 460.936 72.6888 460.9 74.7365L460.724 84.815C460.718 85.1349 460.601 85.4209 460.373 85.673C460.145 85.893 459.855 86 459.503 85.9939ZM481.969 85.9539C481.278 85.2058 480.75 84.2684 480.386 83.1419C479.28 84.1467 478.066 84.9257 476.745 85.4787C475.455 86.0003 474.059 86.2479 472.555 86.2217C471.083 86.196 469.92 85.9036 469.066 85.3446C468.211 84.7856 467.615 84.1031 467.277 83.2971C466.939 82.4911 466.776 81.7361 466.789 81.0322C466.802 80.2644 466.943 79.5307 467.211 78.8313C467.512 78.1004 467.955 77.4681 468.54 76.9342C469.353 76.2123 470.436 75.6071 471.789 75.1186C473.141 74.6301 474.794 74.4029 476.745 74.437C477.769 74.4549 478.856 74.5219 480.006 74.638C479.903 73.1959 479.443 72.0517 478.626 71.2053C477.809 70.327 476.569 69.8732 474.905 69.8442C474.265 69.833 473.608 69.8856 472.934 70.0018C472.261 70.0861 471.747 70.1891 471.392 70.311C470.974 70.4637 470.668 70.5384 470.476 70.535C470.156 70.5294 469.87 70.4124 469.618 70.184C469.367 69.9236 469.244 69.6494 469.249 69.3614C469.259 68.7535 469.538 68.3583 470.086 68.1758C470.632 68.0253 471.355 67.8619 472.254 67.6856C473.186 67.5098 474.083 67.4295 474.947 67.4446C477.571 67.4904 479.478 68.2438 480.668 69.7048C481.891 71.1663 482.482 73.0489 482.442 75.3526L482.366 79.7199C482.347 80.8077 482.443 81.7216 482.654 82.4614C482.898 83.1697 483.255 83.8 483.725 84.3523C483.945 84.5802 484.053 84.8541 484.047 85.1741C484.041 85.494 483.908 85.7798 483.648 86.0312C483.42 86.2513 483.146 86.3585 482.826 86.353C482.506 86.3474 482.221 86.2144 481.969 85.9539ZM472.597 83.822C473.973 83.8461 475.29 83.565 476.548 82.9789C477.807 82.3607 478.944 81.4204 479.958 80.1579L480.012 77.0384C478.83 76.9218 477.727 76.8545 476.703 76.8366C473.664 76.7836 471.509 77.3701 470.24 78.5961C469.849 78.9733 469.57 79.3685 469.403 79.7817C469.268 80.1954 469.196 80.6262 469.188 81.0741C469.177 81.714 469.438 82.3267 469.972 82.9121C470.538 83.4981 471.413 83.8014 472.597 83.822ZM491.186 86.5469C490.866 86.5413 490.58 86.4243 490.327 86.1958C490.108 85.936 490.001 85.6461 490.007 85.3261L490.293 68.9126C490.299 68.5607 490.416 68.2747 490.644 68.0546C490.904 67.8351 491.194 67.7282 491.514 67.7337C491.866 67.7399 492.152 67.8569 492.372 68.0848C492.592 68.3126 492.699 68.6026 492.693 68.9545L492.643 71.7861C493.914 70.496 495.259 69.5274 496.679 68.88C498.098 68.2327 499.464 67.9205 500.776 67.9434C501.128 67.9496 501.398 68.0663 501.586 68.2936C501.806 68.4895 501.914 68.7474 501.908 69.0673C501.895 69.8032 501.536 70.213 500.831 70.2967C498.971 70.4883 497.393 71.0528 496.096 71.9904C494.8 72.9279 493.626 74.1556 492.575 75.6735L492.406 85.368C492.401 85.6879 492.284 85.974 492.055 86.226C491.827 86.4461 491.537 86.553 491.186 86.5469ZM516.825 86.9944C513.881 86.943 511.796 86.2985 510.57 85.0609C509.344 83.7914 508.749 82.1167 508.785 80.037L508.953 70.4385L505.929 70.3857C505.609 70.3801 505.323 70.2631 505.071 70.0347C504.852 69.7748 504.745 69.4849 504.75 69.165C504.756 68.813 504.873 68.527 505.101 68.307C505.361 68.0875 505.651 67.9805 505.971 67.9861L508.994 68.0389L509.079 63.1916C509.085 62.8397 509.202 62.5537 509.43 62.3336C509.69 62.1141 509.98 62.0071 510.3 62.0127C510.652 62.0189 510.938 62.1359 511.158 62.3638C511.378 62.5916 511.485 62.8815 511.479 63.2335L511.394 68.0807L517.777 68.1922C518.129 68.1983 518.415 68.3153 518.635 68.5432C518.855 68.7711 518.962 69.061 518.956 69.4129C518.95 69.7329 518.833 70.0189 518.605 70.2709C518.377 70.491 518.087 70.5979 517.735 70.5918L511.352 70.4804L511.185 80.0789C511.133 83.0225 513.027 84.5278 516.867 84.5948C517.219 84.6009 517.504 84.7339 517.724 84.9938C517.944 85.2217 518.051 85.4956 518.046 85.8155C518.04 86.1355 517.907 86.4212 517.647 86.6727C517.419 86.8928 517.145 87 516.825 86.9944ZM532.506 87.2681C529.435 87.2145 526.969 86.3714 525.109 84.7387C523.282 83.1065 522.393 80.8347 522.444 77.9231C522.478 75.9714 522.924 74.2829 523.781 72.8576C524.638 71.4324 525.761 70.3318 527.151 69.556C528.573 68.7807 530.131 68.4078 531.827 68.4374C533.523 68.467 534.941 68.8278 536.081 69.5198C537.221 70.2118 538.07 71.0588 538.629 72.0607C539.219 73.0631 539.506 74.0443 539.49 75.0041C539.469 76.156 539.084 77.1414 538.334 77.9604C537.615 78.78 536.264 79.1725 534.281 79.1379L524.874 78.9737C525.097 80.8978 525.903 82.3521 527.294 83.3366C528.717 84.3216 530.469 84.8322 532.548 84.8685C533.348 84.8825 534.069 84.831 534.711 84.7142C535.385 84.598 535.9 84.4789 536.254 84.3571C536.608 84.2353 536.833 84.1592 536.93 84.1289C537.058 84.0991 537.155 84.0848 537.219 84.0859C537.539 84.0915 537.808 84.2242 538.028 84.4841C538.28 84.7125 538.403 84.9867 538.398 85.3066C538.388 85.8506 538.126 86.214 537.61 86.3971C536.934 86.6413 536.146 86.8516 535.247 87.0279C534.348 87.2043 533.434 87.2843 532.506 87.2681ZM531.785 70.837C530.089 70.8074 528.608 71.3257 527.341 72.3917C526.075 73.4258 525.283 74.8202 524.964 76.5749L534.371 76.7391C536.194 76.7709 537.117 76.1789 537.138 74.9631C537.155 73.9712 536.675 73.0507 535.698 72.2015C534.721 71.3204 533.417 70.8655 531.785 70.837ZM547.286 87.5261C546.966 87.5205 546.68 87.4035 546.428 87.1751C546.209 86.9152 546.102 86.6253 546.107 86.3054L546.394 69.8919C546.4 69.5399 546.517 69.2539 546.745 69.0338C547.005 68.8144 547.295 68.7074 547.615 68.713C547.967 68.7191 548.253 68.8361 548.473 69.064C548.693 69.2919 548.8 69.5818 548.794 69.9337L548.744 72.7653C550.015 71.4753 551.36 70.5066 552.779 69.8593C554.199 69.212 555.565 68.8998 556.876 68.9227C557.228 68.9288 557.498 69.0455 557.686 69.2728C557.907 69.4687 558.015 69.7266 558.009 70.0466C557.996 70.7825 557.637 71.1923 556.931 71.276C555.072 71.4675 553.494 72.0321 552.197 72.9696C550.901 73.9071 549.727 75.1348 548.676 76.6527L548.507 86.3472C548.502 86.6672 548.384 86.9532 548.156 87.2052C547.928 87.4253 547.638 87.5323 547.286 87.5261ZM578.327 88.0679C578.008 88.0624 577.722 87.9453 577.469 87.7169C577.25 87.457 577.143 87.1671 577.149 86.8472L577.555 63.5707C577.56 63.2508 577.661 62.9805 577.857 62.7599C578.086 62.5078 578.344 62.3843 578.632 62.3893L592.07 62.6239C592.422 62.63 592.708 62.7471 592.928 62.9749C593.148 63.2028 593.255 63.4927 593.249 63.8447C593.243 64.1646 593.126 64.4506 592.897 64.7027C592.67 64.9227 592.38 65.0297 592.028 65.0235L579.934 64.8124L579.788 73.1632L589.818 73.3382C590.17 73.3444 590.456 73.4614 590.676 73.6893C590.896 73.9171 591.003 74.2071 590.997 74.559C590.992 74.8789 590.875 75.165 590.646 75.417C590.418 75.6371 590.128 75.744 589.776 75.7379L579.746 75.5628L579.569 85.6892L591.759 85.902C592.111 85.9082 592.397 86.0252 592.617 86.2531C592.837 86.4809 592.944 86.7708 592.938 87.1228C592.933 87.4427 592.816 87.7287 592.587 87.9808C592.359 88.2008 592.069 88.3078 591.717 88.3017L578.327 88.0679ZM614.865 88.7057C614.545 88.7001 614.259 88.5831 614.007 88.3547C613.787 88.0948 613.68 87.8049 613.686 87.4849L613.853 77.8864C613.888 75.9027 613.529 74.4722 612.776 73.5949C612.056 72.6862 611.056 72.2207 609.776 72.1984C608.432 72.1749 607.146 72.5205 605.917 73.2352C604.689 73.9179 603.554 74.7622 602.512 75.7682L602.311 87.2864C602.306 87.6063 602.189 87.8924 601.96 88.1444C601.732 88.3645 601.443 88.4714 601.091 88.4653C600.771 88.4597 600.485 88.3427 600.233 88.1142C600.013 87.8544 599.906 87.5645 599.912 87.2445L600.198 70.831C600.204 70.4791 600.321 70.1931 600.549 69.973C600.809 69.7535 601.099 69.6466 601.419 69.6521C601.771 69.6583 602.057 69.7753 602.277 70.0032C602.497 70.231 602.604 70.521 602.598 70.8729L602.568 72.6006C603.671 71.7558 604.819 71.0717 606.012 70.5484C607.205 70.0252 608.474 69.7753 609.818 69.7987C611.034 69.82 612.133 70.0792 613.117 70.5764C614.1 71.0737 614.87 71.9192 615.425 73.1131C616.013 74.2755 616.289 75.8806 616.253 77.9283L616.085 87.5268C616.08 87.8468 615.963 88.1328 615.734 88.3848C615.506 88.6049 615.216 88.7118 614.865 88.7057ZM632.241 89.009C629.17 88.9554 626.704 88.1122 624.844 86.4795C623.016 84.8474 622.128 82.5755 622.179 79.664C622.213 77.7123 622.658 76.0238 623.515 74.5985C624.372 73.1733 625.496 72.0727 626.886 71.2968C628.307 70.5215 629.866 70.1487 631.562 70.1783C633.258 70.2079 634.675 70.5687 635.816 71.2607C636.956 71.9527 637.805 72.7996 638.364 73.8015C638.954 74.804 639.241 75.7852 639.224 76.745C639.204 77.8968 638.819 78.8823 638.069 79.7013C637.35 80.5209 635.999 80.9134 634.015 80.8787L624.609 80.7145C624.831 82.6387 625.638 84.093 627.029 85.0774C628.452 86.0624 630.203 86.5731 632.283 86.6094C633.083 86.6233 633.804 86.5719 634.446 86.4551C635.12 86.3388 635.634 86.2198 635.989 86.098C636.343 85.9761 636.568 85.9001 636.665 85.8697C636.793 85.84 636.89 85.8256 636.954 85.8268C637.273 85.8323 637.543 85.9651 637.763 86.2249C638.015 86.4534 638.138 86.7276 638.132 87.0475C638.123 87.5914 637.861 87.9549 637.345 88.138C636.669 88.3822 635.881 88.5925 634.982 88.7688C634.083 88.9451 633.169 89.0252 632.241 89.009ZM631.52 72.5779C629.824 72.5483 628.343 73.0665 627.076 74.1326C625.81 75.1667 625.017 76.561 624.699 78.3157L634.105 78.4799C635.929 78.5118 636.852 77.9198 636.873 76.704C636.89 75.7121 636.41 74.7916 635.433 73.9424C634.456 73.0612 633.152 72.6064 631.52 72.5779ZM647.021 89.267C646.701 89.2614 646.415 89.1444 646.163 88.916C645.944 88.6561 645.837 88.3662 645.842 88.0462L646.129 71.6327C646.135 71.2808 646.252 70.9948 646.48 70.7747C646.74 70.5552 647.03 70.4483 647.35 70.4539C647.701 70.46 647.987 70.577 648.208 70.8049C648.428 71.0328 648.535 71.3227 648.528 71.6746L648.479 74.5062C649.75 73.2162 651.095 72.2475 652.514 71.6002C653.934 70.9528 655.299 70.6406 656.611 70.6635C656.963 70.6697 657.233 70.7864 657.421 71.0137C657.642 71.2096 657.749 71.4675 657.744 71.7875C657.731 72.5234 657.372 72.9331 656.666 73.0168C654.807 73.2084 653.228 73.773 651.932 74.7105C650.635 75.648 649.462 76.8757 648.411 78.3936L648.242 88.0881C648.236 88.4081 648.119 88.6941 647.891 88.9461C647.663 89.1662 647.373 89.2731 647.021 89.267ZM665.253 98.2746C664.933 98.269 664.648 98.136 664.396 97.8755C664.176 97.6477 664.069 97.3738 664.074 97.0538C664.08 96.7338 664.197 96.4478 664.425 96.1958C664.685 95.9763 664.975 95.8693 665.295 95.8749C668.719 95.9347 671.23 95.0824 672.829 93.318C674.459 91.5862 675.3 89.2645 675.351 86.353L675.354 86.161C674.281 87.1344 673.116 87.8662 671.859 88.3563C670.603 88.8465 669.318 89.0801 668.007 89.0572C666.695 89.0343 665.42 88.724 664.182 88.1263C662.977 87.5292 661.985 86.5997 661.206 85.338C660.46 84.0767 660.104 82.4703 660.138 80.5186C660.174 78.5029 660.668 76.7673 661.622 75.3117C662.575 73.8561 663.795 72.7412 665.28 71.967C666.798 71.1934 668.357 70.8205 669.957 70.8485C671.077 70.868 672.067 70.9813 672.927 71.1884C673.82 71.396 674.711 71.6836 675.601 72.0511C675.671 71.7003 675.819 71.4309 676.047 71.2428C676.274 71.0548 676.532 70.9632 676.82 70.9683C677.172 70.9744 677.458 71.0914 677.678 71.3193C677.898 71.5472 678.005 71.8371 677.999 72.189L677.751 86.3949C677.687 90.0423 676.66 92.9528 674.67 95.1264C672.679 97.3 669.541 98.3494 665.253 98.2746ZM668.049 86.6576C669.424 86.6816 670.758 86.3528 672.05 85.6713C673.343 84.9577 674.465 83.9211 675.417 82.5615L675.555 74.6907C674.57 74.2255 673.664 73.8736 672.837 73.6352C672.009 73.3967 671.035 73.2676 669.915 73.2481C668.699 73.2269 667.526 73.5104 666.395 74.0988C665.265 74.6872 664.338 75.5351 663.615 76.6427C662.923 77.7508 662.564 79.0567 662.538 80.5605C662.514 81.9363 662.766 83.0768 663.294 83.9822C663.823 84.8876 664.515 85.5557 665.372 85.9868C666.228 86.4178 667.121 86.6414 668.049 86.6576ZM684.693 98.2778C684.405 98.2728 684.119 98.1558 683.835 97.9268C683.583 97.6984 683.46 97.4242 683.465 97.1042C683.474 96.6243 683.688 96.26 684.108 96.0113C685.466 95.2669 686.778 94.3616 688.044 93.2956C689.311 92.2615 690.552 90.795 691.77 88.8959C690.587 86.955 689.33 84.7087 687.999 82.1571C686.699 79.606 685.561 76.9617 684.585 74.2243C684.342 73.4839 684.174 73.0009 684.082 72.7753C684.022 72.5182 683.994 72.3257 683.996 72.1977C684 71.9417 684.117 71.6877 684.345 71.4357C684.574 71.1836 684.848 71.0604 685.168 71.066C685.424 71.0704 685.662 71.1546 685.884 71.3185C686.105 71.4504 686.262 71.6452 686.353 71.9028C687.419 75.0259 688.555 77.7981 689.761 80.2195C690.967 82.6409 692.098 84.757 693.155 86.5677C693.946 85.2053 694.725 83.7147 695.489 82.0958C696.285 80.4774 697.018 78.826 697.688 77.1414C698.39 75.4254 698.978 73.7874 699.454 72.2275C699.624 71.6544 700.013 71.3731 700.621 71.3837C700.973 71.3899 701.258 71.5229 701.478 71.7827C701.698 72.0106 701.805 72.2845 701.8 72.6045C701.798 72.7005 701.73 72.9393 701.595 73.321C701.492 73.7033 701.39 74.0375 701.289 74.3238C700.817 75.7238 700.197 77.3292 699.429 79.1401C698.662 80.919 697.83 82.7287 696.934 84.5694C696.07 86.3786 695.194 88.0115 694.304 89.4682C692.854 91.8433 691.383 93.6579 689.888 94.912C688.394 96.1661 686.839 97.2431 685.223 98.1431C685.094 98.2368 684.917 98.2817 684.693 98.2778ZM739.572 68.415C738.019 67.5558 736.042 67.1052 733.643 67.0634C731.723 67.0299 729.939 67.4628 728.291 68.3622C726.675 69.2621 725.357 70.5353 724.336 72.1817C723.316 73.7962 722.786 75.7072 722.748 77.9149C722.712 79.9306 723.112 81.7618 723.948 83.4087C724.784 85.0235 726.009 86.3251 727.624 87.3134C729.272 88.2703 731.247 88.7689 733.551 88.8091C734.703 88.8292 735.777 88.7359 736.772 88.5293C737.8 88.3232 738.718 88.0191 739.525 87.6172C739.686 87.524 739.863 87.479 740.055 87.4824C740.407 87.4885 740.693 87.6055 740.913 87.8334C741.133 88.0613 741.24 88.3512 741.234 88.7031C741.225 89.2151 740.995 89.5631 740.544 89.7473C739.575 90.2424 738.496 90.6077 737.308 90.843C736.119 91.1103 734.853 91.2322 733.509 91.2087C730.694 91.1596 728.288 90.5415 726.292 89.3545C724.329 88.168 722.836 86.5737 721.815 84.5716C720.794 82.5695 720.305 80.3366 720.348 77.873C720.395 75.1854 721.044 72.8444 722.295 70.8499C723.546 68.8554 725.173 67.3156 727.176 66.2304C729.179 65.1452 731.349 64.623 733.684 64.6637C736.564 64.714 738.923 65.2672 740.761 66.3235C741.172 66.5867 741.374 66.9423 741.366 67.3902C741.361 67.6782 741.244 67.9482 741.016 68.2002C740.787 68.4523 740.497 68.5752 740.145 68.5691C739.953 68.5657 739.762 68.5144 739.572 68.415ZM763.436 91.299C763.116 91.2934 762.83 91.1764 762.578 90.948C762.358 90.6881 762.251 90.3982 762.257 90.0783L762.424 80.4797C762.459 78.496 762.1 77.0655 761.347 76.1883C760.627 75.2796 759.627 74.814 758.347 74.7917C757.003 74.7682 755.717 75.1138 754.488 75.8285C753.26 76.5112 752.125 77.3555 751.084 78.3615L750.883 89.8797C750.877 90.1997 750.76 90.4857 750.531 90.7377C750.304 90.9578 750.014 91.0647 749.662 91.0586C749.342 91.053 749.056 90.936 748.804 90.7076C748.584 90.4477 748.477 90.1578 748.483 89.8378L748.911 65.3136C748.917 64.9616 749.034 64.6756 749.262 64.4556C749.522 64.2361 749.812 64.1291 750.132 64.1347C750.484 64.1408 750.77 64.2578 750.99 64.4857C751.21 64.7136 751.317 65.0035 751.311 65.3555L751.139 75.194C752.241 74.3811 753.389 73.713 754.582 73.1897C755.776 72.6345 757.045 72.3686 758.389 72.3921C759.605 72.4133 760.704 72.6725 761.688 73.1697C762.671 73.667 763.441 74.5125 763.996 75.7064C764.584 76.8689 764.86 78.4739 764.824 80.5216L764.656 90.1201C764.651 90.4401 764.534 90.7261 764.305 90.9781C764.078 91.1982 763.788 91.3052 763.436 91.299ZM780.424 72.5847C782.376 72.6187 784.048 73.096 785.44 74.0164C786.865 74.9054 787.948 76.1085 788.69 77.6257C789.464 79.1114 789.835 80.7661 789.803 82.5899C789.772 84.3496 789.345 85.9264 788.52 87.3202C787.728 88.7146 786.604 89.8151 785.15 90.6219C783.728 91.4292 782.041 91.8158 780.089 91.7817C778.169 91.7482 776.497 91.303 775.072 90.446C773.646 89.589 772.546 88.4336 771.772 86.9798C771.029 85.5267 770.673 83.9202 770.704 82.1605C770.735 80.3687 771.147 78.7437 771.941 77.2853C772.734 75.8269 773.859 74.6784 775.314 73.8397C776.769 72.9689 778.473 72.5506 780.424 72.5847ZM780.382 74.9843C778.911 74.9586 777.625 75.2722 776.525 75.9251C775.458 76.5786 774.626 77.4602 774.031 78.57C773.436 79.6478 773.127 80.8586 773.103 82.2024C773.069 84.1861 773.679 85.877 774.935 87.2751C776.223 88.6418 777.955 89.3441 780.131 89.3821C782.307 89.4201 784.046 88.7783 785.349 87.4569C786.685 86.136 787.369 84.4997 787.403 82.548C787.427 81.1722 787.161 79.9194 786.605 78.7895C786.049 77.6596 785.232 76.7492 784.156 76.0583C783.112 75.368 781.854 75.01 780.382 74.9843ZM798.02 63.2423C798.564 63.2518 799.024 63.4839 799.4 63.9385C799.776 64.3611 799.958 64.9404 799.945 65.6763C799.933 66.4122 799.731 66.9687 799.34 67.346C798.95 67.7232 798.498 67.9074 797.986 67.8984C797.41 67.8884 796.918 67.6878 796.509 67.2966C796.132 66.8739 795.95 66.3107 795.962 65.6068C795.975 64.8709 796.177 64.2983 796.568 63.8891C796.96 63.4479 797.444 63.2323 798.02 63.2423ZM796.675 74.2605C796.681 73.9086 796.798 73.6226 797.026 73.4025C797.286 73.183 797.576 73.0761 797.896 73.0817C798.248 73.0878 798.534 73.2048 798.754 73.4327C798.974 73.6606 799.081 73.9505 799.075 74.3024L798.788 90.7159C798.783 91.0359 798.666 91.3219 798.437 91.5739C798.209 91.794 797.919 91.9009 797.567 91.8948C797.248 91.8892 796.962 91.7722 796.709 91.5438C796.49 91.2839 796.383 90.994 796.389 90.674L796.675 74.2605ZM819.27 76.3832C818.124 76.0111 817.007 75.8156 815.919 75.7966C813.488 75.7542 811.572 76.4248 810.171 77.8086C808.804 79.1609 808.101 80.9249 808.063 83.1006C808.03 84.9883 808.674 86.5678 809.996 87.8391C811.318 89.1104 813.195 89.7672 815.627 89.8097C816.523 89.8253 817.308 89.775 817.982 89.6587C818.657 89.5105 819.187 89.3757 819.573 89.2544C819.927 89.1326 820.153 89.0565 820.249 89.0262C820.378 88.9964 820.474 88.9821 820.538 88.9832C820.858 88.9888 821.128 89.1215 821.347 89.3814C821.599 89.6099 821.722 89.884 821.717 90.204C821.707 90.7479 821.445 91.1114 820.93 91.2944C820.221 91.5701 819.417 91.7961 818.518 91.9724C817.65 92.1493 816.673 92.2283 815.585 92.2093C813.409 92.1713 811.577 91.7393 810.087 90.9131C808.598 90.055 807.481 88.9473 806.736 87.5901C805.992 86.201 805.635 84.6905 805.663 83.0587C805.696 81.171 806.125 79.4983 806.951 78.0404C807.777 76.5506 808.949 75.4029 810.468 74.5973C811.986 73.7597 813.818 73.3596 815.961 73.397C817.593 73.4255 819.14 73.7085 820.603 74.2461C821.144 74.4476 821.409 74.8523 821.398 75.4602C821.393 75.7481 821.26 76.0179 821 76.2694C820.74 76.4889 820.45 76.5958 820.13 76.5902C820.034 76.5886 819.747 76.5195 819.27 76.3832ZM836.632 92.5767C833.56 92.523 831.095 91.6799 829.235 90.0472C827.407 88.415 826.519 86.1432 826.57 83.2316C826.604 81.2799 827.049 79.5914 827.906 78.1662C828.763 76.7409 829.887 75.6404 831.276 74.8645C832.698 74.0892 834.257 73.7163 835.953 73.7459C837.648 73.7755 839.066 74.1363 840.206 74.8283C841.346 75.5203 842.196 76.3673 842.754 77.3692C843.345 78.3717 843.632 79.3528 843.615 80.3127C843.595 81.4645 843.21 82.4499 842.459 83.2689C841.741 84.0885 840.39 84.481 838.406 84.4464L829 84.2822C829.222 86.2064 830.029 87.6607 831.42 88.6451C832.843 89.6301 834.594 90.1407 836.674 90.177C837.474 90.191 838.195 90.1396 838.837 90.0228C839.511 89.9065 840.025 89.7875 840.379 89.6656C840.734 89.5438 840.959 89.4677 841.055 89.4374C841.184 89.4076 841.28 89.3933 841.344 89.3944C841.664 89.4 841.934 89.5327 842.153 89.7926C842.405 90.021 842.529 90.2952 842.523 90.6152C842.514 91.1591 842.251 91.5226 841.736 91.7056C841.06 91.9498 840.272 92.1601 839.373 92.3365C838.473 92.5128 837.56 92.5929 836.632 92.5767ZM835.911 76.1456C834.215 76.116 832.734 76.6342 831.467 77.7003C830.201 78.7343 829.408 80.1287 829.089 81.8834L838.496 82.0476C840.32 82.0794 841.242 81.4874 841.263 80.2716C841.281 79.2798 840.801 78.3593 839.823 77.5101C838.847 76.6289 837.542 76.1741 835.911 76.1456ZM861.062 76.9686C860.743 76.8671 860.185 76.7453 859.388 76.6034C858.622 76.462 857.775 76.3832 856.847 76.367C855.28 76.3396 854.059 76.5904 853.186 77.1192C852.312 77.648 851.869 78.3124 851.855 79.1123C851.842 79.8162 852.184 80.3982 852.88 80.8585C853.609 81.2872 854.804 81.5961 856.465 81.7851L858.381 82.0106C860.01 82.1991 861.283 82.5894 862.201 83.1815C863.119 83.7736 863.763 84.4729 864.133 85.2795C864.503 86.0541 864.681 86.8733 864.666 87.7372C864.651 88.6011 864.412 89.461 863.949 90.3171C863.487 91.1411 862.69 91.8313 861.56 92.3877C860.463 92.9126 858.891 93.1572 856.843 93.1215C855.659 93.1008 854.445 92.9676 853.201 92.7219C851.958 92.4441 850.781 92.0555 849.669 91.556C849.193 91.3237 848.96 90.9356 848.969 90.3916C848.974 90.1037 849.107 89.85 849.367 89.6305C849.627 89.379 849.917 89.256 850.237 89.2616C850.301 89.2627 850.413 89.2967 850.572 89.3635C850.73 89.4302 851.016 89.5472 851.43 89.7145C852.034 89.9491 852.83 90.171 853.818 90.3803C854.807 90.5896 855.829 90.7034 856.885 90.7218C858.613 90.752 859.929 90.4869 860.835 89.9267C861.774 89.335 862.251 88.5912 862.266 87.6953C862.281 86.8634 861.973 86.154 861.343 85.5669C860.714 84.9478 859.649 84.5611 858.147 84.4069L856.231 84.1814C854.347 83.9565 852.913 83.5794 851.93 83.0502C850.948 82.489 850.287 81.8533 849.947 81.1433C849.607 80.4333 849.444 79.7263 849.456 79.0224C849.47 78.2225 849.692 77.4423 850.121 76.6817C850.583 75.8896 851.346 75.2308 852.412 74.7053C853.509 74.1804 855.002 73.9344 856.889 73.9674C857.977 73.9864 858.984 74.0839 859.909 74.2601C860.866 74.4048 861.711 74.5956 862.443 74.8324C862.698 74.8689 862.904 75.0165 863.059 75.2752C863.215 75.502 863.291 75.7434 863.287 75.9993C863.281 76.3513 863.148 76.637 862.888 76.8565C862.66 77.0765 862.386 77.1838 862.066 77.1782C861.874 77.1749 861.539 77.105 861.062 76.9686Z" fill="#F4F1EB"/>
</svg>
