<svg width="1157" height="155" viewBox="0 0 1157 155" fill="none" xmlns="http://www.w3.org/2000/svg">
<path d="M29.9688 64.9375C29.9688 66.2292 29.7708 67.4271 29.375 68.5312C28.9792 69.6354 28.4583 70.6562 27.8125 71.5938C27.1875 72.5104 26.4792 73.3438 25.6875 74.0938C24.8958 74.8229 24.1042 75.4479 23.3125 75.9688C25.0417 76.4271 26.5312 77.0208 27.7812 77.75C29.0312 78.4792 30.0625 79.3229 30.875 80.2812C31.6875 81.2396 32.2812 82.3021 32.6562 83.4688C33.0521 84.6146 33.25 85.8438 33.25 87.1562C33.25 88.7604 32.9583 90.3229 32.375 91.8438C31.8125 93.3646 30.9479 94.7188 29.7812 95.9062C28.6354 97.0938 27.1979 98.0521 25.4688 98.7812C23.7604 99.5104 21.7604 99.875 19.4688 99.875C18.6354 99.875 17.8021 99.8333 16.9688 99.75C16.1354 99.6875 15.3021 99.6042 14.4688 99.5C13.6354 99.4167 12.7917 99.3333 11.9375 99.25C11.0833 99.1667 10.2292 99.125 9.375 99.125C8.375 99.125 7.30208 99.1562 6.15625 99.2188C5.03125 99.2812 3.75 99.375 2.3125 99.5L2.375 97.7188C2.91667 97.6771 3.39583 97.6354 3.8125 97.5938C4.22917 97.5521 4.61458 97.5104 4.96875 97.4688C5.32292 97.4271 5.66667 97.3958 6 97.375C6.33333 97.3542 6.6875 97.3333 7.0625 97.3125C7.27083 91 7.45833 85.3438 7.625 80.3438C7.6875 78.2188 7.75 76.125 7.8125 74.0625C7.89583 72 7.96875 70.1562 8.03125 68.5312C8.09375 66.9062 8.13542 65.5729 8.15625 64.5312C8.19792 63.4896 8.21875 62.9167 8.21875 62.8125C8.21875 61.8542 8.15625 61.0833 8.03125 60.5C7.90625 59.8958 7.70833 59.4271 7.4375 59.0938C7.16667 58.7604 6.83333 58.5208 6.4375 58.375C6.04167 58.2292 5.58333 58.1146 5.0625 58.0312L3.71875 57.8438L3.78125 56.0312C4.28125 56.1146 4.84375 56.1979 5.46875 56.2812C6.01042 56.3438 6.63542 56.3958 7.34375 56.4375C8.05208 56.4792 8.83333 56.5 9.6875 56.5C10.5833 56.5 11.3646 56.4583 12.0312 56.375C12.7188 56.2917 13.4062 56.2083 14.0938 56.125C14.7812 56.0208 15.5312 55.9271 16.3438 55.8438C17.1562 55.7604 18.1562 55.7188 19.3438 55.7188C21.2604 55.7188 22.8958 55.9792 24.25 56.5C25.6042 57.0208 26.6979 57.7083 27.5312 58.5625C28.3854 59.4167 29 60.3958 29.375 61.5C29.7708 62.6042 29.9688 63.75 29.9688 64.9375ZM12.5625 77.2188C12.4792 79.9688 12.3958 82.4479 12.3125 84.6562C12.2708 85.5938 12.2396 86.5312 12.2188 87.4688C12.1979 88.4062 12.1667 89.2604 12.125 90.0312C12.1042 90.7812 12.0833 91.4271 12.0625 91.9688C12.0625 92.4896 12.0625 92.8229 12.0625 92.9688C12.0625 93.8438 12.1562 94.6042 12.3438 95.25C12.5312 95.875 12.8542 96.4062 13.3125 96.8438C13.7917 97.2604 14.4271 97.5729 15.2188 97.7812C16.0312 97.9896 17.0625 98.0938 18.3125 98.0938C18.6458 98.0938 19.125 98.0625 19.75 98C20.375 97.9375 21.0521 97.8021 21.7812 97.5938C22.5104 97.3646 23.25 97.0312 24 96.5938C24.75 96.1562 25.4271 95.5625 26.0312 94.8125C26.6562 94.0625 27.1562 93.1354 27.5312 92.0312C27.9271 90.9062 28.125 89.5521 28.125 87.9688C28.125 86.4271 27.8854 84.9896 27.4062 83.6562C26.9479 82.3229 26.2188 81.1667 25.2188 80.1875C24.2396 79.2083 22.9792 78.4375 21.4375 77.875C19.9167 77.3125 18.0938 77.0312 15.9688 77.0312C14.8438 77.0312 13.7083 77.0938 12.5625 77.2188ZM14.4062 75C15.4688 75 16.4688 75.0417 17.4062 75.125C18.3646 75.1875 19.2812 75.2708 20.1562 75.375C20.8646 74.875 21.5104 74.3021 22.0938 73.6562C22.6979 73.0104 23.2188 72.3125 23.6562 71.5625C24.0938 70.7917 24.4271 69.9688 24.6562 69.0938C24.9062 68.2188 25.0312 67.3021 25.0312 66.3438C25.0312 64.9688 24.8438 63.75 24.4688 62.6875C24.0938 61.625 23.5729 60.7292 22.9062 60C22.2396 59.2708 21.4583 58.7188 20.5625 58.3438C19.6667 57.9688 18.6875 57.7812 17.625 57.7812C17.0208 57.7812 16.4062 57.7917 15.7812 57.8125C15.1562 57.8125 14.4271 57.8646 13.5938 57.9688C13.5312 58.5729 13.4583 59.3333 13.375 60.25C13.3125 61.1458 13.2396 62.125 13.1562 63.1875C13.0729 64.25 13 65.3542 12.9375 66.5C12.875 67.625 12.8333 68.7083 12.8125 69.75L12.625 75H14.4062ZM42.375 97.3125C42.4792 94.5417 42.5729 91.8021 42.6562 89.0938C42.7604 86.3854 42.8542 83.7917 42.9375 81.3125C43.0417 78.8333 43.125 76.5208 43.1875 74.375C43.25 72.2292 43.3021 70.3333 43.3438 68.6875C43.4062 67.0417 43.4479 65.6875 43.4688 64.625C43.5104 63.5625 43.5312 62.875 43.5312 62.5625C43.5312 61.6667 43.4688 60.9375 43.3438 60.375C43.2188 59.8125 43.0312 59.375 42.7812 59.0625C42.5312 58.7292 42.2083 58.5 41.8125 58.375C41.4375 58.2292 40.9896 58.1146 40.4688 58.0312L39.125 57.8438V56.0312C39.5833 56.1146 40.125 56.1979 40.75 56.2812C41.2917 56.3438 41.9479 56.3958 42.7188 56.4375C43.5104 56.4792 44.4375 56.5 45.5 56.5C46.5625 56.5 47.7292 56.4688 49 56.4062C50.2917 56.3229 51.7083 56.1979 53.25 56.0312V57.8438C52.7083 57.8854 52.2292 57.9271 51.8125 57.9688C51.4167 58.0104 51.0417 58.0521 50.6875 58.0938C50.3333 58.1146 49.9896 58.1354 49.6562 58.1562C49.3229 58.1771 48.9688 58.1979 48.5938 58.2188C48.4896 60.9896 48.3854 63.7396 48.2812 66.4688C48.1979 69.1771 48.1042 71.7708 48 74.25C47.9167 76.7083 47.8333 79.0208 47.75 81.1875C47.6875 83.3333 47.625 85.2292 47.5625 86.875C47.5 88.5208 47.4479 89.875 47.4062 90.9375C47.3854 92 47.375 92.6771 47.375 92.9688C47.375 93.9688 47.5521 94.7708 47.9062 95.375C48.2604 95.9792 48.7708 96.4479 49.4375 96.7812C50.1042 97.0938 50.9062 97.3125 51.8438 97.4375C52.7812 97.5417 53.8438 97.5938 55.0312 97.5938C56.6979 97.5938 58.1146 97.4583 59.2812 97.1875C60.4688 96.9167 61.4688 96.4688 62.2812 95.8438C63.1146 95.2188 63.7917 94.3854 64.3125 93.3438C64.8333 92.3021 65.2604 91 65.5938 89.4375H67.5938C67.5104 90 67.3854 90.7396 67.2188 91.6562C67.0521 92.5521 66.8438 93.5104 66.5938 94.5312C66.3646 95.5312 66.0833 96.5312 65.75 97.5312C65.4375 98.5312 65.0938 99.3958 64.7188 100.125C62.5104 100.062 60.3646 99.9688 58.2812 99.8438C56.1979 99.7396 54.2812 99.6354 52.5312 99.5312C50.8021 99.4271 49.2917 99.3333 48 99.25C46.7083 99.1667 45.75 99.125 45.125 99.125C44.0625 99.125 42.9375 99.1458 41.75 99.1875C40.5625 99.2292 39.1875 99.3333 37.625 99.5L37.6875 97.7188C38.2292 97.6771 38.7083 97.6354 39.125 97.5938C39.5417 97.5521 39.9271 97.5104 40.2812 97.4688C40.6354 97.4271 40.9792 97.3958 41.3125 97.375C41.6458 97.3542 42 97.3333 42.375 97.3125ZM70.0625 97.7188C70.6042 97.6771 71.0833 97.6354 71.5 97.5938C71.9167 97.5521 72.3021 97.5104 72.6562 97.4688C73.0104 97.4271 73.3542 97.3958 73.6875 97.375C74.0208 97.3542 74.375 97.3333 74.75 97.3125C74.8542 94.5417 74.9479 91.8021 75.0312 89.0938C75.1354 86.3854 75.2292 83.7917 75.3125 81.3125C75.3958 78.8333 75.4792 76.5208 75.5625 74.375C75.6458 72.2292 75.7188 70.3333 75.7812 68.6875C75.8438 67.0417 75.8854 65.6875 75.9062 64.625C75.9479 63.5625 75.9688 62.875 75.9688 62.5625C75.9688 61.6667 75.8958 60.9375 75.75 60.375C75.625 59.8125 75.4271 59.375 75.1562 59.0625C74.9062 58.7292 74.5833 58.5 74.1875 58.375C73.7917 58.2292 73.3438 58.1146 72.8438 58.0312L71.4688 57.8438V56.0312C71.9271 56.1146 72.4792 56.1979 73.125 56.2812C73.6667 56.3438 74.3229 56.3958 75.0938 56.4375C75.8854 56.4792 76.8125 56.5 77.875 56.5C78.9375 56.5 80.1042 56.4688 81.375 56.4062C82.6667 56.3229 84.0833 56.1979 85.625 56.0312V57.8438C85.0833 57.8854 84.6042 57.9271 84.1875 57.9688C83.7708 58.0104 83.3854 58.0521 83.0312 58.0938C82.6979 58.1146 82.3646 58.1354 82.0312 58.1562C81.6979 58.1771 81.3438 58.1979 80.9688 58.2188C80.8646 60.9896 80.7604 63.7396 80.6562 66.4688C80.5729 69.1771 80.4792 71.7708 80.375 74.25C80.2917 76.7083 80.2083 79.0208 80.125 81.1875C80.0625 83.3333 80 85.2292 79.9375 86.875C79.875 88.5208 79.8229 89.875 79.7812 90.9375C79.7604 92 79.75 92.6771 79.75 92.9688C79.75 93.8854 79.8125 94.625 79.9375 95.1875C80.0833 95.75 80.2812 96.1979 80.5312 96.5312C80.8021 96.8438 81.1354 97.0729 81.5312 97.2188C81.9271 97.3646 82.375 97.4688 82.875 97.5312L84.2188 97.7188V99.5C83.7604 99.4375 83.2083 99.3646 82.5625 99.2812C82.0208 99.2396 81.3542 99.1979 80.5625 99.1562C79.7708 99.0938 78.8542 99.0625 77.8125 99.0625C76.75 99.0625 75.5833 99.0938 74.3125 99.1562C73.0417 99.2188 71.625 99.3333 70.0625 99.5V97.7188ZM88.9375 97.7188C89.4792 97.6771 89.9583 97.6354 90.375 97.5938C90.7917 97.5521 91.1771 97.5104 91.5312 97.4688C91.8854 97.4271 92.2292 97.3958 92.5625 97.375C92.8958 97.3542 93.25 97.3333 93.625 97.3125L94.4375 73.1875C94.5 71.7083 94.5312 70.3021 94.5312 68.9688C94.5521 67.6354 94.5625 66.3542 94.5625 65.125C94.5625 63.1667 94.5312 61.4271 94.4688 59.9062C94.4271 58.3646 94.375 57.0729 94.3125 56.0312L96.875 55.0938L127.531 91.9062C127.594 90.0938 127.656 88.1458 127.719 86.0625C127.802 83.9792 127.875 81.9062 127.938 79.8438C128 77.7604 128.062 75.75 128.125 73.8125C128.188 71.875 128.24 70.125 128.281 68.5625C128.323 66.9792 128.354 65.6667 128.375 64.625C128.417 63.5625 128.438 62.875 128.438 62.5625C128.438 61.6667 128.375 60.9375 128.25 60.375C128.125 59.8125 127.927 59.375 127.656 59.0625C127.406 58.7292 127.083 58.5 126.688 58.375C126.312 58.2292 125.875 58.1146 125.375 58.0312L124.031 57.8438V56.0312C124.323 56.1146 124.719 56.1979 125.219 56.2812C125.635 56.3438 126.167 56.3958 126.812 56.4375C127.458 56.4792 128.25 56.5 129.188 56.5C130.125 56.5 131.188 56.4688 132.375 56.4062C133.583 56.3229 134.958 56.1979 136.5 56.0312V57.8438C135.958 57.8854 135.479 57.9271 135.062 57.9688C134.646 58.0104 134.26 58.0521 133.906 58.0938C133.573 58.1146 133.24 58.1354 132.906 58.1562C132.573 58.1771 132.208 58.1979 131.812 58.2188L131.125 78.3125C131.104 78.875 131.083 79.625 131.062 80.5625C131.042 81.5 131.01 82.4896 130.969 83.5312C130.948 84.5521 130.927 85.5729 130.906 86.5938C130.885 87.6146 130.875 88.4792 130.875 89.1875C130.875 90.125 130.875 91.0104 130.875 91.8438C130.875 92.6562 130.875 93.4688 130.875 94.2812C130.896 95.0938 130.917 95.9271 130.938 96.7812C130.979 97.6146 131.021 98.5208 131.062 99.5L128.375 100.406L97.7188 64.0312C97.6771 65.8021 97.625 67.7083 97.5625 69.75C97.5208 71.7708 97.4688 73.8125 97.4062 75.875C97.3646 77.9167 97.3125 79.9062 97.25 81.8438C97.2083 83.7604 97.1667 85.5 97.125 87.0625C97.0833 88.6042 97.0521 89.9062 97.0312 90.9688C97.0104 92.0104 97 92.6771 97 92.9688C97 93.8854 97.0625 94.625 97.1875 95.1875C97.3125 95.7292 97.5 96.1667 97.75 96.5C98 96.8125 98.3125 97.0417 98.6875 97.1875C99.0833 97.3333 99.5521 97.4479 100.094 97.5312L101.438 97.7188V99.5C101.125 99.4375 100.719 99.3646 100.219 99.2812C99.8021 99.2396 99.2708 99.1979 98.625 99.1562C97.9792 99.0938 97.1875 99.0625 96.25 99.0625C95.3125 99.0625 94.25 99.0938 93.0625 99.1562C91.875 99.2188 90.5 99.3333 88.9375 99.5V97.7188ZM139.812 97.7188C140.354 97.6771 140.833 97.6354 141.25 97.5938C141.667 97.5521 142.052 97.5104 142.406 97.4688C142.76 97.4271 143.104 97.3958 143.438 97.375C143.771 97.3542 144.125 97.3333 144.5 97.3125C144.708 91.2083 144.896 85.6875 145.062 80.75C145.125 78.6458 145.188 76.5729 145.25 74.5312C145.333 72.4896 145.406 70.6354 145.469 68.9688C145.531 67.3021 145.573 65.9167 145.594 64.8125C145.635 63.6875 145.656 63 145.656 62.75C145.656 61.7917 145.594 61.0208 145.469 60.4375C145.344 59.8542 145.156 59.4062 144.906 59.0938C144.656 58.7604 144.333 58.5208 143.938 58.375C143.562 58.2292 143.115 58.1146 142.594 58.0312L141.25 57.8438V56.0312C141.854 56.1146 142.51 56.1979 143.219 56.2812C143.823 56.3438 144.521 56.3958 145.312 56.4375C146.125 56.4792 146.99 56.5 147.906 56.5C149.052 56.5 150.198 56.4583 151.344 56.375C152.51 56.2917 153.698 56.2083 154.906 56.125C156.115 56.0208 157.344 55.9271 158.594 55.8438C159.865 55.7604 161.188 55.7188 162.562 55.7188C165.75 55.7188 168.667 56.2396 171.312 57.2812C173.958 58.3229 176.219 59.8021 178.094 61.7188C179.99 63.6354 181.458 65.9375 182.5 68.625C183.542 71.3125 184.062 74.2917 184.062 77.5625C184.062 79.0625 183.896 80.6562 183.562 82.3438C183.25 84.0104 182.719 85.6771 181.969 87.3438C181.24 88.9896 180.26 90.5729 179.031 92.0938C177.823 93.5938 176.333 94.9271 174.562 96.0938C172.792 97.2396 170.708 98.1562 168.312 98.8438C165.917 99.5312 163.167 99.875 160.062 99.875C159.104 99.875 158.125 99.8333 157.125 99.75C156.146 99.6875 155.146 99.6042 154.125 99.5C153.125 99.4167 152.104 99.3333 151.062 99.25C150.021 99.1667 148.969 99.125 147.906 99.125C146.906 99.125 145.729 99.1458 144.375 99.1875C143.042 99.2083 141.521 99.3125 139.812 99.5V97.7188ZM158.125 58.0312C157.417 58.0312 156.708 58.0417 156 58.0625C155.292 58.0625 154.615 58.0833 153.969 58.125C153.323 58.1458 152.719 58.1771 152.156 58.2188C151.594 58.2604 151.115 58.3021 150.719 58.3438C150.49 64.4479 150.292 69.9583 150.125 74.875C150.062 76.9792 149.99 79.0521 149.906 81.0938C149.844 83.1146 149.781 84.9479 149.719 86.5938C149.677 88.2188 149.635 89.5833 149.594 90.6875C149.573 91.7708 149.562 92.4062 149.562 92.5938C149.562 93.5938 149.667 94.4375 149.875 95.125C150.083 95.7917 150.49 96.3333 151.094 96.75C151.698 97.1458 152.542 97.4271 153.625 97.5938C154.729 97.7604 156.167 97.8438 157.938 97.8438C159 97.8438 160.229 97.7604 161.625 97.5938C163.042 97.4271 164.5 97.1042 166 96.625C167.521 96.1458 169.01 95.4688 170.469 94.5938C171.927 93.6979 173.229 92.5208 174.375 91.0625C175.521 89.6042 176.448 87.8333 177.156 85.75C177.865 83.6458 178.219 81.1458 178.219 78.25C178.219 76.7083 178.094 75.1458 177.844 73.5625C177.615 71.9583 177.208 70.4062 176.625 68.9062C176.042 67.4062 175.25 66 174.25 64.6875C173.271 63.3542 172.031 62.1979 170.531 61.2188C169.052 60.2396 167.292 59.4688 165.25 58.9062C163.208 58.3229 160.833 58.0312 158.125 58.0312ZM211.562 78.9688C210.312 78.8021 209.042 78.6562 207.75 78.5312C206.479 78.4062 205.26 78.3021 204.094 78.2188C202.927 78.1354 201.854 78.0729 200.875 78.0312C199.917 77.9688 199.125 77.9167 198.5 77.875C198.417 80.375 198.333 82.6562 198.25 84.7188C198.208 85.5938 198.177 86.4688 198.156 87.3438C198.135 88.2188 198.104 89.0312 198.062 89.7812C198.042 90.5104 198.021 91.1354 198 91.6562C198 92.1771 198 92.5312 198 92.7188C198 93.8021 198.146 94.6667 198.438 95.3125C198.729 95.9583 199.167 96.4479 199.75 96.7812C200.354 97.1146 201.094 97.3333 201.969 97.4375C202.844 97.5417 203.865 97.5938 205.031 97.5938C206.698 97.5938 208.115 97.4896 209.281 97.2812C210.469 97.0729 211.469 96.6875 212.281 96.125C213.115 95.5625 213.792 94.7917 214.312 93.8125C214.833 92.8125 215.26 91.5312 215.594 89.9688H217.562C217.479 90.5312 217.354 91.2396 217.188 92.0938C217.021 92.9479 216.812 93.8542 216.562 94.8125C216.333 95.75 216.052 96.6875 215.719 97.625C215.406 98.5625 215.062 99.3958 214.688 100.125C212.479 100.062 210.365 99.9688 208.344 99.8438C206.344 99.7396 204.51 99.6354 202.844 99.5312C201.198 99.4271 199.76 99.3333 198.531 99.25C197.302 99.1667 196.375 99.125 195.75 99.125C194.688 99.125 193.562 99.1458 192.375 99.1875C191.188 99.2292 189.812 99.3333 188.25 99.5L188.312 97.7188C188.854 97.6771 189.333 97.6354 189.75 97.5938C190.167 97.5521 190.552 97.5104 190.906 97.4688C191.26 97.4271 191.604 97.3958 191.938 97.375C192.271 97.3542 192.625 97.3333 193 97.3125C193.208 91.2083 193.396 85.6875 193.562 80.75C193.625 78.6458 193.688 76.5729 193.75 74.5312C193.833 72.4688 193.906 70.6042 193.969 68.9375C194.031 67.2708 194.073 65.875 194.094 64.75C194.135 63.625 194.156 62.9375 194.156 62.6875C194.156 61.75 194.094 61 193.969 60.4375C193.865 59.8542 193.688 59.4062 193.438 59.0938C193.188 58.7604 192.865 58.5208 192.469 58.375C192.073 58.2292 191.594 58.1146 191.031 58.0312L189.75 57.8438V56.0312C190.333 56.1146 191.073 56.1979 191.969 56.2812C192.74 56.3438 193.708 56.3958 194.875 56.4375C196.042 56.4792 197.469 56.5 199.156 56.5H206.688C207.521 56.5 208.333 56.5 209.125 56.5C209.917 56.4792 210.719 56.4583 211.531 56.4375C212.344 56.3958 213.188 56.3438 214.062 56.2812C214.938 56.2188 215.875 56.1354 216.875 56.0312L215.906 66.5938H214C214.021 66.1771 214.031 65.8542 214.031 65.625C214.052 65.375 214.062 65.1875 214.062 65.0625C214.062 64.9167 214.062 64.8229 214.062 64.7812C214.062 64.7188 214.062 64.6667 214.062 64.625C214.062 63.9375 213.969 63.2812 213.781 62.6562C213.615 62.0312 213.271 61.4792 212.75 61C212.25 60.5 211.542 60.0938 210.625 59.7812C209.729 59.4479 208.552 59.2292 207.094 59.125L199.406 58.5938C199.24 60.3021 199.104 62.0417 199 63.8125C198.917 65.5625 198.854 67.1771 198.812 68.6562L198.562 75.6875L211.875 75L211.562 78.9688ZM221.5 97.7188C222.042 97.6771 222.521 97.6354 222.938 97.5938C223.354 97.5521 223.74 97.5104 224.094 97.4688C224.448 97.4271 224.792 97.3958 225.125 97.375C225.458 97.3542 225.812 97.3333 226.188 97.3125C226.396 91.2083 226.583 85.6875 226.75 80.75C226.812 78.6458 226.875 76.5729 226.938 74.5312C227.021 72.4896 227.094 70.6354 227.156 68.9688C227.219 67.3021 227.26 65.9167 227.281 64.8125C227.323 63.6875 227.344 63 227.344 62.75C227.344 61.7917 227.281 61.0208 227.156 60.4375C227.031 59.8542 226.844 59.4062 226.594 59.0938C226.344 58.7604 226.021 58.5208 225.625 58.375C225.25 58.2292 224.802 58.1146 224.281 58.0312L222.938 57.8438V56.0312C223.542 56.1146 224.198 56.1979 224.906 56.2812C225.51 56.3438 226.208 56.3958 227 56.4375C227.812 56.4792 228.677 56.5 229.594 56.5C230.74 56.5 231.885 56.4583 233.031 56.375C234.198 56.2917 235.385 56.2083 236.594 56.125C237.802 56.0208 239.031 55.9271 240.281 55.8438C241.552 55.7604 242.875 55.7188 244.25 55.7188C247.438 55.7188 250.354 56.2396 253 57.2812C255.646 58.3229 257.906 59.8021 259.781 61.7188C261.677 63.6354 263.146 65.9375 264.188 68.625C265.229 71.3125 265.75 74.2917 265.75 77.5625C265.75 79.0625 265.583 80.6562 265.25 82.3438C264.938 84.0104 264.406 85.6771 263.656 87.3438C262.927 88.9896 261.948 90.5729 260.719 92.0938C259.51 93.5938 258.021 94.9271 256.25 96.0938C254.479 97.2396 252.396 98.1562 250 98.8438C247.604 99.5312 244.854 99.875 241.75 99.875C240.792 99.875 239.812 99.8333 238.812 99.75C237.833 99.6875 236.833 99.6042 235.812 99.5C234.812 99.4167 233.792 99.3333 232.75 99.25C231.708 99.1667 230.656 99.125 229.594 99.125C228.594 99.125 227.417 99.1458 226.062 99.1875C224.729 99.2083 223.208 99.3125 221.5 99.5V97.7188ZM239.812 58.0312C239.104 58.0312 238.396 58.0417 237.688 58.0625C236.979 58.0625 236.302 58.0833 235.656 58.125C235.01 58.1458 234.406 58.1771 233.844 58.2188C233.281 58.2604 232.802 58.3021 232.406 58.3438C232.177 64.4479 231.979 69.9583 231.812 74.875C231.75 76.9792 231.677 79.0521 231.594 81.0938C231.531 83.1146 231.469 84.9479 231.406 86.5938C231.365 88.2188 231.323 89.5833 231.281 90.6875C231.26 91.7708 231.25 92.4062 231.25 92.5938C231.25 93.5938 231.354 94.4375 231.562 95.125C231.771 95.7917 232.177 96.3333 232.781 96.75C233.385 97.1458 234.229 97.4271 235.312 97.5938C236.417 97.7604 237.854 97.8438 239.625 97.8438C240.688 97.8438 241.917 97.7604 243.312 97.5938C244.729 97.4271 246.188 97.1042 247.688 96.625C249.208 96.1458 250.698 95.4688 252.156 94.5938C253.615 93.6979 254.917 92.5208 256.062 91.0625C257.208 89.6042 258.135 87.8333 258.844 85.75C259.552 83.6458 259.906 81.1458 259.906 78.25C259.906 76.7083 259.781 75.1458 259.531 73.5625C259.302 71.9583 258.896 70.4062 258.312 68.9062C257.729 67.4062 256.938 66 255.938 64.6875C254.958 63.3542 253.719 62.1979 252.219 61.2188C250.74 60.2396 248.979 59.4688 246.938 58.9062C244.896 58.3229 242.521 58.0312 239.812 58.0312Z" fill="#F4F1EB"/>
<path d="M290 76.5L439.998 77.3474" stroke="black" stroke-width="2" stroke-linecap="round"/>
<path d="M834.531 58.2188C833.344 58.1771 832.26 58.1458 831.281 58.125C830.323 58.1042 829.552 58.0938 828.969 58.0938C827.802 58.0938 826.771 58.1875 825.875 58.375C824.979 58.5417 824.177 58.9062 823.469 59.4688C822.781 60.0312 822.177 60.8438 821.656 61.9062C821.135 62.9688 820.667 64.3854 820.25 66.1562H818.406L819.688 55.6562C822.062 55.8438 824.094 55.9583 825.781 56C827.49 56.0208 829 56.0312 830.312 56.0312C833.146 56.0312 835.844 56.0312 838.406 56.0312C840.99 56.0104 843.354 55.9896 845.5 55.9688C847.646 55.9271 849.542 55.8854 851.188 55.8438C852.854 55.7812 854.188 55.6979 855.188 55.5938L854.25 66.1562H852.312C852.312 65.9271 852.323 65.6354 852.344 65.2812C852.365 64.9062 852.375 64.6042 852.375 64.375C852.375 63.6875 852.302 63.0208 852.156 62.375C852.01 61.7292 851.698 61.1562 851.219 60.6562C850.74 60.1354 850.042 59.7083 849.125 59.375C848.229 59.0208 847.01 58.8021 845.469 58.7188L839.344 58.4062C839.24 61.1562 839.135 63.875 839.031 66.5625C838.948 69.25 838.865 71.8229 838.781 74.2812C838.719 76.7396 838.646 79.0417 838.562 81.1875C838.5 83.3333 838.448 85.2292 838.406 86.875C838.365 88.5208 838.323 89.875 838.281 90.9375C838.26 92 838.25 92.6771 838.25 92.9688C838.25 93.8854 838.312 94.625 838.438 95.1875C838.583 95.75 838.781 96.1979 839.031 96.5312C839.302 96.8438 839.625 97.0729 840 97.2188C840.375 97.3646 840.812 97.4688 841.312 97.5312L842.656 97.7188V99.5C842.198 99.4375 841.646 99.3646 841 99.2812C840.458 99.2396 839.792 99.1979 839 99.1562C838.208 99.0938 837.292 99.0625 836.25 99.0625C835.188 99.0625 834.021 99.0938 832.75 99.1562C831.479 99.2188 830.062 99.3333 828.5 99.5V97.7188C829.042 97.6771 829.521 97.6354 829.938 97.5938C830.354 97.5521 830.74 97.5104 831.094 97.4688C831.448 97.4271 831.792 97.3958 832.125 97.375C832.458 97.3542 832.812 97.3333 833.188 97.3125L834.531 58.2188ZM888.719 97.7188C889.26 97.6771 889.74 97.6354 890.156 97.5938C890.573 97.5521 890.958 97.5104 891.312 97.4688C891.667 97.4271 892.01 97.3958 892.344 97.375C892.677 97.3542 893.031 97.3333 893.406 97.3125C893.51 93.875 893.615 90.5 893.719 87.1875C893.844 83.875 893.969 80.7708 894.094 77.875C893.99 77.875 893.51 77.8854 892.656 77.9062C891.802 77.9062 890.677 77.9167 889.281 77.9375C887.885 77.9583 886.281 77.9896 884.469 78.0312C882.656 78.0729 880.76 78.1354 878.781 78.2188C876.802 78.2812 874.792 78.375 872.75 78.5C870.708 78.6042 868.76 78.7396 866.906 78.9062C866.823 80.7812 866.75 82.5312 866.688 84.1562C866.646 85.7604 866.604 87.1771 866.562 88.4062C866.542 89.6354 866.521 90.6458 866.5 91.4375C866.479 92.2083 866.469 92.7188 866.469 92.9688C866.469 93.8854 866.531 94.625 866.656 95.1875C866.802 95.75 867 96.1979 867.25 96.5312C867.521 96.8438 867.854 97.0729 868.25 97.2188C868.646 97.3646 869.094 97.4688 869.594 97.5312L870.938 97.7188V99.5C870.479 99.4375 869.927 99.3646 869.281 99.2812C868.74 99.2396 868.073 99.1979 867.281 99.1562C866.49 99.0938 865.573 99.0625 864.531 99.0625C863.469 99.0625 862.302 99.0938 861.031 99.1562C859.76 99.2188 858.344 99.3333 856.781 99.5V97.7188C857.323 97.6771 857.802 97.6354 858.219 97.5938C858.635 97.5521 859.021 97.5104 859.375 97.4688C859.729 97.4271 860.073 97.3958 860.406 97.375C860.74 97.3542 861.094 97.3333 861.469 97.3125C861.573 94.5417 861.667 91.8021 861.75 89.0938C861.854 86.3854 861.948 83.7917 862.031 81.3125C862.115 78.8333 862.198 76.5208 862.281 74.375C862.365 72.2292 862.438 70.3333 862.5 68.6875C862.562 67.0417 862.604 65.6875 862.625 64.625C862.667 63.5625 862.688 62.875 862.688 62.5625C862.688 61.6667 862.615 60.9375 862.469 60.375C862.344 59.8125 862.146 59.375 861.875 59.0625C861.625 58.7292 861.302 58.5 860.906 58.375C860.51 58.2292 860.062 58.1146 859.562 58.0312L858.188 57.8438V56.0312C858.646 56.1146 859.198 56.1979 859.844 56.2812C860.385 56.3438 861.042 56.3958 861.812 56.4375C862.604 56.4792 863.531 56.5 864.594 56.5C865.656 56.5 866.823 56.4688 868.094 56.4062C869.385 56.3229 870.802 56.1979 872.344 56.0312V57.8438C871.802 57.8854 871.323 57.9271 870.906 57.9688C870.49 58.0104 870.104 58.0521 869.75 58.0938C869.417 58.1146 869.083 58.1354 868.75 58.1562C868.417 58.1771 868.062 58.1979 867.688 58.2188L867.031 75.6875H894.156C894.219 73.9375 894.281 72.3229 894.344 70.8438C894.406 69.3438 894.458 68.0208 894.5 66.875C894.542 65.7292 894.573 64.7917 894.594 64.0625C894.615 63.3125 894.625 62.8125 894.625 62.5625C894.625 61.6667 894.552 60.9375 894.406 60.375C894.281 59.8125 894.083 59.375 893.812 59.0625C893.542 58.7292 893.208 58.5 892.812 58.375C892.438 58.2292 891.99 58.1146 891.469 58.0312L890.125 57.8438V56.0312C890.583 56.1146 891.135 56.1979 891.781 56.2812C892.323 56.3438 892.979 56.3958 893.75 56.4375C894.542 56.4792 895.469 56.5 896.531 56.5C897.594 56.5 898.76 56.4688 900.031 56.4062C901.323 56.3229 902.74 56.1979 904.281 56.0312V57.8438C903.74 57.8854 903.26 57.9271 902.844 57.9688C902.427 58.0104 902.042 58.0521 901.688 58.0938C901.354 58.1146 901.021 58.1354 900.688 58.1562C900.354 58.1771 900 58.1979 899.625 58.2188C899.521 60.9896 899.417 63.7396 899.312 66.4688C899.229 69.1771 899.135 71.7708 899.031 74.25C898.948 76.7083 898.865 79.0208 898.781 81.1875C898.719 83.3333 898.656 85.2292 898.594 86.875C898.531 88.5208 898.479 89.875 898.438 90.9375C898.417 92 898.406 92.6771 898.406 92.9688C898.406 93.8854 898.469 94.625 898.594 95.1875C898.74 95.75 898.938 96.1979 899.188 96.5312C899.458 96.8438 899.781 97.0729 900.156 97.2188C900.552 97.3646 901.01 97.4688 901.531 97.5312L902.875 97.7188V99.5C902.417 99.4375 901.865 99.3646 901.219 99.2812C900.677 99.2396 900.01 99.1979 899.219 99.1562C898.427 99.0938 897.51 99.0625 896.469 99.0625C895.406 99.0625 894.24 99.0938 892.969 99.1562C891.698 99.2188 890.281 99.3333 888.719 99.5V97.7188ZM931.219 78.9688C929.969 78.8021 928.698 78.6562 927.406 78.5312C926.135 78.4062 924.917 78.3021 923.75 78.2188C922.583 78.1354 921.51 78.0729 920.531 78.0312C919.573 77.9688 918.781 77.9167 918.156 77.875C918.073 80.375 917.99 82.6562 917.906 84.7188C917.865 85.5938 917.833 86.4688 917.812 87.3438C917.792 88.2188 917.76 89.0312 917.719 89.7812C917.698 90.5104 917.677 91.1354 917.656 91.6562C917.656 92.1771 917.656 92.5312 917.656 92.7188C917.656 93.8021 917.802 94.6667 918.094 95.3125C918.385 95.9583 918.823 96.4479 919.406 96.7812C920.01 97.1146 920.75 97.3333 921.625 97.4375C922.5 97.5417 923.521 97.5938 924.688 97.5938C926.354 97.5938 927.771 97.4896 928.938 97.2812C930.125 97.0729 931.125 96.6875 931.938 96.125C932.771 95.5625 933.448 94.7917 933.969 93.8125C934.49 92.8125 934.917 91.5312 935.25 89.9688H937.219C937.135 90.5312 937.01 91.2396 936.844 92.0938C936.677 92.9479 936.469 93.8542 936.219 94.8125C935.99 95.75 935.708 96.6875 935.375 97.625C935.062 98.5625 934.719 99.3958 934.344 100.125C932.135 100.062 930.021 99.9688 928 99.8438C926 99.7396 924.167 99.6354 922.5 99.5312C920.854 99.4271 919.417 99.3333 918.188 99.25C916.958 99.1667 916.031 99.125 915.406 99.125C914.344 99.125 913.219 99.1458 912.031 99.1875C910.844 99.2292 909.469 99.3333 907.906 99.5L907.969 97.7188C908.51 97.6771 908.99 97.6354 909.406 97.5938C909.823 97.5521 910.208 97.5104 910.562 97.4688C910.917 97.4271 911.26 97.3958 911.594 97.375C911.927 97.3542 912.281 97.3333 912.656 97.3125C912.865 91.2083 913.052 85.6875 913.219 80.75C913.281 78.6458 913.344 76.5729 913.406 74.5312C913.49 72.4688 913.562 70.6042 913.625 68.9375C913.688 67.2708 913.729 65.875 913.75 64.75C913.792 63.625 913.812 62.9375 913.812 62.6875C913.812 61.75 913.75 61 913.625 60.4375C913.521 59.8542 913.344 59.4062 913.094 59.0938C912.844 58.7604 912.521 58.5208 912.125 58.375C911.729 58.2292 911.25 58.1146 910.688 58.0312L909.406 57.8438V56.0312C909.99 56.1146 910.729 56.1979 911.625 56.2812C912.396 56.3438 913.365 56.3958 914.531 56.4375C915.698 56.4792 917.125 56.5 918.812 56.5H926.344C927.177 56.5 927.99 56.5 928.781 56.5C929.573 56.4792 930.375 56.4583 931.188 56.4375C932 56.3958 932.844 56.3438 933.719 56.2812C934.594 56.2188 935.531 56.1354 936.531 56.0312L935.562 66.5938H933.656C933.677 66.1771 933.688 65.8542 933.688 65.625C933.708 65.375 933.719 65.1875 933.719 65.0625C933.719 64.9167 933.719 64.8229 933.719 64.7812C933.719 64.7188 933.719 64.6667 933.719 64.625C933.719 63.9375 933.625 63.2812 933.438 62.6562C933.271 62.0312 932.927 61.4792 932.406 61C931.906 60.5 931.198 60.0938 930.281 59.7812C929.385 59.4479 928.208 59.2292 926.75 59.125L919.062 58.5938C918.896 60.3021 918.76 62.0417 918.656 63.8125C918.573 65.5625 918.51 67.1771 918.469 68.6562L918.219 75.6875L931.531 75L931.219 78.9688ZM994.469 97.7812C993.552 98.1146 992.51 98.4375 991.344 98.75C990.198 99.0625 988.99 99.3438 987.719 99.5938C986.469 99.8438 985.188 100.042 983.875 100.188C982.583 100.333 981.333 100.406 980.125 100.406C977.979 100.406 975.896 100.177 973.875 99.7188C971.854 99.2812 969.948 98.6354 968.156 97.7812C966.365 96.9062 964.719 95.8333 963.219 94.5625C961.74 93.2917 960.458 91.8333 959.375 90.1875C958.312 88.5417 957.479 86.7083 956.875 84.6875C956.292 82.6667 956 80.4792 956 78.125C956 74.6042 956.635 71.4271 957.906 68.5938C959.198 65.7604 960.969 63.3542 963.219 61.375C965.469 59.375 968.135 57.8438 971.219 56.7812C974.302 55.6979 977.656 55.1562 981.281 55.1562C982.594 55.1562 983.906 55.2083 985.219 55.3125C986.531 55.4167 987.792 55.5521 989 55.7188C990.229 55.8854 991.396 56.0729 992.5 56.2812C993.604 56.4896 994.604 56.7083 995.5 56.9375L994.594 67.375H992.688V66.875C992.688 65.875 992.552 64.8229 992.281 63.7188C992.01 62.6146 991.479 61.6042 990.688 60.6875C989.896 59.75 988.76 58.9792 987.281 58.375C985.802 57.75 983.865 57.4375 981.469 57.4375C978.594 57.4375 975.948 57.9167 973.531 58.875C971.135 59.8333 969.062 61.2083 967.312 63C965.562 64.7708 964.198 66.9375 963.219 69.5C962.26 72.0417 961.781 74.9167 961.781 78.125C961.781 81.1042 962.292 83.8125 963.312 86.25C964.333 88.6667 965.729 90.7396 967.5 92.4688C969.292 94.1771 971.375 95.5 973.75 96.4375C976.125 97.375 978.677 97.8438 981.406 97.8438C983.115 97.8438 984.625 97.7083 985.938 97.4375C987.25 97.1458 988.469 96.6979 989.594 96.0938C989.677 94.0729 989.74 92.4375 989.781 91.1875C989.844 89.9375 989.885 88.9479 989.906 88.2188C989.948 87.4896 989.969 86.9688 989.969 86.6562C989.99 86.3438 990 86.125 990 86C990 85.0417 989.938 84.2708 989.812 83.6875C989.688 83.1042 989.5 82.6458 989.25 82.3125C989 81.9792 988.677 81.7396 988.281 81.5938C987.885 81.4479 987.427 81.3333 986.906 81.25L985.562 81.0625V79.2812C986.021 79.3646 986.573 79.4375 987.219 79.5C987.76 79.5625 988.417 79.6146 989.188 79.6562C989.979 79.6979 990.906 79.7188 991.969 79.7188C993.031 79.7188 994.198 79.6875 995.469 79.625C996.76 79.5625 998.177 79.4479 999.719 79.2812V81.0625C999.177 81.1042 998.698 81.1458 998.281 81.1875C997.865 81.2292 997.479 81.2708 997.125 81.3125C996.792 81.3333 996.458 81.3542 996.125 81.375C995.792 81.3958 995.427 81.4167 995.031 81.4375L994.469 97.7812ZM1002.97 97.7188C1003.51 97.6771 1003.99 97.6354 1004.41 97.5938C1004.82 97.5521 1005.21 97.5104 1005.56 97.4688C1005.92 97.4271 1006.26 97.3958 1006.59 97.375C1006.93 97.3542 1007.28 97.3333 1007.66 97.3125C1007.76 94.5417 1007.85 91.8021 1007.94 89.0938C1008.04 86.3854 1008.14 83.7917 1008.22 81.3125C1008.3 78.8333 1008.39 76.5208 1008.47 74.375C1008.55 72.2292 1008.62 70.3333 1008.69 68.6875C1008.75 67.0417 1008.79 65.6875 1008.81 64.625C1008.85 63.5625 1008.88 62.875 1008.88 62.5625C1008.88 61.6667 1008.81 60.9375 1008.69 60.375C1008.56 59.8125 1008.36 59.375 1008.09 59.0625C1007.84 58.7292 1007.52 58.5 1007.12 58.375C1006.73 58.2292 1006.27 58.1146 1005.75 58.0312L1004.38 57.8438V56.0312C1004.96 56.1146 1005.58 56.1979 1006.25 56.2812C1006.81 56.3438 1007.45 56.3958 1008.16 56.4375C1008.89 56.4792 1009.64 56.5 1010.41 56.5C1011.11 56.5 1011.79 56.4583 1012.44 56.375C1013.08 56.2917 1013.75 56.2083 1014.44 56.125C1015.12 56.0208 1015.85 55.9271 1016.62 55.8438C1017.4 55.7604 1018.25 55.7188 1019.19 55.7188C1021.69 55.7188 1023.82 56.0312 1025.59 56.6562C1027.36 57.2604 1028.81 58.0833 1029.94 59.125C1031.06 60.1458 1031.89 61.3229 1032.41 62.6562C1032.93 63.9688 1033.19 65.3229 1033.19 66.7188C1033.19 68.6354 1032.83 70.2812 1032.12 71.6562C1031.44 73.0312 1030.58 74.1979 1029.56 75.1562C1028.56 76.0938 1027.49 76.8542 1026.34 77.4375C1025.22 78 1024.22 78.4167 1023.34 78.6875C1024.93 81.5417 1026.54 84.2292 1028.19 86.75C1029.83 89.2708 1031.45 91.4792 1033.03 93.375C1034.64 95.2708 1036.18 96.7708 1037.66 97.875C1039.16 98.9583 1040.55 99.5 1041.84 99.5L1041.78 100.594C1040.99 100.719 1040.22 100.781 1039.47 100.781C1037.76 100.74 1036.11 100.323 1034.53 99.5312C1032.97 98.7604 1031.48 97.7604 1030.06 96.5312C1028.65 95.3021 1027.31 93.9167 1026.06 92.375C1024.83 90.8125 1023.7 89.25 1022.66 87.6875C1021.64 86.125 1020.73 84.6354 1019.94 83.2188C1019.15 81.8021 1018.49 80.5938 1017.97 79.5938C1017.43 79.6354 1016.85 79.6667 1016.25 79.6875C1015.67 79.7083 1015.04 79.7188 1014.38 79.7188H1013.09C1013.07 80.3438 1013.04 81.0729 1013 81.9062C1012.98 82.7188 1012.95 83.5625 1012.91 84.4375C1012.89 85.3125 1012.85 86.1979 1012.81 87.0938C1012.79 87.9896 1012.77 88.8229 1012.75 89.5938C1012.73 90.3646 1012.71 91.0521 1012.69 91.6562C1012.67 92.2396 1012.66 92.6771 1012.66 92.9688C1012.66 93.8646 1012.72 94.5938 1012.84 95.1562C1012.97 95.6979 1013.16 96.1354 1013.41 96.4688C1013.66 96.8021 1013.98 97.0417 1014.38 97.1875C1014.77 97.3333 1015.24 97.4479 1015.78 97.5312L1017.12 97.7188V99.5C1016.67 99.4375 1016.11 99.3646 1015.47 99.2812C1014.93 99.2396 1014.26 99.1979 1013.47 99.1562C1012.68 99.0938 1011.76 99.0625 1010.72 99.0625C1009.66 99.0625 1008.49 99.0938 1007.22 99.1562C1005.95 99.2188 1004.53 99.3333 1002.97 99.5V97.7188ZM1013.16 77.5625H1014.94C1017.54 77.5625 1019.7 77.2604 1021.41 76.6562C1023.11 76.0312 1024.47 75.2188 1025.47 74.2188C1026.47 73.2188 1027.17 72.0729 1027.56 70.7812C1027.98 69.4896 1028.19 68.1562 1028.19 66.7812C1028.19 66.1146 1028.11 65.4375 1027.97 64.75C1027.84 64.0417 1027.61 63.3542 1027.28 62.6875C1026.97 62.0208 1026.54 61.3958 1026 60.8125C1025.48 60.2083 1024.83 59.6875 1024.06 59.25C1023.31 58.7917 1022.42 58.4375 1021.38 58.1875C1020.35 57.9167 1019.18 57.7812 1017.84 57.7812C1017.09 57.7812 1016.42 57.8021 1015.81 57.8438C1015.21 57.8854 1014.54 57.9688 1013.81 58.0938L1013.16 77.5625ZM1065.03 78.9688C1063.78 78.8021 1062.51 78.6562 1061.22 78.5312C1059.95 78.4062 1058.73 78.3021 1057.56 78.2188C1056.4 78.1354 1055.32 78.0729 1054.34 78.0312C1053.39 77.9688 1052.59 77.9167 1051.97 77.875C1051.89 80.375 1051.8 82.6562 1051.72 84.7188C1051.68 85.5938 1051.65 86.4688 1051.62 87.3438C1051.6 88.2188 1051.57 89.0312 1051.53 89.7812C1051.51 90.5104 1051.49 91.1354 1051.47 91.6562C1051.47 92.1771 1051.47 92.5312 1051.47 92.7188C1051.47 93.8021 1051.61 94.6667 1051.91 95.3125C1052.2 95.9583 1052.64 96.4479 1053.22 96.7812C1053.82 97.1146 1054.56 97.3333 1055.44 97.4375C1056.31 97.5417 1057.33 97.5938 1058.5 97.5938C1060.17 97.5938 1061.58 97.4896 1062.75 97.2812C1063.94 97.0729 1064.94 96.6875 1065.75 96.125C1066.58 95.5625 1067.26 94.7917 1067.78 93.8125C1068.3 92.8125 1068.73 91.5312 1069.06 89.9688H1071.03C1070.95 90.5312 1070.82 91.2396 1070.66 92.0938C1070.49 92.9479 1070.28 93.8542 1070.03 94.8125C1069.8 95.75 1069.52 96.6875 1069.19 97.625C1068.88 98.5625 1068.53 99.3958 1068.16 100.125C1065.95 100.062 1063.83 99.9688 1061.81 99.8438C1059.81 99.7396 1057.98 99.6354 1056.31 99.5312C1054.67 99.4271 1053.23 99.3333 1052 99.25C1050.77 99.1667 1049.84 99.125 1049.22 99.125C1048.16 99.125 1047.03 99.1458 1045.84 99.1875C1044.66 99.2292 1043.28 99.3333 1041.72 99.5L1041.78 97.7188C1042.32 97.6771 1042.8 97.6354 1043.22 97.5938C1043.64 97.5521 1044.02 97.5104 1044.38 97.4688C1044.73 97.4271 1045.07 97.3958 1045.41 97.375C1045.74 97.3542 1046.09 97.3333 1046.47 97.3125C1046.68 91.2083 1046.86 85.6875 1047.03 80.75C1047.09 78.6458 1047.16 76.5729 1047.22 74.5312C1047.3 72.4688 1047.38 70.6042 1047.44 68.9375C1047.5 67.2708 1047.54 65.875 1047.56 64.75C1047.6 63.625 1047.62 62.9375 1047.62 62.6875C1047.62 61.75 1047.56 61 1047.44 60.4375C1047.33 59.8542 1047.16 59.4062 1046.91 59.0938C1046.66 58.7604 1046.33 58.5208 1045.94 58.375C1045.54 58.2292 1045.06 58.1146 1044.5 58.0312L1043.22 57.8438V56.0312C1043.8 56.1146 1044.54 56.1979 1045.44 56.2812C1046.21 56.3438 1047.18 56.3958 1048.34 56.4375C1049.51 56.4792 1050.94 56.5 1052.62 56.5H1060.16C1060.99 56.5 1061.8 56.5 1062.59 56.5C1063.39 56.4792 1064.19 56.4583 1065 56.4375C1065.81 56.3958 1066.66 56.3438 1067.53 56.2812C1068.41 56.2188 1069.34 56.1354 1070.34 56.0312L1069.38 66.5938H1067.47C1067.49 66.1771 1067.5 65.8542 1067.5 65.625C1067.52 65.375 1067.53 65.1875 1067.53 65.0625C1067.53 64.9167 1067.53 64.8229 1067.53 64.7812C1067.53 64.7188 1067.53 64.6667 1067.53 64.625C1067.53 63.9375 1067.44 63.2812 1067.25 62.6562C1067.08 62.0312 1066.74 61.4792 1066.22 61C1065.72 60.5 1065.01 60.0938 1064.09 59.7812C1063.2 59.4479 1062.02 59.2292 1060.56 59.125L1052.88 58.5938C1052.71 60.3021 1052.57 62.0417 1052.47 63.8125C1052.39 65.5625 1052.32 67.1771 1052.28 68.6562L1052.03 75.6875L1065.34 75L1065.03 78.9688ZM1098.22 78.9688C1096.97 78.8021 1095.7 78.6562 1094.41 78.5312C1093.14 78.4062 1091.92 78.3021 1090.75 78.2188C1089.58 78.1354 1088.51 78.0729 1087.53 78.0312C1086.57 77.9688 1085.78 77.9167 1085.16 77.875C1085.07 80.375 1084.99 82.6562 1084.91 84.7188C1084.86 85.5938 1084.83 86.4688 1084.81 87.3438C1084.79 88.2188 1084.76 89.0312 1084.72 89.7812C1084.7 90.5104 1084.68 91.1354 1084.66 91.6562C1084.66 92.1771 1084.66 92.5312 1084.66 92.7188C1084.66 93.8021 1084.8 94.6667 1085.09 95.3125C1085.39 95.9583 1085.82 96.4479 1086.41 96.7812C1087.01 97.1146 1087.75 97.3333 1088.62 97.4375C1089.5 97.5417 1090.52 97.5938 1091.69 97.5938C1093.35 97.5938 1094.77 97.4896 1095.94 97.2812C1097.12 97.0729 1098.12 96.6875 1098.94 96.125C1099.77 95.5625 1100.45 94.7917 1100.97 93.8125C1101.49 92.8125 1101.92 91.5312 1102.25 89.9688H1104.22C1104.14 90.5312 1104.01 91.2396 1103.84 92.0938C1103.68 92.9479 1103.47 93.8542 1103.22 94.8125C1102.99 95.75 1102.71 96.6875 1102.38 97.625C1102.06 98.5625 1101.72 99.3958 1101.34 100.125C1099.14 100.062 1097.02 99.9688 1095 99.8438C1093 99.7396 1091.17 99.6354 1089.5 99.5312C1087.85 99.4271 1086.42 99.3333 1085.19 99.25C1083.96 99.1667 1083.03 99.125 1082.41 99.125C1081.34 99.125 1080.22 99.1458 1079.03 99.1875C1077.84 99.2292 1076.47 99.3333 1074.91 99.5L1074.97 97.7188C1075.51 97.6771 1075.99 97.6354 1076.41 97.5938C1076.82 97.5521 1077.21 97.5104 1077.56 97.4688C1077.92 97.4271 1078.26 97.3958 1078.59 97.375C1078.93 97.3542 1079.28 97.3333 1079.66 97.3125C1079.86 91.2083 1080.05 85.6875 1080.22 80.75C1080.28 78.6458 1080.34 76.5729 1080.41 74.5312C1080.49 72.4688 1080.56 70.6042 1080.62 68.9375C1080.69 67.2708 1080.73 65.875 1080.75 64.75C1080.79 63.625 1080.81 62.9375 1080.81 62.6875C1080.81 61.75 1080.75 61 1080.62 60.4375C1080.52 59.8542 1080.34 59.4062 1080.09 59.0938C1079.84 58.7604 1079.52 58.5208 1079.12 58.375C1078.73 58.2292 1078.25 58.1146 1077.69 58.0312L1076.41 57.8438V56.0312C1076.99 56.1146 1077.73 56.1979 1078.62 56.2812C1079.4 56.3438 1080.36 56.3958 1081.53 56.4375C1082.7 56.4792 1084.12 56.5 1085.81 56.5H1093.34C1094.18 56.5 1094.99 56.5 1095.78 56.5C1096.57 56.4792 1097.38 56.4583 1098.19 56.4375C1099 56.3958 1099.84 56.3438 1100.72 56.2812C1101.59 56.2188 1102.53 56.1354 1103.53 56.0312L1102.56 66.5938H1100.66C1100.68 66.1771 1100.69 65.8542 1100.69 65.625C1100.71 65.375 1100.72 65.1875 1100.72 65.0625C1100.72 64.9167 1100.72 64.8229 1100.72 64.7812C1100.72 64.7188 1100.72 64.6667 1100.72 64.625C1100.72 63.9375 1100.62 63.2812 1100.44 62.6562C1100.27 62.0312 1099.93 61.4792 1099.41 61C1098.91 60.5 1098.2 60.0938 1097.28 59.7812C1096.39 59.4479 1095.21 59.2292 1093.75 59.125L1086.06 58.5938C1085.9 60.3021 1085.76 62.0417 1085.66 63.8125C1085.57 65.5625 1085.51 67.1771 1085.47 68.6562L1085.22 75.6875L1098.53 75L1098.22 78.9688ZM1107.78 97.7188C1108.32 97.6771 1108.8 97.6354 1109.22 97.5938C1109.64 97.5521 1110.02 97.5104 1110.38 97.4688C1110.73 97.4271 1111.07 97.3958 1111.41 97.375C1111.74 97.3542 1112.09 97.3333 1112.47 97.3125L1113.28 73.1875C1113.34 71.7083 1113.38 70.3021 1113.38 68.9688C1113.4 67.6354 1113.41 66.3542 1113.41 65.125C1113.41 63.1667 1113.38 61.4271 1113.31 59.9062C1113.27 58.3646 1113.22 57.0729 1113.16 56.0312L1115.72 55.0938L1146.38 91.9062C1146.44 90.0938 1146.5 88.1458 1146.56 86.0625C1146.65 83.9792 1146.72 81.9062 1146.78 79.8438C1146.84 77.7604 1146.91 75.75 1146.97 73.8125C1147.03 71.875 1147.08 70.125 1147.12 68.5625C1147.17 66.9792 1147.2 65.6667 1147.22 64.625C1147.26 63.5625 1147.28 62.875 1147.28 62.5625C1147.28 61.6667 1147.22 60.9375 1147.09 60.375C1146.97 59.8125 1146.77 59.375 1146.5 59.0625C1146.25 58.7292 1145.93 58.5 1145.53 58.375C1145.16 58.2292 1144.72 58.1146 1144.22 58.0312L1142.88 57.8438V56.0312C1143.17 56.1146 1143.56 56.1979 1144.06 56.2812C1144.48 56.3438 1145.01 56.3958 1145.66 56.4375C1146.3 56.4792 1147.09 56.5 1148.03 56.5C1148.97 56.5 1150.03 56.4688 1151.22 56.4062C1152.43 56.3229 1153.8 56.1979 1155.34 56.0312V57.8438C1154.8 57.8854 1154.32 57.9271 1153.91 57.9688C1153.49 58.0104 1153.1 58.0521 1152.75 58.0938C1152.42 58.1146 1152.08 58.1354 1151.75 58.1562C1151.42 58.1771 1151.05 58.1979 1150.66 58.2188L1149.97 78.3125C1149.95 78.875 1149.93 79.625 1149.91 80.5625C1149.89 81.5 1149.85 82.4896 1149.81 83.5312C1149.79 84.5521 1149.77 85.5729 1149.75 86.5938C1149.73 87.6146 1149.72 88.4792 1149.72 89.1875C1149.72 90.125 1149.72 91.0104 1149.72 91.8438C1149.72 92.6562 1149.72 93.4688 1149.72 94.2812C1149.74 95.0938 1149.76 95.9271 1149.78 96.7812C1149.82 97.6146 1149.86 98.5208 1149.91 99.5L1147.22 100.406L1116.56 64.0312C1116.52 65.8021 1116.47 67.7083 1116.41 69.75C1116.36 71.7708 1116.31 73.8125 1116.25 75.875C1116.21 77.9167 1116.16 79.9062 1116.09 81.8438C1116.05 83.7604 1116.01 85.5 1115.97 87.0625C1115.93 88.6042 1115.9 89.9062 1115.88 90.9688C1115.85 92.0104 1115.84 92.6771 1115.84 92.9688C1115.84 93.8854 1115.91 94.625 1116.03 95.1875C1116.16 95.7292 1116.34 96.1667 1116.59 96.5C1116.84 96.8125 1117.16 97.0417 1117.53 97.1875C1117.93 97.3333 1118.4 97.4479 1118.94 97.5312L1120.28 97.7188V99.5C1119.97 99.4375 1119.56 99.3646 1119.06 99.2812C1118.65 99.2396 1118.11 99.1979 1117.47 99.1562C1116.82 99.0938 1116.03 99.0625 1115.09 99.0625C1114.16 99.0625 1113.09 99.0938 1111.91 99.1562C1110.72 99.2188 1109.34 99.3333 1107.78 99.5V97.7188Z" fill="#F4F1EB"/>
<path d="M481.281 79.5312C480.031 79.3854 478.76 79.25 477.469 79.125C476.177 78.9792 474.938 78.8646 473.75 78.7812C472.583 78.6771 471.51 78.6042 470.531 78.5625C469.552 78.5 468.76 78.4583 468.156 78.4375C468.073 80.6458 468 82.6979 467.938 84.5938C467.896 85.4062 467.865 86.2188 467.844 87.0312C467.823 87.8438 467.802 88.6042 467.781 89.3125C467.76 90.0208 467.74 90.6562 467.719 91.2188C467.719 91.7604 467.719 92.1771 467.719 92.4688C467.719 93.4896 467.792 94.3125 467.938 94.9375C468.083 95.5625 468.292 96.0521 468.562 96.4062C468.854 96.7604 469.208 97.0208 469.625 97.1875C470.062 97.3333 470.552 97.4479 471.094 97.5312L472.438 97.7188V99.5C471.917 99.4375 471.312 99.3646 470.625 99.2812C470.042 99.2396 469.333 99.1979 468.5 99.1562C467.688 99.0938 466.76 99.0625 465.719 99.0625C464.656 99.0625 463.49 99.0938 462.219 99.1562C460.948 99.2188 459.531 99.3333 457.969 99.5V97.7188C458.51 97.6771 458.99 97.6354 459.406 97.5938C459.823 97.5521 460.208 97.5104 460.562 97.4688C460.917 97.4271 461.26 97.3958 461.594 97.375C461.927 97.3542 462.281 97.3333 462.656 97.3125C462.802 93.0833 462.927 89.3542 463.031 86.125C463.135 82.8958 463.229 80.0833 463.312 77.6875C463.396 75.2917 463.469 73.2604 463.531 71.5938C463.594 69.9271 463.635 68.5521 463.656 67.4688C463.698 66.3646 463.729 65.5104 463.75 64.9062C463.771 64.2812 463.781 63.8125 463.781 63.5C463.802 63.1875 463.812 62.9896 463.812 62.9062C463.812 62.8021 463.812 62.7292 463.812 62.6875C463.812 61.75 463.75 61 463.625 60.4375C463.521 59.8542 463.344 59.4062 463.094 59.0938C462.844 58.7604 462.521 58.5208 462.125 58.375C461.729 58.2292 461.25 58.1146 460.688 58.0312L459.406 57.8438V56.0312C459.99 56.1146 460.729 56.1979 461.625 56.2812C462.396 56.3438 463.365 56.3958 464.531 56.4375C465.698 56.4792 467.125 56.5 468.812 56.5H476.344C477.177 56.5 477.99 56.5 478.781 56.5C479.573 56.4792 480.375 56.4583 481.188 56.4375C482 56.3958 482.844 56.3438 483.719 56.2812C484.594 56.2188 485.531 56.1354 486.531 56.0312L485.562 66.5938H483.656C483.698 66.1771 483.719 65.8542 483.719 65.625C483.719 65.375 483.719 65.1042 483.719 64.8125C483.719 64.125 483.646 63.4688 483.5 62.8438C483.354 62.1979 483.042 61.625 482.562 61.125C482.083 60.6042 481.385 60.1667 480.469 59.8125C479.552 59.4583 478.333 59.2292 476.812 59.125L469.062 58.5938C468.896 60.3021 468.771 62.0417 468.688 63.8125C468.604 65.5625 468.531 67.1771 468.469 68.6562L468.219 76.2812L481.594 75.5625L481.281 79.5312ZM488.906 97.7188C489.448 97.6771 489.927 97.6354 490.344 97.5938C490.76 97.5521 491.146 97.5104 491.5 97.4688C491.854 97.4271 492.198 97.3958 492.531 97.375C492.865 97.3542 493.219 97.3333 493.594 97.3125C493.698 94.5417 493.792 91.8021 493.875 89.0938C493.979 86.3854 494.073 83.7917 494.156 81.3125C494.24 78.8333 494.323 76.5208 494.406 74.375C494.49 72.2292 494.562 70.3333 494.625 68.6875C494.688 67.0417 494.729 65.6875 494.75 64.625C494.792 63.5625 494.812 62.875 494.812 62.5625C494.812 61.6667 494.75 60.9375 494.625 60.375C494.5 59.8125 494.302 59.375 494.031 59.0625C493.781 58.7292 493.458 58.5 493.062 58.375C492.667 58.2292 492.208 58.1146 491.688 58.0312L490.312 57.8438V56.0312C490.896 56.1146 491.521 56.1979 492.188 56.2812C492.75 56.3438 493.385 56.3958 494.094 56.4375C494.823 56.4792 495.573 56.5 496.344 56.5C497.052 56.5 497.729 56.4583 498.375 56.375C499.021 56.2917 499.688 56.2083 500.375 56.125C501.062 56.0208 501.792 55.9271 502.562 55.8438C503.333 55.7604 504.188 55.7188 505.125 55.7188C507.625 55.7188 509.76 56.0312 511.531 56.6562C513.302 57.2604 514.75 58.0833 515.875 59.125C517 60.1458 517.823 61.3229 518.344 62.6562C518.865 63.9688 519.125 65.3229 519.125 66.7188C519.125 68.6354 518.771 70.2812 518.062 71.6562C517.375 73.0312 516.521 74.1979 515.5 75.1562C514.5 76.0938 513.427 76.8542 512.281 77.4375C511.156 78 510.156 78.4167 509.281 78.6875C510.865 81.5417 512.479 84.2292 514.125 86.75C515.771 89.2708 517.385 91.4792 518.969 93.375C520.573 95.2708 522.115 96.7708 523.594 97.875C525.094 98.9583 526.49 99.5 527.781 99.5L527.719 100.594C526.927 100.719 526.156 100.781 525.406 100.781C523.698 100.74 522.052 100.323 520.469 99.5312C518.906 98.7604 517.417 97.7604 516 96.5312C514.583 95.3021 513.25 93.9167 512 92.375C510.771 90.8125 509.635 89.25 508.594 87.6875C507.573 86.125 506.667 84.6354 505.875 83.2188C505.083 81.8021 504.427 80.5938 503.906 79.5938C503.365 79.6354 502.792 79.6667 502.188 79.6875C501.604 79.7083 500.979 79.7188 500.312 79.7188H499.031C499.01 80.3438 498.979 81.0729 498.938 81.9062C498.917 82.7188 498.885 83.5625 498.844 84.4375C498.823 85.3125 498.792 86.1979 498.75 87.0938C498.729 87.9896 498.708 88.8229 498.688 89.5938C498.667 90.3646 498.646 91.0521 498.625 91.6562C498.604 92.2396 498.594 92.6771 498.594 92.9688C498.594 93.8646 498.656 94.5938 498.781 95.1562C498.906 95.6979 499.094 96.1354 499.344 96.4688C499.594 96.8021 499.917 97.0417 500.312 97.1875C500.708 97.3333 501.177 97.4479 501.719 97.5312L503.062 97.7188V99.5C502.604 99.4375 502.052 99.3646 501.406 99.2812C500.865 99.2396 500.198 99.1979 499.406 99.1562C498.615 99.0938 497.698 99.0625 496.656 99.0625C495.594 99.0625 494.427 99.0938 493.156 99.1562C491.885 99.2188 490.469 99.3333 488.906 99.5V97.7188ZM499.094 77.5625H500.875C503.479 77.5625 505.635 77.2604 507.344 76.6562C509.052 76.0312 510.406 75.2188 511.406 74.2188C512.406 73.2188 513.104 72.0729 513.5 70.7812C513.917 69.4896 514.125 68.1562 514.125 66.7812C514.125 66.1146 514.052 65.4375 513.906 64.75C513.781 64.0417 513.552 63.3542 513.219 62.6875C512.906 62.0208 512.479 61.3958 511.938 60.8125C511.417 60.2083 510.771 59.6875 510 59.25C509.25 58.7917 508.354 58.4375 507.312 58.1875C506.292 57.9167 505.115 57.7812 503.781 57.7812C503.031 57.7812 502.354 57.8021 501.75 57.8438C501.146 57.8854 500.479 57.9688 499.75 58.0938L499.094 77.5625ZM534.375 77.2812C534.375 79.9896 534.74 82.5938 535.469 85.0938C536.219 87.5938 537.292 89.8125 538.688 91.75C540.104 93.6667 541.833 95.2083 543.875 96.375C545.917 97.5208 548.24 98.0938 550.844 98.0938C553.344 98.0938 555.542 97.5938 557.438 96.5938C559.354 95.5938 560.948 94.2292 562.219 92.5C563.49 90.75 564.448 88.7188 565.094 86.4062C565.74 84.0729 566.062 81.5729 566.062 78.9062C566.062 75.9062 565.677 73.1042 564.906 70.5C564.156 67.875 563.094 65.5938 561.719 63.6562C560.344 61.7188 558.698 60.1979 556.781 59.0938C554.885 57.9896 552.802 57.4375 550.531 57.4375C549.344 57.4375 548.125 57.5729 546.875 57.8438C545.625 58.0938 544.396 58.5312 543.188 59.1562C542 59.7604 540.865 60.5625 539.781 61.5625C538.719 62.5625 537.781 63.8021 536.969 65.2812C536.177 66.7396 535.542 68.4583 535.062 70.4375C534.604 72.4167 534.375 74.6979 534.375 77.2812ZM528.625 77.9375C528.625 74.6667 529.188 71.6354 530.312 68.8438C531.438 66.0521 533.021 63.6458 535.062 61.625C537.104 59.6042 539.552 58.0208 542.406 56.875C545.281 55.7292 548.458 55.1562 551.938 55.1562C554.062 55.1562 556.031 55.4479 557.844 56.0312C559.656 56.5938 561.302 57.3854 562.781 58.4062C564.26 59.4062 565.573 60.5938 566.719 61.9688C567.865 63.3438 568.823 64.8333 569.594 66.4375C570.385 68.0208 570.979 69.6979 571.375 71.4688C571.771 73.2396 571.969 75.0104 571.969 76.7812C571.969 80.2604 571.406 83.4479 570.281 86.3438C569.156 89.2188 567.625 91.7083 565.688 93.8125C563.75 95.8958 561.5 97.5208 558.938 98.6875C556.375 99.8333 553.656 100.406 550.781 100.406C548.302 100.406 546.031 100.104 543.969 99.5C541.927 98.9167 540.083 98.1042 538.438 97.0625C536.792 96 535.354 94.7604 534.125 93.3438C532.896 91.9062 531.875 90.3542 531.062 88.6875C530.25 87.0208 529.635 85.2812 529.219 83.4688C528.823 81.6354 528.625 79.7917 528.625 77.9375ZM623.406 91.625C623.427 92.8542 623.5 93.8333 623.625 94.5625C623.75 95.2917 623.938 95.8646 624.188 96.2812C624.438 96.6979 624.75 96.9896 625.125 97.1562C625.521 97.3229 626.01 97.4479 626.594 97.5312L627.938 97.7188V99.5C627.479 99.4375 626.927 99.3646 626.281 99.2812C625.74 99.2396 625.073 99.1979 624.281 99.1562C623.49 99.0938 622.573 99.0625 621.531 99.0625C620.469 99.0625 619.302 99.0938 618.031 99.1562C616.76 99.2188 615.344 99.3333 613.781 99.5V97.7188C614.323 97.6771 614.802 97.6354 615.219 97.5938C615.635 97.5521 616.021 97.5104 616.375 97.4688C616.729 97.4271 617.073 97.3958 617.406 97.375C617.74 97.3542 618.094 97.3333 618.469 97.3125L618.344 65.25H617.75L601.812 97.7812H600.344L586.344 65.125H585.812L583.906 89.1875C583.865 89.5 583.833 89.8646 583.812 90.2812C583.792 90.6771 583.76 91.0833 583.719 91.5C583.698 91.8958 583.677 92.2708 583.656 92.625C583.656 92.9792 583.656 93.2604 583.656 93.4688C583.656 94.2812 583.729 94.9375 583.875 95.4375C584.021 95.9167 584.219 96.3021 584.469 96.5938C584.74 96.8854 585.062 97.1042 585.438 97.25C585.833 97.375 586.281 97.4688 586.781 97.5312L588.125 97.7188V99.5C587.792 99.4375 587.354 99.3646 586.812 99.2812C586.354 99.2396 585.781 99.1979 585.094 99.1562C584.406 99.0938 583.583 99.0625 582.625 99.0625C581.667 99.0625 580.573 99.0938 579.344 99.1562C578.135 99.2188 576.75 99.3333 575.188 99.5V97.7188C575.729 97.6771 576.208 97.6354 576.625 97.5938C577.042 97.5521 577.427 97.5104 577.781 97.4688C578.135 97.4271 578.479 97.3958 578.812 97.375C579.146 97.3542 579.5 97.3333 579.875 97.3125L584.406 56.1875L587.375 55.1562L602.469 90.0312H602.906L619.375 55.8438L622.5 55.2188L623.406 91.625Z" fill="black"/>
<path d="M646 76.5L795.998 77.3474" stroke="black" stroke-width="2" stroke-linecap="round"/>
</svg>
